<svg width="4096" height="4096" viewBox="0 0 4096 4096" fill="none" xmlns="http://www.w3.org/2000/svg">
<rect x="199" y="202" width="3690" height="3697" fill="#D68B8B"/>
<rect x="310" y="361" width="3468" height="2727" fill="white"/>
<path d="M380.781 3434H329.204V3241.96H380.781V3434ZM588.29 3434L580.883 3409.58H516.686L509.279 3434H454.685L522.173 3242.23H575.671L642.885 3434H588.29ZM529.855 3363.22H566.617L557.289 3330.57L553.997 3319.87C553.449 3318.78 552.9 3316.85 552.351 3314.66C551.803 3312.47 551.254 3311.09 551.254 3310.27C550.98 3309.72 550.705 3308.62 550.157 3306.98C549.608 3305.33 549.334 3304.24 549.334 3303.69L548.785 3300.94H548.236L547.687 3303.41C547.413 3303.96 547.139 3305.06 546.59 3306.7C546.041 3308.35 545.767 3309.45 545.767 3310C545.493 3310.82 544.944 3312.19 544.395 3314.39C543.847 3316.58 543.298 3318.5 543.024 3319.6L539.731 3330.3L529.855 3363.22ZM791.481 3241.96H839.766L838.12 3434.55H788.189V3392.85C788.189 3371.45 788.738 3355.26 789.835 3344.84C790.384 3338.8 790.932 3334.69 791.207 3332.49C791.207 3330.3 791.207 3329.2 791.207 3329.2H790.658L788.463 3333.32C787.915 3334.41 786.817 3335.78 785.72 3337.98C784.623 3340.17 783.8 3341.55 783.251 3342.64C781.879 3345.11 780.233 3348.4 778.038 3352.79L775.02 3358.83L759.383 3387.36H733.594L717.957 3358.83C717.682 3358.28 716.585 3356.36 714.939 3352.52C712.744 3348.13 710.824 3344.84 709.726 3342.37C709.178 3341.82 708.355 3340.17 707.257 3337.98C705.886 3335.78 705.063 3333.86 704.514 3332.77L702.319 3328.65H701.77C701.496 3328.65 701.496 3329.75 701.77 3331.94C701.77 3334.14 702.319 3338.25 703.142 3344.29C704.24 3354.71 704.788 3370.9 704.788 3392.3V3434H654.858V3242.23H703.142L733.046 3293.54C739.081 3304.51 742.922 3311.64 744.294 3315.21C745.94 3319.6 746.763 3321.79 747.037 3321.79H747.586C747.586 3321.79 748.683 3319.6 750.329 3315.21C751.976 3311.09 755.542 3303.69 761.578 3293.26L791.481 3241.96ZM1047.11 3434L1039.7 3409.58H975.506L968.099 3434H913.504L980.993 3242.23H1034.49L1101.7 3434H1047.11ZM988.675 3363.22H1025.44L1016.11 3330.57L1012.82 3319.87C1012.27 3318.78 1011.72 3316.85 1011.17 3314.66C1010.62 3312.47 1010.07 3311.09 1010.07 3310.27C1009.8 3309.72 1009.53 3308.62 1008.98 3306.98C1008.43 3305.33 1008.15 3304.24 1008.15 3303.69L1007.6 3300.94H1007.06L1006.51 3303.41C1006.23 3303.96 1005.96 3305.06 1005.41 3306.7C1004.86 3308.35 1004.59 3309.45 1004.59 3310C1004.31 3310.82 1003.76 3312.19 1003.22 3314.39C1002.67 3316.58 1002.12 3318.5 1001.84 3319.6L998.551 3330.3L988.675 3363.22ZM1335.97 3289.42L1284.66 3302.86L1283.57 3302.31C1279.73 3297.38 1275.34 3293.81 1270.12 3291.62C1264.64 3289.42 1259.15 3288.32 1254.21 3288.32C1241.87 3288.32 1232.54 3292.71 1226.23 3301.49C1219.65 3310.54 1216.63 3322.62 1216.63 3337.43C1216.63 3353.34 1220.19 3365.41 1227.33 3373.64C1234.46 3382.15 1243.79 3386.26 1255.31 3386.26C1261.89 3386.26 1268.48 3384.89 1274.79 3381.6C1280.82 3378.58 1285.49 3373.92 1288.51 3367.61L1339.26 3380.78C1335.42 3389.83 1331.03 3397.79 1325.82 3404.65C1320.06 3412.05 1313.75 3418.09 1306.61 3422.75C1298.93 3427.96 1290.7 3431.81 1282.47 3434C1273.69 3436.74 1264.36 3438.12 1255.04 3438.12C1242.42 3438.12 1230.07 3435.92 1218.55 3431.26C1207.57 3426.87 1197.7 3420.01 1189.47 3410.96C1181.24 3402.45 1174.93 3392.03 1170.26 3379.41C1165.6 3367.33 1163.4 3353.62 1163.4 3338.25C1163.4 3322.89 1165.6 3309.17 1170.26 3297.1C1174.93 3284.76 1181.24 3274.33 1189.47 3265.55C1197.7 3256.77 1207.57 3249.91 1218.55 3245.25C1230.07 3240.59 1242.14 3238.12 1255.04 3238.12C1273.42 3238.12 1289.6 3242.78 1303.59 3251.56C1317.31 3260.61 1328.29 3273.23 1335.97 3289.42ZM1349.22 3338.53V3339.08C1349.22 3323.71 1351.41 3310 1356.07 3297.93C1360.74 3285.58 1367.05 3275.15 1375.28 3266.38C1383.51 3257.6 1393.38 3250.74 1404.36 3246.07C1415.88 3241.41 1427.95 3238.94 1440.85 3238.94C1453.47 3238.94 1465.81 3241.41 1477.33 3246.07C1488.31 3250.74 1498.18 3257.32 1506.41 3266.1C1514.37 3274.88 1520.68 3285.31 1525.62 3297.65C1530.01 3309.72 1532.48 3323.44 1532.48 3338.8C1532.48 3354.17 1530.01 3367.88 1525.62 3379.95C1520.68 3392.57 1514.37 3403 1506.41 3411.5C1498.18 3420.28 1488.31 3427.14 1477.33 3431.53C1465.54 3436.19 1453.47 3438.39 1440.85 3438.39C1428.23 3438.39 1415.88 3436.19 1404.36 3431.53C1393.38 3427.14 1383.51 3420.28 1375.28 3411.23C1367.05 3402.72 1360.74 3392.3 1356.07 3379.68C1351.41 3367.61 1349.22 3353.89 1349.22 3338.53ZM1402.71 3337.98V3338.53C1402.71 3354.17 1406 3366.24 1412.59 3375.02C1419.17 3383.79 1428.5 3388.18 1440.57 3388.18C1452.92 3388.18 1462.52 3383.79 1469.1 3375.02C1475.69 3366.24 1478.98 3354.17 1478.98 3338.53C1478.98 3323.16 1475.69 3310.82 1469.1 3302.04C1462.52 3293.26 1452.92 3288.87 1440.57 3288.87C1428.5 3288.87 1419.17 3293.26 1412.59 3301.77C1406 3310.27 1402.71 3322.34 1402.71 3337.98ZM1668.69 3434L1661.29 3409.58H1597.09L1589.68 3434H1535.09L1602.58 3242.23H1656.07L1723.29 3434H1668.69ZM1610.26 3363.22H1647.02L1637.69 3330.57L1634.4 3319.87C1633.85 3318.78 1633.3 3316.85 1632.75 3314.66C1632.21 3312.47 1631.66 3311.09 1631.66 3310.27C1631.38 3309.72 1631.11 3308.62 1630.56 3306.98C1630.01 3305.33 1629.74 3304.24 1629.74 3303.69L1629.19 3300.94H1628.64L1628.09 3303.41C1627.82 3303.96 1627.54 3305.06 1626.99 3306.7C1626.44 3308.35 1626.17 3309.45 1626.17 3310C1625.9 3310.82 1625.35 3312.19 1624.8 3314.39C1624.25 3316.58 1623.7 3318.5 1623.43 3319.6L1620.13 3330.3L1610.26 3363.22ZM1871.88 3291.07L1823.05 3304.51H1821.4C1818.66 3296.83 1814.82 3291.34 1809.88 3288.05C1804.67 3284.76 1799.46 3283.11 1794.24 3283.11C1789.58 3283.11 1786.01 3284.21 1783.55 3286.13C1781.08 3288.05 1779.98 3290.24 1779.98 3292.71C1779.98 3295.46 1780.8 3297.65 1782.72 3299.3C1784.64 3301.49 1787.11 3303.41 1790.4 3305.06C1793.42 3306.98 1797.54 3308.9 1802.48 3310.82C1804.12 3311.64 1806.59 3312.74 1810.16 3314.39C1813.45 3316.03 1816.19 3317.4 1818.11 3317.95C1826.89 3322.07 1833.2 3325.36 1837.59 3327.55C1844.18 3331.4 1849.94 3335.51 1854.88 3340.17C1859.81 3345.11 1864.2 3350.87 1867.49 3356.91C1870.79 3363.49 1872.43 3370.63 1872.43 3378.31C1872.43 3387.09 1870.51 3395.04 1867.22 3402.18C1863.65 3409.58 1858.72 3415.89 1852.41 3421.38C1846.37 3426.87 1838.69 3430.98 1829.64 3434C1820.86 3436.74 1810.98 3438.12 1800.28 3438.12C1790.13 3438.12 1780.8 3436.74 1772.3 3434C1764.07 3431.81 1756.66 3427.69 1749.8 3422.2C1743.22 3417.26 1737.46 3410.96 1732.52 3403.55C1727.58 3396.69 1723.74 3388.73 1720.72 3379.68L1769.83 3366.51C1771.2 3370.08 1772.85 3373.37 1774.77 3376.11C1776.41 3378.86 1778.88 3381.6 1781.9 3384.34C1784.64 3387.09 1787.66 3389.01 1791.23 3390.1C1795.07 3391.75 1798.91 3392.3 1802.75 3392.3C1808.24 3392.3 1812.63 3391.2 1815.37 3389.01C1818.11 3386.81 1819.48 3384.07 1819.48 3380.78C1819.48 3378.03 1818.39 3375.56 1816.47 3373.37C1814.27 3371.45 1811.53 3369.53 1807.96 3367.61C1803.85 3365.69 1799.46 3363.77 1794.52 3361.85C1790.68 3360.75 1785.19 3358.28 1777.78 3354.71C1773.39 3352.79 1767.36 3349.5 1759.4 3345.11C1753.64 3342.09 1748.43 3337.98 1743.49 3333.04C1738.83 3328.65 1735.26 3323.16 1732.52 3317.13C1729.77 3311.09 1728.4 3303.96 1728.4 3295.46C1728.4 3288.87 1730.05 3282.01 1733.34 3274.88C1736.63 3268.3 1741.3 3261.99 1747.33 3256.5C1753.37 3251.01 1760.5 3246.62 1769.28 3243.33C1777.51 3240.04 1787.11 3238.39 1797.81 3238.39C1806.86 3238.39 1815.37 3239.76 1823.33 3242.51C1831.56 3245.25 1838.69 3249.09 1844.72 3253.48C1851.03 3258.42 1856.52 3263.91 1861.18 3270.22C1865.85 3276.8 1869.42 3283.93 1871.88 3291.07ZM1875.13 3241.96H2030.13V3290.79H1978.01V3434H1926.43V3290.79H1875.13V3241.96ZM2160.2 3434L2152.79 3409.58H2088.6L2081.19 3434H2026.59L2094.08 3242.23H2147.58L2214.79 3434H2160.2ZM2101.76 3363.22H2138.53L2129.2 3330.57L2125.91 3319.87C2125.36 3318.78 2124.81 3316.85 2124.26 3314.66C2123.71 3312.47 2123.16 3311.09 2123.16 3310.27C2122.89 3309.72 2122.61 3308.62 2122.07 3306.98C2121.52 3305.33 2121.24 3304.24 2121.24 3303.69L2120.69 3300.94H2120.14L2119.6 3303.41C2119.32 3303.96 2119.05 3305.06 2118.5 3306.7C2117.95 3308.35 2117.68 3309.45 2117.68 3310C2117.4 3310.82 2116.85 3312.19 2116.3 3314.39C2115.76 3316.58 2115.21 3318.5 2114.93 3319.6L2111.64 3330.3L2101.76 3363.22ZM2278.89 3385.17H2359.27V3434H2227.31V3241.96H2278.89V3385.17ZM329.204 3516.23H402.18V3516.78C413.702 3516.78 423.853 3518.43 432.632 3521.17C441.411 3524.46 449.093 3528.85 455.677 3534.34C461.987 3540.38 466.925 3547.23 470.217 3555.46C473.509 3563.69 475.155 3573.02 475.155 3583.45C475.155 3593.87 473.509 3603.2 470.217 3611.43C466.925 3619.66 461.987 3626.79 455.677 3632.56C449.093 3638.32 441.411 3642.71 432.632 3645.72C423.853 3648.74 413.702 3650.11 402.18 3650.11H380.781V3708H329.204V3516.23ZM380.781 3601.55H401.082V3601.83C407.118 3601.83 412.056 3600.18 415.897 3596.89C419.463 3593.6 421.384 3588.93 421.384 3582.9C421.384 3577.14 419.463 3572.47 416.171 3569.18C412.605 3565.89 407.667 3564.24 401.082 3564.24H380.781V3601.55ZM650.449 3708H592.562L561.287 3647.1H546.747V3707.45H495.17V3515.41H567.322C578.296 3515.41 588.721 3517.06 598.049 3520.35C607.377 3523.64 615.333 3528.3 621.917 3534.34C628.501 3540.65 633.714 3547.78 637.28 3555.74C640.847 3564.24 642.767 3573.3 642.767 3583.17C642.767 3596.07 639.749 3607.04 634.262 3616.09C628.501 3625.42 620.82 3632.83 610.943 3637.77L650.449 3708ZM547.295 3564.24V3601.83H573.084C575.827 3601.83 578.57 3601.28 580.765 3600.18C582.686 3599.36 584.332 3597.71 585.978 3595.52C587.075 3593.87 588.173 3591.68 588.721 3589.48C589.27 3587.29 589.544 3585.37 589.544 3583.17C589.544 3581.25 589.27 3579.06 588.721 3576.86C588.173 3574.39 587.075 3572.2 585.978 3570.55C584.332 3568.36 582.686 3566.99 580.765 3565.89C578.57 3564.79 575.827 3564.24 573.084 3564.24H547.295ZM659.571 3612.53V3613.08C659.571 3597.71 661.765 3584 666.429 3571.93C671.093 3559.58 677.403 3549.15 685.633 3540.38C693.864 3531.6 703.74 3524.74 714.714 3520.07C726.236 3515.41 738.308 3512.94 751.202 3512.94C763.822 3512.94 776.167 3515.41 787.69 3520.07C798.663 3524.74 808.54 3531.32 816.77 3540.1C824.726 3548.88 831.036 3559.31 835.974 3571.65C840.364 3583.72 842.833 3597.44 842.833 3612.8C842.833 3628.17 840.364 3641.88 835.974 3653.95C831.036 3666.57 824.726 3677 816.77 3685.5C808.54 3694.28 798.663 3701.14 787.69 3705.53C775.893 3710.19 763.822 3712.39 751.202 3712.39C738.582 3712.39 726.236 3710.19 714.714 3705.53C703.74 3701.14 693.864 3694.28 685.633 3685.23C677.403 3676.72 671.093 3666.3 666.429 3653.68C661.765 3641.61 659.571 3627.89 659.571 3612.53ZM713.068 3611.98V3612.53C713.068 3628.17 716.36 3640.24 722.944 3649.02C729.529 3657.79 738.856 3662.18 750.927 3662.18C763.273 3662.18 772.875 3657.79 779.459 3649.02C786.044 3640.24 789.336 3628.17 789.336 3612.53C789.336 3597.16 786.044 3584.82 779.459 3576.04C772.875 3567.26 763.273 3562.87 750.927 3562.87C738.856 3562.87 729.529 3567.26 722.944 3575.77C716.36 3584.27 713.068 3596.34 713.068 3611.98ZM847.364 3515.96H1002.37V3564.79H950.243V3708H898.666V3564.79H847.364V3515.96ZM1069.61 3659.17H1152.74V3708H1018.03V3515.96H1151.09V3564.79H1069.61V3588.93H1131.89V3634.75H1069.61V3659.17ZM1346.14 3563.42L1294.83 3576.86L1293.74 3576.31C1289.9 3571.38 1285.51 3567.81 1280.29 3565.62C1274.81 3563.42 1269.32 3562.32 1264.38 3562.32C1252.04 3562.32 1242.71 3566.71 1236.4 3575.49C1229.82 3584.54 1226.8 3596.62 1226.8 3611.43C1226.8 3627.34 1230.36 3639.41 1237.5 3647.64C1244.63 3656.15 1253.96 3660.26 1265.48 3660.26C1272.06 3660.26 1278.65 3658.89 1284.96 3655.6C1290.99 3652.58 1295.66 3647.92 1298.68 3641.61L1349.43 3654.78C1345.59 3663.83 1341.2 3671.79 1335.99 3678.65C1330.23 3686.05 1323.92 3692.09 1316.78 3696.75C1309.1 3701.96 1300.87 3705.81 1292.64 3708C1283.86 3710.74 1274.53 3712.12 1265.21 3712.12C1252.59 3712.12 1240.24 3709.92 1228.72 3705.26C1217.74 3700.87 1207.87 3694.01 1199.64 3684.96C1191.41 3676.45 1185.1 3666.03 1180.43 3653.41C1175.77 3641.33 1173.57 3627.62 1173.57 3612.25C1173.57 3596.89 1175.77 3583.17 1180.43 3571.1C1185.1 3558.76 1191.41 3548.33 1199.64 3539.55C1207.87 3530.77 1217.74 3523.91 1228.72 3519.25C1240.24 3514.59 1252.31 3512.12 1265.21 3512.12C1283.59 3512.12 1299.77 3516.78 1313.76 3525.56C1327.48 3534.61 1338.46 3547.23 1346.14 3563.42ZM1352.8 3515.96H1507.81V3564.79H1455.68V3708H1404.1V3564.79H1352.8V3515.96ZM1512.77 3612.53V3613.08C1512.77 3597.71 1514.97 3584 1519.63 3571.93C1524.29 3559.58 1530.6 3549.15 1538.83 3540.38C1547.06 3531.6 1556.94 3524.74 1567.91 3520.07C1579.44 3515.41 1591.51 3512.94 1604.4 3512.94C1617.02 3512.94 1629.37 3515.41 1640.89 3520.07C1651.86 3524.74 1661.74 3531.32 1669.97 3540.1C1677.93 3548.88 1684.24 3559.31 1689.18 3571.65C1693.56 3583.72 1696.03 3597.44 1696.03 3612.8C1696.03 3628.17 1693.56 3641.88 1689.18 3653.95C1684.24 3666.57 1677.93 3677 1669.97 3685.5C1661.74 3694.28 1651.86 3701.14 1640.89 3705.53C1629.09 3710.19 1617.02 3712.39 1604.4 3712.39C1591.78 3712.39 1579.44 3710.19 1567.91 3705.53C1556.94 3701.14 1547.06 3694.28 1538.83 3685.23C1530.6 3676.72 1524.29 3666.3 1519.63 3653.68C1514.97 3641.61 1512.77 3627.89 1512.77 3612.53ZM1566.27 3611.98V3612.53C1566.27 3628.17 1569.56 3640.24 1576.15 3649.02C1582.73 3657.79 1592.06 3662.18 1604.13 3662.18C1616.47 3662.18 1626.08 3657.79 1632.66 3649.02C1639.24 3640.24 1642.54 3628.17 1642.54 3612.53C1642.54 3597.16 1639.24 3584.82 1632.66 3576.04C1626.08 3567.26 1616.47 3562.87 1604.13 3562.87C1592.06 3562.87 1582.73 3567.26 1576.15 3575.77C1569.56 3584.27 1566.27 3596.34 1566.27 3611.98ZM1872.58 3708H1814.69L1783.42 3647.1H1768.88V3707.45H1717.3V3515.41H1789.45C1800.43 3515.41 1810.85 3517.06 1820.18 3520.35C1829.51 3523.64 1837.46 3528.3 1844.05 3534.34C1850.63 3540.65 1855.84 3547.78 1859.41 3555.74C1862.98 3564.24 1864.9 3573.3 1864.9 3583.17C1864.9 3596.07 1861.88 3607.04 1856.39 3616.09C1850.63 3625.42 1842.95 3632.83 1833.07 3637.77L1872.58 3708ZM1769.43 3564.24V3601.83H1795.21C1797.96 3601.83 1800.7 3601.28 1802.9 3600.18C1804.82 3599.36 1806.46 3597.71 1808.11 3595.52C1809.21 3593.87 1810.3 3591.68 1810.85 3589.48C1811.4 3587.29 1811.67 3585.37 1811.67 3583.17C1811.67 3581.25 1811.4 3579.06 1810.85 3576.86C1810.3 3574.39 1809.21 3572.2 1808.11 3570.55C1806.46 3568.36 1804.82 3566.99 1802.9 3565.89C1800.7 3564.79 1797.96 3564.24 1795.21 3564.24H1769.43Z" fill="white"/>
</svg>
