<svg width="4096" height="4096" viewBox="0 0 4096 4096" fill="none" xmlns="http://www.w3.org/2000/svg">
<rect x="199" y="202" width="3690" height="3697" fill="#798F49"/>
<rect x="310" y="361" width="3468" height="2727" fill="white"/>
<path d="M380.781 3434H329.204V3241.96H380.781V3434ZM609.964 3291.07L561.13 3304.51H559.484C556.741 3296.83 552.9 3291.34 547.962 3288.05C542.749 3284.76 537.537 3283.11 532.324 3283.11C527.66 3283.11 524.094 3284.21 521.625 3286.13C519.156 3288.05 518.058 3290.24 518.058 3292.71C518.058 3295.46 518.881 3297.65 520.802 3299.3C522.722 3301.49 525.191 3303.41 528.483 3305.06C531.501 3306.98 535.616 3308.9 540.554 3310.82C542.201 3311.64 544.67 3312.74 548.236 3314.39C551.528 3316.03 554.272 3317.4 556.192 3317.95C564.971 3322.07 571.281 3325.36 575.671 3327.55C582.255 3331.4 588.016 3335.51 592.954 3340.17C597.892 3345.11 602.282 3350.87 605.574 3356.91C608.866 3363.49 610.512 3370.63 610.512 3378.31C610.512 3387.09 608.592 3395.04 605.3 3402.18C601.733 3409.58 596.795 3415.89 590.485 3421.38C584.45 3426.87 576.768 3430.98 567.715 3434C558.936 3436.74 549.059 3438.12 538.36 3438.12C528.209 3438.12 518.881 3436.74 510.377 3434C502.146 3431.81 494.739 3427.69 487.88 3422.2C481.296 3417.26 475.535 3410.96 470.597 3403.55C465.658 3396.69 461.818 3388.73 458.8 3379.68L507.907 3366.51C509.279 3370.08 510.925 3373.37 512.846 3376.11C514.492 3378.86 516.961 3381.6 519.979 3384.34C522.722 3387.09 525.74 3389.01 529.306 3390.1C533.147 3391.75 536.988 3392.3 540.829 3392.3C546.316 3392.3 550.705 3391.2 553.449 3389.01C556.192 3386.81 557.564 3384.07 557.564 3380.78C557.564 3378.03 556.466 3375.56 554.546 3373.37C552.351 3371.45 549.608 3369.53 546.041 3367.61C541.926 3365.69 537.537 3363.77 532.598 3361.85C528.758 3360.75 523.271 3358.28 515.863 3354.71C511.474 3352.79 505.438 3349.5 497.482 3345.11C491.721 3342.09 486.509 3337.98 481.57 3333.04C476.907 3328.65 473.34 3323.16 470.597 3317.13C467.853 3311.09 466.481 3303.96 466.481 3295.46C466.481 3288.87 468.128 3282.01 471.42 3274.88C474.712 3268.3 479.376 3261.99 485.411 3256.5C491.447 3251.01 498.58 3246.62 507.359 3243.33C515.589 3240.04 525.191 3238.39 535.891 3238.39C544.944 3238.39 553.449 3239.76 561.405 3242.51C569.635 3245.25 576.768 3249.09 582.804 3253.48C589.113 3258.42 594.6 3263.91 599.264 3270.22C603.928 3276.8 607.495 3283.93 609.964 3291.07ZM613.206 3241.96H768.211V3290.79H716.086V3434H664.509V3290.79H613.206V3241.96ZM898.278 3434L890.871 3409.58H826.674L819.267 3434H764.673L832.161 3242.23H885.659L952.873 3434H898.278ZM839.843 3363.22H876.605L867.277 3330.57L863.985 3319.87C863.437 3318.78 862.888 3316.85 862.339 3314.66C861.791 3312.47 861.242 3311.09 861.242 3310.27C860.967 3309.72 860.693 3308.62 860.144 3306.98C859.596 3305.33 859.321 3304.24 859.321 3303.69L858.773 3300.94H858.224L857.675 3303.41C857.401 3303.96 857.127 3305.06 856.578 3306.7C856.029 3308.35 855.755 3309.45 855.755 3310C855.481 3310.82 854.932 3312.19 854.383 3314.39C853.835 3316.58 853.286 3318.5 853.012 3319.6L849.719 3330.3L839.843 3363.22ZM1078.42 3241.96H1129.45L1128.08 3434.55H1081.17L1054.01 3393.12L1041.39 3374.19C1036.18 3366.51 1031.79 3360.2 1028.49 3354.71C1025.75 3350.87 1022.46 3345.66 1018.62 3339.63L1014.5 3333.59H1014.23L1014.5 3338.8C1014.5 3340.17 1014.78 3342.64 1014.78 3346.21C1014.78 3349.78 1015.05 3352.25 1015.05 3353.89C1015.05 3360.48 1015.32 3368.16 1015.87 3377.49C1015.87 3383.52 1016.15 3393.67 1016.15 3407.94V3434H964.845V3242.23H1011.76L1041.39 3287.23C1042.21 3288.87 1043.86 3291.34 1046.33 3294.63C1048.52 3297.93 1050.44 3300.67 1051.81 3302.31C1057.3 3310.54 1061.14 3316.31 1063.88 3320.15C1066.63 3324.54 1070.19 3329.47 1074.31 3334.96L1078.7 3341.27H1078.97V3335.51V3319.87C1078.97 3310.54 1078.7 3302.86 1078.7 3297.1C1078.42 3291.62 1078.42 3282.56 1078.42 3269.94V3241.96ZM1163 3241.68H1236.8H1235.7C1249.69 3241.68 1262.59 3244.15 1274.66 3248.54C1286.73 3253.48 1297.15 3260.07 1305.93 3268.3C1314.71 3277.07 1321.57 3287.23 1326.51 3299.02C1331.45 3311.09 1333.92 3324.54 1333.92 3338.8C1333.92 3353.34 1331.45 3366.51 1326.51 3378.31C1321.57 3390.1 1314.71 3399.98 1306.48 3408.21C1297.7 3416.44 1287.55 3422.75 1276.03 3427.14C1264.23 3431.53 1251.34 3433.73 1237.35 3433.73H1163V3241.68ZM1214.03 3385.44H1238.99L1239.54 3385.17C1245.3 3385.17 1250.79 3384.34 1256 3382.15C1260.94 3380.23 1265.06 3377.21 1268.9 3373.37C1272.46 3369.53 1275.48 3364.59 1277.68 3358.83C1279.87 3353.07 1280.97 3346.48 1280.97 3339.08C1280.97 3331.4 1279.87 3324.26 1277.68 3318.23C1275.48 3312.47 1272.46 3307.53 1268.62 3303.14C1264.78 3299.3 1260.12 3296 1255.18 3293.81C1249.97 3291.62 1244.48 3290.52 1238.72 3290.52H1214.03V3385.44ZM1546.77 3290.79H1467.49V3321.24H1528.12V3368.16H1467.49V3434H1415.91V3241.96H1546.77V3290.79ZM1558.6 3338.53V3339.08C1558.6 3323.71 1560.79 3310 1565.45 3297.93C1570.12 3285.58 1576.43 3275.15 1584.66 3266.38C1592.89 3257.6 1602.77 3250.74 1613.74 3246.07C1625.26 3241.41 1637.33 3238.94 1650.23 3238.94C1662.85 3238.94 1675.19 3241.41 1686.71 3246.07C1697.69 3250.74 1707.56 3257.32 1715.8 3266.1C1723.75 3274.88 1730.06 3285.31 1735 3297.65C1739.39 3309.72 1741.86 3323.44 1741.86 3338.8C1741.86 3354.17 1739.39 3367.88 1735 3379.95C1730.06 3392.57 1723.75 3403 1715.8 3411.5C1707.56 3420.28 1697.69 3427.14 1686.71 3431.53C1674.92 3436.19 1662.85 3438.39 1650.23 3438.39C1637.61 3438.39 1625.26 3436.19 1613.74 3431.53C1602.77 3427.14 1592.89 3420.28 1584.66 3411.23C1576.43 3402.72 1570.12 3392.3 1565.45 3379.68C1560.79 3367.61 1558.6 3353.89 1558.6 3338.53ZM1612.09 3337.98V3338.53C1612.09 3354.17 1615.39 3366.24 1621.97 3375.02C1628.55 3383.79 1637.88 3388.18 1649.95 3388.18C1662.3 3388.18 1671.9 3383.79 1678.48 3375.02C1685.07 3366.24 1688.36 3354.17 1688.36 3338.53C1688.36 3323.16 1685.07 3310.82 1678.48 3302.04C1671.9 3293.26 1662.3 3288.87 1649.95 3288.87C1637.88 3288.87 1628.55 3293.26 1621.97 3301.77C1615.39 3310.27 1612.09 3322.34 1612.09 3337.98ZM1918.4 3434H1860.52L1829.24 3373.1H1814.7V3433.45H1763.12V3241.41H1835.28C1846.25 3241.41 1856.68 3243.06 1866 3246.35C1875.33 3249.64 1883.29 3254.3 1889.87 3260.34C1896.46 3266.65 1901.67 3273.78 1905.23 3281.74C1908.8 3290.24 1910.72 3299.3 1910.72 3309.17C1910.72 3322.07 1907.7 3333.04 1902.22 3342.09C1896.46 3351.42 1888.77 3358.83 1878.9 3363.77L1918.4 3434ZM1815.25 3290.24V3327.83H1841.04C1843.78 3327.83 1846.52 3327.28 1848.72 3326.18C1850.64 3325.36 1852.29 3323.71 1853.93 3321.52C1855.03 3319.87 1856.13 3317.68 1856.68 3315.48C1857.22 3313.29 1857.5 3311.37 1857.5 3309.17C1857.5 3307.25 1857.22 3305.06 1856.68 3302.86C1856.13 3300.39 1855.03 3298.2 1853.93 3296.55C1852.29 3294.36 1850.64 3292.99 1848.72 3291.89C1846.52 3290.79 1843.78 3290.24 1841.04 3290.24H1815.25ZM465.279 3565.07L416.446 3578.51H414.8C412.056 3570.83 408.215 3565.34 403.277 3562.05C398.065 3558.76 392.852 3557.11 387.64 3557.11C382.976 3557.11 379.409 3558.21 376.94 3560.13C374.471 3562.05 373.374 3564.24 373.374 3566.71C373.374 3569.46 374.197 3571.65 376.117 3573.3C378.037 3575.49 380.507 3577.41 383.799 3579.06C386.816 3580.98 390.932 3582.9 395.87 3584.82C397.516 3585.64 399.985 3586.74 403.552 3588.39C406.844 3590.03 409.587 3591.4 411.507 3591.95C420.287 3596.07 426.596 3599.36 430.986 3601.55C437.57 3605.4 443.331 3609.51 448.27 3614.17C453.208 3619.11 457.597 3624.87 460.89 3630.91C464.182 3637.49 465.828 3644.63 465.828 3652.31C465.828 3661.09 463.907 3669.04 460.615 3676.18C457.049 3683.58 452.11 3689.89 445.801 3695.38C439.765 3700.87 432.083 3704.98 423.03 3708C414.251 3710.74 404.375 3712.12 393.675 3712.12C383.524 3712.12 374.197 3710.74 365.692 3708C357.462 3705.81 350.054 3701.69 343.196 3696.2C336.611 3691.26 330.85 3684.96 325.912 3677.55C320.974 3670.69 317.133 3662.73 314.115 3653.68L363.223 3640.51C364.595 3644.08 366.241 3647.37 368.161 3650.11C369.807 3652.86 372.276 3655.6 375.294 3658.34C378.037 3661.09 381.055 3663.01 384.622 3664.1C388.463 3665.75 392.303 3666.3 396.144 3666.3C401.631 3666.3 406.021 3665.2 408.764 3663.01C411.507 3660.81 412.879 3658.07 412.879 3654.78C412.879 3652.03 411.782 3649.56 409.861 3647.37C407.667 3645.45 404.923 3643.53 401.357 3641.61C397.242 3639.69 392.852 3637.77 387.914 3635.85C384.073 3634.75 378.586 3632.28 371.179 3628.71C366.789 3626.79 360.754 3623.5 352.798 3619.11C347.037 3616.09 341.824 3611.98 336.886 3607.04C332.222 3602.65 328.655 3597.16 325.912 3591.13C323.169 3585.09 321.797 3577.96 321.797 3569.46C321.797 3562.87 323.443 3556.01 326.735 3548.88C330.027 3542.3 334.691 3535.99 340.727 3530.5C346.762 3525.01 353.895 3520.62 362.674 3517.33C370.905 3514.04 380.507 3512.39 391.206 3512.39C400.259 3512.39 408.764 3513.76 416.72 3516.51C424.95 3519.25 432.083 3523.09 438.119 3527.48C444.429 3532.42 449.916 3537.91 454.58 3544.22C459.243 3550.8 462.81 3557.93 465.279 3565.07ZM468.522 3515.96H623.527V3564.79H571.401V3708H519.824V3564.79H468.522V3515.96ZM793.922 3708H736.036L704.76 3647.1H690.22V3707.45H638.643V3515.41H710.796C721.77 3515.41 732.195 3517.06 741.523 3520.35C750.85 3523.64 758.806 3528.3 765.391 3534.34C771.975 3540.65 777.187 3547.78 780.754 3555.74C784.32 3564.24 786.241 3573.3 786.241 3583.17C786.241 3596.07 783.223 3607.04 777.736 3616.09C771.975 3625.42 764.293 3632.83 754.417 3637.77L793.922 3708ZM690.769 3564.24V3601.83H716.557C719.301 3601.83 722.044 3601.28 724.239 3600.18C726.159 3599.36 727.805 3597.71 729.451 3595.52C730.549 3593.87 731.646 3591.68 732.195 3589.48C732.744 3587.29 733.018 3585.37 733.018 3583.17C733.018 3581.25 732.744 3579.06 732.195 3576.86C731.646 3574.39 730.549 3572.2 729.451 3570.55C727.805 3568.36 726.159 3566.99 724.239 3565.89C722.044 3564.79 719.301 3564.24 716.557 3564.24H690.769ZM803.044 3612.53V3613.08C803.044 3597.71 805.239 3584 809.903 3571.93C814.567 3559.58 820.877 3549.15 829.107 3540.38C837.337 3531.6 847.214 3524.74 858.188 3520.07C869.71 3515.41 881.781 3512.94 894.675 3512.94C907.295 3512.94 919.641 3515.41 931.163 3520.07C942.137 3524.74 952.013 3531.32 960.244 3540.1C968.2 3548.88 974.51 3559.31 979.448 3571.65C983.837 3583.72 986.307 3597.44 986.307 3612.8C986.307 3628.17 983.837 3641.88 979.448 3653.95C974.51 3666.57 968.2 3677 960.244 3685.5C952.013 3694.28 942.137 3701.14 931.163 3705.53C919.366 3710.19 907.295 3712.39 894.675 3712.39C882.056 3712.39 869.71 3710.19 858.188 3705.53C847.214 3701.14 837.337 3694.28 829.107 3685.23C820.877 3676.72 814.567 3666.3 809.903 3653.68C805.239 3641.61 803.044 3627.89 803.044 3612.53ZM856.542 3611.98V3612.53C856.542 3628.17 859.834 3640.24 866.418 3649.02C873.002 3657.79 882.33 3662.18 894.401 3662.18C906.747 3662.18 916.349 3657.79 922.933 3649.02C929.517 3640.24 932.809 3628.17 932.809 3612.53C932.809 3597.16 929.517 3584.82 922.933 3576.04C916.349 3567.26 906.747 3562.87 894.401 3562.87C882.33 3562.87 873.002 3567.26 866.418 3575.77C859.834 3584.27 856.542 3596.34 856.542 3611.98ZM1121.15 3515.96H1172.18L1170.81 3708.55H1123.89L1096.73 3667.12L1084.11 3648.19C1078.9 3640.51 1074.51 3634.2 1071.22 3628.71C1068.48 3624.87 1065.18 3619.66 1061.34 3613.63L1057.23 3607.59H1056.95L1057.23 3612.8C1057.23 3614.17 1057.5 3616.64 1057.5 3620.21C1057.5 3623.78 1057.78 3626.25 1057.78 3627.89C1057.78 3634.48 1058.05 3642.16 1058.6 3651.49C1058.6 3657.52 1058.87 3667.67 1058.87 3681.94V3708H1007.57V3516.23H1054.49L1084.11 3561.23C1084.94 3562.87 1086.58 3565.34 1089.05 3568.63C1091.25 3571.93 1093.17 3574.67 1094.54 3576.31C1100.03 3584.54 1103.87 3590.31 1106.61 3594.15C1109.35 3598.54 1112.92 3603.47 1117.04 3608.96L1121.43 3615.27H1121.7V3609.51V3593.87C1121.7 3584.54 1121.43 3576.86 1121.43 3571.1C1121.15 3565.62 1121.15 3556.56 1121.15 3543.94V3515.96ZM1284.74 3596.89H1370.88L1369.24 3708H1325.62C1325.62 3702.51 1325.62 3698.95 1325.89 3697.85C1325.89 3696.75 1326.16 3695.93 1326.16 3695.11H1325.62C1320.68 3700.59 1314.37 3704.43 1306.69 3707.18C1298.45 3709.92 1290.77 3711.02 1283.64 3711.02C1271.02 3711.02 1259.22 3708.82 1247.7 3704.16C1236.45 3699.5 1226.85 3692.91 1219.17 3684.41C1211.21 3676.18 1204.9 3665.75 1200.24 3653.13C1195.58 3641.06 1193.38 3627.34 1193.38 3611.98C1193.38 3596.62 1195.58 3582.9 1200.24 3570.83C1204.9 3558.48 1211.21 3548.06 1219.44 3539.28C1227.67 3530.5 1237.55 3523.64 1248.52 3518.98C1260.05 3514.31 1272.12 3511.84 1285.01 3511.84C1302.84 3511.57 1319.03 3515.96 1333.3 3525.01C1347.56 3534.34 1358.54 3546.96 1366.22 3563.15L1314.92 3576.59C1311.07 3571.65 1306.69 3568.08 1301.47 3565.89C1295.99 3563.69 1290.5 3562.6 1285.56 3562.6C1273.22 3562.6 1263.89 3566.99 1257.3 3575.77C1250.72 3584.54 1247.43 3596.62 1247.43 3611.98C1247.43 3627.89 1251.27 3640.24 1258.95 3649.02C1266.63 3657.79 1276.78 3662.18 1289.4 3662.18C1300.38 3662.18 1308.61 3659.99 1314.37 3655.05C1319.58 3650.66 1323.42 3644.9 1326.16 3638.04H1284.74V3596.89ZM1620.76 3563.42L1569.46 3576.86L1568.36 3576.31C1564.52 3571.38 1560.13 3567.81 1554.92 3565.62C1549.43 3563.42 1543.94 3562.32 1539.01 3562.32C1526.66 3562.32 1517.33 3566.71 1511.02 3575.49C1504.44 3584.54 1501.42 3596.62 1501.42 3611.43C1501.42 3627.34 1504.99 3639.41 1512.12 3647.64C1519.25 3656.15 1528.58 3660.26 1540.1 3660.26C1546.69 3660.26 1553.27 3658.89 1559.58 3655.6C1565.62 3652.58 1570.28 3647.92 1573.3 3641.61L1624.05 3654.78C1620.21 3663.83 1615.82 3671.79 1610.61 3678.65C1604.85 3686.05 1598.54 3692.09 1591.41 3696.75C1583.72 3701.96 1575.49 3705.81 1567.26 3708C1558.48 3710.74 1549.16 3712.12 1539.83 3712.12C1527.21 3712.12 1514.86 3709.92 1503.34 3705.26C1492.37 3700.87 1482.49 3694.01 1474.26 3684.96C1466.03 3676.45 1459.72 3666.03 1455.06 3653.41C1450.39 3641.33 1448.2 3627.62 1448.2 3612.25C1448.2 3596.89 1450.39 3583.17 1455.06 3571.1C1459.72 3558.76 1466.03 3548.33 1474.26 3539.55C1482.49 3530.77 1492.37 3523.91 1503.34 3519.25C1514.86 3514.59 1526.93 3512.12 1539.83 3512.12C1558.21 3512.12 1574.4 3516.78 1588.39 3525.56C1602.11 3534.61 1613.08 3547.23 1620.76 3563.42ZM1634.01 3612.53V3613.08C1634.01 3597.71 1636.2 3584 1640.87 3571.93C1645.53 3559.58 1651.84 3549.15 1660.07 3540.38C1668.3 3531.6 1678.18 3524.74 1689.15 3520.07C1700.67 3515.41 1712.75 3512.94 1725.64 3512.94C1738.26 3512.94 1750.6 3515.41 1762.13 3520.07C1773.1 3524.74 1782.98 3531.32 1791.21 3540.1C1799.16 3548.88 1805.47 3559.31 1810.41 3571.65C1814.8 3583.72 1817.27 3597.44 1817.27 3612.8C1817.27 3628.17 1814.8 3641.88 1810.41 3653.95C1805.47 3666.57 1799.16 3677 1791.21 3685.5C1782.98 3694.28 1773.1 3701.14 1762.13 3705.53C1750.33 3710.19 1738.26 3712.39 1725.64 3712.39C1713.02 3712.39 1700.67 3710.19 1689.15 3705.53C1678.18 3701.14 1668.3 3694.28 1660.07 3685.23C1651.84 3676.72 1645.53 3666.3 1640.87 3653.68C1636.2 3641.61 1634.01 3627.89 1634.01 3612.53ZM1687.51 3611.98V3612.53C1687.51 3628.17 1690.8 3640.24 1697.38 3649.02C1703.97 3657.79 1713.29 3662.18 1725.37 3662.18C1737.71 3662.18 1747.31 3657.79 1753.9 3649.02C1760.48 3640.24 1763.77 3628.17 1763.77 3612.53C1763.77 3597.16 1760.48 3584.82 1753.9 3576.04C1747.31 3567.26 1737.71 3562.87 1725.37 3562.87C1713.29 3562.87 1703.97 3567.26 1697.38 3575.77C1690.8 3584.27 1687.51 3596.34 1687.51 3611.98ZM1953.49 3708L1946.08 3683.58H1881.88L1874.48 3708H1819.88L1887.37 3516.23H1940.87L2008.08 3708H1953.49ZM1895.05 3637.22H1931.81L1922.49 3604.57L1919.19 3593.87C1918.65 3592.78 1918.1 3590.85 1917.55 3588.66C1917 3586.47 1916.45 3585.09 1916.45 3584.27C1916.18 3583.72 1915.9 3582.62 1915.35 3580.98C1914.8 3579.33 1914.53 3578.24 1914.53 3577.69L1913.98 3574.94H1913.43L1912.88 3577.41C1912.61 3577.96 1912.34 3579.06 1911.79 3580.7C1911.24 3582.35 1910.96 3583.45 1910.96 3584C1910.69 3584.82 1910.14 3586.19 1909.59 3588.39C1909.04 3590.58 1908.49 3592.5 1908.22 3593.6L1904.93 3604.3L1895.05 3637.22ZM2156.68 3565.07L2107.84 3578.51H2106.2C2103.45 3570.83 2099.61 3565.34 2094.68 3562.05C2089.46 3558.76 2084.25 3557.11 2079.04 3557.11C2074.37 3557.11 2070.81 3558.21 2068.34 3560.13C2065.87 3562.05 2064.77 3564.24 2064.77 3566.71C2064.77 3569.46 2065.6 3571.65 2067.52 3573.3C2069.44 3575.49 2071.91 3577.41 2075.2 3579.06C2078.22 3580.98 2082.33 3582.9 2087.27 3584.82C2088.91 3585.64 2091.38 3586.74 2094.95 3588.39C2098.24 3590.03 2100.99 3591.4 2102.91 3591.95C2111.69 3596.07 2118 3599.36 2122.38 3601.55C2128.97 3605.4 2134.73 3609.51 2139.67 3614.17C2144.61 3619.11 2149 3624.87 2152.29 3630.91C2155.58 3637.49 2157.23 3644.63 2157.23 3652.31C2157.23 3661.09 2155.31 3669.04 2152.01 3676.18C2148.45 3683.58 2143.51 3689.89 2137.2 3695.38C2131.16 3700.87 2123.48 3704.98 2114.43 3708C2105.65 3710.74 2095.77 3712.12 2085.07 3712.12C2074.92 3712.12 2065.6 3710.74 2057.09 3708C2048.86 3705.81 2041.45 3701.69 2034.59 3696.2C2028.01 3691.26 2022.25 3684.96 2017.31 3677.55C2012.37 3670.69 2008.53 3662.73 2005.51 3653.68L2054.62 3640.51C2055.99 3644.08 2057.64 3647.37 2059.56 3650.11C2061.21 3652.86 2063.67 3655.6 2066.69 3658.34C2069.44 3661.09 2072.45 3663.01 2076.02 3664.1C2079.86 3665.75 2083.7 3666.3 2087.54 3666.3C2093.03 3666.3 2097.42 3665.2 2100.16 3663.01C2102.91 3660.81 2104.28 3658.07 2104.28 3654.78C2104.28 3652.03 2103.18 3649.56 2101.26 3647.37C2099.07 3645.45 2096.32 3643.53 2092.76 3641.61C2088.64 3639.69 2084.25 3637.77 2079.31 3635.85C2075.47 3634.75 2069.98 3632.28 2062.58 3628.71C2058.19 3626.79 2052.15 3623.5 2044.2 3619.11C2038.44 3616.09 2033.22 3611.98 2028.28 3607.04C2023.62 3602.65 2020.05 3597.16 2017.31 3591.13C2014.57 3585.09 2013.2 3577.96 2013.2 3569.46C2013.2 3562.87 2014.84 3556.01 2018.13 3548.88C2021.43 3542.3 2026.09 3535.99 2032.13 3530.5C2038.16 3525.01 2045.29 3520.62 2054.07 3517.33C2062.3 3514.04 2071.91 3512.39 2082.6 3512.39C2091.66 3512.39 2100.16 3513.76 2108.12 3516.51C2116.35 3519.25 2123.48 3523.09 2129.52 3527.48C2135.83 3532.42 2141.31 3537.91 2145.98 3544.22C2150.64 3550.8 2154.21 3557.93 2156.68 3565.07ZM2159.92 3515.96H2314.93V3564.79H2262.8V3708H2211.22V3564.79H2159.92V3515.96ZM2466.67 3565.07L2417.83 3578.51H2416.19C2413.44 3570.83 2409.6 3565.34 2404.66 3562.05C2399.45 3558.76 2394.24 3557.11 2389.03 3557.11C2384.36 3557.11 2380.8 3558.21 2378.33 3560.13C2375.86 3562.05 2374.76 3564.24 2374.76 3566.71C2374.76 3569.46 2375.58 3571.65 2377.5 3573.3C2379.42 3575.49 2381.89 3577.41 2385.19 3579.06C2388.2 3580.98 2392.32 3582.9 2397.26 3584.82C2398.9 3585.64 2401.37 3586.74 2404.94 3588.39C2408.23 3590.03 2410.97 3591.4 2412.89 3591.95C2421.67 3596.07 2427.98 3599.36 2432.37 3601.55C2438.96 3605.4 2444.72 3609.51 2449.66 3614.17C2454.59 3619.11 2458.98 3624.87 2462.28 3630.91C2465.57 3637.49 2467.21 3644.63 2467.21 3652.31C2467.21 3661.09 2465.29 3669.04 2462 3676.18C2458.44 3683.58 2453.5 3689.89 2447.19 3695.38C2441.15 3700.87 2433.47 3704.98 2424.42 3708C2415.64 3710.74 2405.76 3712.12 2395.06 3712.12C2384.91 3712.12 2375.58 3710.74 2367.08 3708C2358.85 3705.81 2351.44 3701.69 2344.58 3696.2C2338 3691.26 2332.24 3684.96 2327.3 3677.55C2322.36 3670.69 2318.52 3662.73 2315.5 3653.68L2364.61 3640.51C2365.98 3644.08 2367.63 3647.37 2369.55 3650.11C2371.19 3652.86 2373.66 3655.6 2376.68 3658.34C2379.42 3661.09 2382.44 3663.01 2386.01 3664.1C2389.85 3665.75 2393.69 3666.3 2397.53 3666.3C2403.02 3666.3 2407.41 3665.2 2410.15 3663.01C2412.89 3660.81 2414.27 3658.07 2414.27 3654.78C2414.27 3652.03 2413.17 3649.56 2411.25 3647.37C2409.05 3645.45 2406.31 3643.53 2402.74 3641.61C2398.63 3639.69 2394.24 3637.77 2389.3 3635.85C2385.46 3634.75 2379.97 3632.28 2372.57 3628.71C2368.18 3626.79 2362.14 3623.5 2354.18 3619.11C2348.42 3616.09 2343.21 3611.98 2338.27 3607.04C2333.61 3602.65 2330.04 3597.16 2327.3 3591.13C2324.56 3585.09 2323.18 3577.96 2323.18 3569.46C2323.18 3562.87 2324.83 3556.01 2328.12 3548.88C2331.41 3542.3 2336.08 3535.99 2342.11 3530.5C2348.15 3525.01 2355.28 3520.62 2364.06 3517.33C2372.29 3514.04 2381.89 3512.39 2392.59 3512.39C2401.65 3512.39 2410.15 3513.76 2418.11 3516.51C2426.34 3519.25 2433.47 3523.09 2439.51 3527.48C2445.82 3532.42 2451.3 3537.91 2455.97 3544.22C2460.63 3550.8 2464.2 3557.93 2466.67 3565.07Z" fill="white"/>
</svg>
