<svg width="3690" height="3697" viewBox="0 0 3690 3697" fill="none"
    xmlns="http://www.w3.org/2000/svg">
    <rect width="3690" height="3697" fill="#D68B8B" />
    <rect x="111" y="159" width="3468" height="2727" fill="white" />
    <path
        d="M181.781 3232H130.204V3039.96H181.781V3232ZM389.29 3232L381.883 3207.58H317.686L310.279 3232H255.685L323.173 3040.23H376.671L443.885 3232H389.29ZM330.855 3161.22H367.617L358.289 3128.57L354.997 3117.87C354.449 3116.78 353.9 3114.85 353.351 3112.66C352.803 3110.47 352.254 3109.09 352.254 3108.27C351.98 3107.72 351.705 3106.62 351.157 3104.98C350.608 3103.33 350.334 3102.24 350.334 3101.69L349.785 3098.94H349.236L348.687 3101.41C348.413 3101.96 348.139 3103.06 347.59 3104.7C347.041 3106.35 346.767 3107.45 346.767 3108C346.493 3108.82 345.944 3110.19 345.395 3112.39C344.847 3114.58 344.298 3116.5 344.024 3117.6L340.731 3128.3L330.855 3161.22ZM592.481 3039.96H640.766L639.12 3232.55H589.189V3190.85C589.189 3169.45 589.738 3153.26 590.835 3142.84C591.384 3136.8 591.932 3132.69 592.207 3130.49C592.207 3128.3 592.207 3127.2 592.207 3127.2H591.658L589.463 3131.32C588.915 3132.41 587.817 3133.78 586.72 3135.98C585.623 3138.17 584.8 3139.55 584.251 3140.64C582.879 3143.11 581.233 3146.4 579.038 3150.79L576.02 3156.83L560.383 3185.36H534.594L518.957 3156.83C518.682 3156.28 517.585 3154.36 515.939 3150.52C513.744 3146.13 511.824 3142.84 510.726 3140.37C510.178 3139.82 509.355 3138.17 508.257 3135.98C506.886 3133.78 506.063 3131.86 505.514 3130.77L503.319 3126.65H502.77C502.496 3126.65 502.496 3127.75 502.77 3129.94C502.77 3132.14 503.319 3136.25 504.142 3142.29C505.24 3152.71 505.788 3168.9 505.788 3190.3V3232H455.858V3040.23H504.142L534.046 3091.54C540.081 3102.51 543.922 3109.64 545.294 3113.21C546.94 3117.6 547.763 3119.79 548.037 3119.79H548.586C548.586 3119.79 549.683 3117.6 551.329 3113.21C552.976 3109.09 556.542 3101.69 562.578 3091.26L592.481 3039.96ZM848.11 3232L840.703 3207.58H776.506L769.099 3232H714.504L781.993 3040.23H835.49L902.705 3232H848.11ZM789.675 3161.22H826.437L817.109 3128.57L813.817 3117.87C813.269 3116.78 812.72 3114.85 812.171 3112.66C811.622 3110.47 811.074 3109.09 811.074 3108.27C810.799 3107.72 810.525 3106.62 809.976 3104.98C809.428 3103.33 809.153 3102.24 809.153 3101.69L808.605 3098.94H808.056L807.507 3101.41C807.233 3101.96 806.959 3103.06 806.41 3104.7C805.861 3106.35 805.587 3107.45 805.587 3108C805.313 3108.82 804.764 3110.19 804.215 3112.39C803.666 3114.58 803.118 3116.5 802.843 3117.6L799.551 3128.3L789.675 3161.22ZM1136.97 3087.42L1085.66 3100.86L1084.57 3100.31C1080.73 3095.38 1076.34 3091.81 1071.12 3089.62C1065.64 3087.42 1060.15 3086.32 1055.21 3086.32C1042.87 3086.32 1033.54 3090.71 1027.23 3099.49C1020.65 3108.54 1017.63 3120.62 1017.63 3135.43C1017.63 3151.34 1021.19 3163.41 1028.33 3171.64C1035.46 3180.15 1044.79 3184.26 1056.31 3184.26C1062.89 3184.26 1069.48 3182.89 1075.79 3179.6C1081.82 3176.58 1086.49 3171.92 1089.51 3165.61L1140.26 3178.78C1136.42 3187.83 1132.03 3195.79 1126.82 3202.65C1121.06 3210.05 1114.75 3216.09 1107.61 3220.75C1099.93 3225.96 1091.7 3229.81 1083.47 3232C1074.69 3234.74 1065.36 3236.12 1056.04 3236.12C1043.42 3236.12 1031.07 3233.92 1019.55 3229.26C1008.57 3224.87 998.698 3218.01 990.467 3208.96C982.237 3200.45 975.927 3190.03 971.263 3177.41C966.599 3165.33 964.405 3151.62 964.405 3136.25C964.405 3120.89 966.599 3107.17 971.263 3095.1C975.927 3082.76 982.237 3072.33 990.467 3063.55C998.698 3054.77 1008.57 3047.91 1019.55 3043.25C1031.07 3038.59 1043.14 3036.12 1056.04 3036.12C1074.42 3036.12 1090.6 3040.78 1104.59 3049.56C1118.31 3058.61 1129.29 3071.23 1136.97 3087.42ZM1150.22 3136.53V3137.08C1150.22 3121.71 1152.41 3108 1157.07 3095.93C1161.74 3083.58 1168.05 3073.15 1176.28 3064.38C1184.51 3055.6 1194.38 3048.74 1205.36 3044.07C1216.88 3039.41 1228.95 3036.94 1241.85 3036.94C1254.47 3036.94 1266.81 3039.41 1278.33 3044.07C1289.31 3048.74 1299.18 3055.32 1307.41 3064.1C1315.37 3072.88 1321.68 3083.31 1326.62 3095.65C1331.01 3107.72 1333.48 3121.44 1333.48 3136.8C1333.48 3152.17 1331.01 3165.88 1326.62 3177.95C1321.68 3190.57 1315.37 3201 1307.41 3209.5C1299.18 3218.28 1289.31 3225.14 1278.33 3229.53C1266.54 3234.19 1254.47 3236.39 1241.85 3236.39C1229.23 3236.39 1216.88 3234.19 1205.36 3229.53C1194.38 3225.14 1184.51 3218.28 1176.28 3209.23C1168.05 3200.72 1161.74 3190.3 1157.07 3177.68C1152.41 3165.61 1150.22 3151.89 1150.22 3136.53ZM1203.71 3135.98V3136.53C1203.71 3152.17 1207 3164.24 1213.59 3173.02C1220.17 3181.79 1229.5 3186.18 1241.57 3186.18C1253.92 3186.18 1263.52 3181.79 1270.1 3173.02C1276.69 3164.24 1279.98 3152.17 1279.98 3136.53C1279.98 3121.16 1276.69 3108.82 1270.1 3100.04C1263.52 3091.26 1253.92 3086.87 1241.57 3086.87C1229.5 3086.87 1220.17 3091.26 1213.59 3099.77C1207 3108.27 1203.71 3120.34 1203.71 3135.98ZM1469.69 3232L1462.29 3207.58H1398.09L1390.68 3232H1336.09L1403.58 3040.23H1457.07L1524.29 3232H1469.69ZM1411.26 3161.22H1448.02L1438.69 3128.57L1435.4 3117.87C1434.85 3116.78 1434.3 3114.85 1433.75 3112.66C1433.21 3110.47 1432.66 3109.09 1432.66 3108.27C1432.38 3107.72 1432.11 3106.62 1431.56 3104.98C1431.01 3103.33 1430.74 3102.24 1430.74 3101.69L1430.19 3098.94H1429.64L1429.09 3101.41C1428.82 3101.96 1428.54 3103.06 1427.99 3104.7C1427.44 3106.35 1427.17 3107.45 1427.17 3108C1426.9 3108.82 1426.35 3110.19 1425.8 3112.39C1425.25 3114.58 1424.7 3116.5 1424.43 3117.6L1421.13 3128.3L1411.26 3161.22ZM1672.88 3089.07L1624.05 3102.51H1622.4C1619.66 3094.83 1615.82 3089.34 1610.88 3086.05C1605.67 3082.76 1600.46 3081.11 1595.24 3081.11C1590.58 3081.11 1587.01 3082.21 1584.55 3084.13C1582.08 3086.05 1580.98 3088.24 1580.98 3090.71C1580.98 3093.46 1581.8 3095.65 1583.72 3097.3C1585.64 3099.49 1588.11 3101.41 1591.4 3103.06C1594.42 3104.98 1598.54 3106.9 1603.48 3108.82C1605.12 3109.64 1607.59 3110.74 1611.16 3112.39C1614.45 3114.03 1617.19 3115.4 1619.11 3115.95C1627.89 3120.07 1634.2 3123.36 1638.59 3125.55C1645.18 3129.4 1650.94 3133.51 1655.88 3138.17C1660.81 3143.11 1665.2 3148.87 1668.49 3154.91C1671.79 3161.49 1673.43 3168.63 1673.43 3176.31C1673.43 3185.09 1671.51 3193.04 1668.22 3200.18C1664.65 3207.58 1659.72 3213.89 1653.41 3219.38C1647.37 3224.87 1639.69 3228.98 1630.64 3232C1621.86 3234.74 1611.98 3236.12 1601.28 3236.12C1591.13 3236.12 1581.8 3234.74 1573.3 3232C1565.07 3229.81 1557.66 3225.69 1550.8 3220.2C1544.22 3215.26 1538.46 3208.96 1533.52 3201.55C1528.58 3194.69 1524.74 3186.73 1521.72 3177.68L1570.83 3164.51C1572.2 3168.08 1573.85 3171.37 1575.77 3174.11C1577.41 3176.86 1579.88 3179.6 1582.9 3182.34C1585.64 3185.09 1588.66 3187.01 1592.23 3188.1C1596.07 3189.75 1599.91 3190.3 1603.75 3190.3C1609.24 3190.3 1613.63 3189.2 1616.37 3187.01C1619.11 3184.81 1620.48 3182.07 1620.48 3178.78C1620.48 3176.03 1619.39 3173.56 1617.47 3171.37C1615.27 3169.45 1612.53 3167.53 1608.96 3165.61C1604.85 3163.69 1600.46 3161.77 1595.52 3159.85C1591.68 3158.75 1586.19 3156.28 1578.78 3152.71C1574.39 3150.79 1568.36 3147.5 1560.4 3143.11C1554.64 3140.09 1549.43 3135.98 1544.49 3131.04C1539.83 3126.65 1536.26 3121.16 1533.52 3115.13C1530.77 3109.09 1529.4 3101.96 1529.4 3093.46C1529.4 3086.87 1531.05 3080.01 1534.34 3072.88C1537.63 3066.3 1542.3 3059.99 1548.33 3054.5C1554.37 3049.01 1561.5 3044.62 1570.28 3041.33C1578.51 3038.04 1588.11 3036.39 1598.81 3036.39C1607.86 3036.39 1616.37 3037.76 1624.33 3040.51C1632.56 3043.25 1639.69 3047.09 1645.72 3051.48C1652.03 3056.42 1657.52 3061.91 1662.18 3068.22C1666.85 3074.8 1670.42 3081.93 1672.88 3089.07ZM1676.13 3039.96H1831.13V3088.79H1779.01V3232H1727.43V3088.79H1676.13V3039.96ZM1961.2 3232L1953.79 3207.58H1889.6L1882.19 3232H1827.59L1895.08 3040.23H1948.58L2015.79 3232H1961.2ZM1902.76 3161.22H1939.53L1930.2 3128.57L1926.91 3117.87C1926.36 3116.78 1925.81 3114.85 1925.26 3112.66C1924.71 3110.47 1924.16 3109.09 1924.16 3108.27C1923.89 3107.72 1923.61 3106.62 1923.07 3104.98C1922.52 3103.33 1922.24 3102.24 1922.24 3101.69L1921.69 3098.94H1921.14L1920.6 3101.41C1920.32 3101.96 1920.05 3103.06 1919.5 3104.7C1918.95 3106.35 1918.68 3107.45 1918.68 3108C1918.4 3108.82 1917.85 3110.19 1917.3 3112.39C1916.76 3114.58 1916.21 3116.5 1915.93 3117.6L1912.64 3128.3L1902.76 3161.22ZM2079.89 3183.17H2160.27V3232H2028.31V3039.96H2079.89V3183.17ZM130.204 3314.23H203.18V3314.78C214.702 3314.78 224.853 3316.43 233.632 3319.17C242.411 3322.46 250.093 3326.85 256.677 3332.34C262.987 3338.38 267.925 3345.23 271.217 3353.46C274.509 3361.69 276.155 3371.02 276.155 3381.45C276.155 3391.87 274.509 3401.2 271.217 3409.43C267.925 3417.66 262.987 3424.79 256.677 3430.56C250.093 3436.32 242.411 3440.71 233.632 3443.72C224.853 3446.74 214.702 3448.11 203.18 3448.11H181.781V3506H130.204V3314.23ZM181.781 3399.55H202.082V3399.83C208.118 3399.83 213.056 3398.18 216.897 3394.89C220.463 3391.6 222.384 3386.93 222.384 3380.9C222.384 3375.14 220.463 3370.47 217.171 3367.18C213.605 3363.89 208.667 3362.24 202.082 3362.24H181.781V3399.55ZM451.449 3506H393.562L362.287 3445.1H347.747V3505.45H296.17V3313.41H368.322C379.296 3313.41 389.721 3315.06 399.049 3318.35C408.377 3321.64 416.333 3326.3 422.917 3332.34C429.501 3338.65 434.714 3345.78 438.28 3353.74C441.847 3362.24 443.767 3371.3 443.767 3381.17C443.767 3394.07 440.749 3405.04 435.262 3414.09C429.501 3423.42 421.82 3430.83 411.943 3435.77L451.449 3506ZM348.295 3362.24V3399.83H374.084C376.827 3399.83 379.57 3399.28 381.765 3398.18C383.686 3397.36 385.332 3395.71 386.978 3393.52C388.075 3391.87 389.173 3389.68 389.721 3387.48C390.27 3385.29 390.544 3383.37 390.544 3381.17C390.544 3379.25 390.27 3377.06 389.721 3374.86C389.173 3372.39 388.075 3370.2 386.978 3368.55C385.332 3366.36 383.686 3364.99 381.765 3363.89C379.57 3362.79 376.827 3362.24 374.084 3362.24H348.295ZM460.571 3410.53V3411.08C460.571 3395.71 462.765 3382 467.429 3369.93C472.093 3357.58 478.403 3347.15 486.633 3338.38C494.864 3329.6 504.74 3322.74 515.714 3318.07C527.236 3313.41 539.308 3310.94 552.202 3310.94C564.822 3310.94 577.167 3313.41 588.69 3318.07C599.663 3322.74 609.54 3329.32 617.77 3338.1C625.726 3346.88 632.036 3357.31 636.974 3369.65C641.364 3381.72 643.833 3395.44 643.833 3410.8C643.833 3426.17 641.364 3439.88 636.974 3451.95C632.036 3464.57 625.726 3475 617.77 3483.5C609.54 3492.28 599.663 3499.14 588.69 3503.53C576.893 3508.19 564.822 3510.39 552.202 3510.39C539.582 3510.39 527.236 3508.19 515.714 3503.53C504.74 3499.14 494.864 3492.28 486.633 3483.23C478.403 3474.72 472.093 3464.3 467.429 3451.68C462.765 3439.61 460.571 3425.89 460.571 3410.53ZM514.068 3409.98V3410.53C514.068 3426.17 517.36 3438.24 523.944 3447.02C530.529 3455.79 539.856 3460.18 551.927 3460.18C564.273 3460.18 573.875 3455.79 580.459 3447.02C587.044 3438.24 590.336 3426.17 590.336 3410.53C590.336 3395.16 587.044 3382.82 580.459 3374.04C573.875 3365.26 564.273 3360.87 551.927 3360.87C539.856 3360.87 530.529 3365.26 523.944 3373.77C517.36 3382.27 514.068 3394.34 514.068 3409.98ZM648.364 3313.96H803.369V3362.79H751.243V3506H699.666V3362.79H648.364V3313.96ZM870.611 3457.17H953.737V3506H819.034V3313.96H952.091V3362.79H870.611V3386.93H932.887V3432.75H870.611V3457.17ZM1147.14 3361.42L1095.83 3374.86L1094.74 3374.31C1090.9 3369.38 1086.51 3365.81 1081.29 3363.62C1075.81 3361.42 1070.32 3360.32 1065.38 3360.32C1053.04 3360.32 1043.71 3364.71 1037.4 3373.49C1030.82 3382.54 1027.8 3394.62 1027.8 3409.43C1027.8 3425.34 1031.36 3437.41 1038.5 3445.64C1045.63 3454.15 1054.96 3458.26 1066.48 3458.26C1073.06 3458.26 1079.65 3456.89 1085.96 3453.6C1091.99 3450.58 1096.66 3445.92 1099.68 3439.61L1150.43 3452.78C1146.59 3461.83 1142.2 3469.79 1136.99 3476.65C1131.23 3484.05 1124.92 3490.09 1117.78 3494.75C1110.1 3499.96 1101.87 3503.81 1093.64 3506C1084.86 3508.74 1075.53 3510.12 1066.21 3510.12C1053.59 3510.12 1041.24 3507.92 1029.72 3503.26C1018.74 3498.87 1008.87 3492.01 1000.64 3482.96C992.407 3474.45 986.097 3464.03 981.433 3451.41C976.769 3439.33 974.575 3425.62 974.575 3410.25C974.575 3394.89 976.769 3381.17 981.433 3369.1C986.097 3356.76 992.407 3346.33 1000.64 3337.55C1008.87 3328.77 1018.74 3321.91 1029.72 3317.25C1041.24 3312.59 1053.31 3310.12 1066.21 3310.12C1084.59 3310.12 1100.77 3314.78 1114.76 3323.56C1128.48 3332.61 1139.46 3345.23 1147.14 3361.42ZM1153.8 3313.96H1308.81V3362.79H1256.68V3506H1205.1V3362.79H1153.8V3313.96ZM1313.77 3410.53V3411.08C1313.77 3395.71 1315.97 3382 1320.63 3369.93C1325.29 3357.58 1331.6 3347.15 1339.83 3338.38C1348.06 3329.6 1357.94 3322.74 1368.91 3318.07C1380.44 3313.41 1392.51 3310.94 1405.4 3310.94C1418.02 3310.94 1430.37 3313.41 1441.89 3318.07C1452.86 3322.74 1462.74 3329.32 1470.97 3338.1C1478.93 3346.88 1485.24 3357.31 1490.18 3369.65C1494.56 3381.72 1497.03 3395.44 1497.03 3410.8C1497.03 3426.17 1494.56 3439.88 1490.18 3451.95C1485.24 3464.57 1478.93 3475 1470.97 3483.5C1462.74 3492.28 1452.86 3499.14 1441.89 3503.53C1430.09 3508.19 1418.02 3510.39 1405.4 3510.39C1392.78 3510.39 1380.44 3508.19 1368.91 3503.53C1357.94 3499.14 1348.06 3492.28 1339.83 3483.23C1331.6 3474.72 1325.29 3464.3 1320.63 3451.68C1315.97 3439.61 1313.77 3425.89 1313.77 3410.53ZM1367.27 3409.98V3410.53C1367.27 3426.17 1370.56 3438.24 1377.15 3447.02C1383.73 3455.79 1393.06 3460.18 1405.13 3460.18C1417.47 3460.18 1427.08 3455.79 1433.66 3447.02C1440.24 3438.24 1443.54 3426.17 1443.54 3410.53C1443.54 3395.16 1440.24 3382.82 1433.66 3374.04C1427.08 3365.26 1417.47 3360.87 1405.13 3360.87C1393.06 3360.87 1383.73 3365.26 1377.15 3373.77C1370.56 3382.27 1367.27 3394.34 1367.27 3409.98ZM1673.58 3506H1615.69L1584.42 3445.1H1569.88V3505.45H1518.3V3313.41H1590.45C1601.43 3313.41 1611.85 3315.06 1621.18 3318.35C1630.51 3321.64 1638.46 3326.3 1645.05 3332.34C1651.63 3338.65 1656.84 3345.78 1660.41 3353.74C1663.98 3362.24 1665.9 3371.3 1665.9 3381.17C1665.9 3394.07 1662.88 3405.04 1657.39 3414.09C1651.63 3423.42 1643.95 3430.83 1634.07 3435.77L1673.58 3506ZM1570.43 3362.24V3399.83H1596.21C1598.96 3399.83 1601.7 3399.28 1603.9 3398.18C1605.82 3397.36 1607.46 3395.71 1609.11 3393.52C1610.21 3391.87 1611.3 3389.68 1611.85 3387.48C1612.4 3385.29 1612.67 3383.37 1612.67 3381.17C1612.67 3379.25 1612.4 3377.06 1611.85 3374.86C1611.3 3372.39 1610.21 3370.2 1609.11 3368.55C1607.46 3366.36 1605.82 3364.99 1603.9 3363.89C1601.7 3362.79 1598.96 3362.24 1596.21 3362.24H1570.43Z"
        fill="white" />
</svg>
    