<svg width="3690" height="3697" viewBox="0 0 3690 3697" fill="none"
    xmlns="http://www.w3.org/2000/svg">
    <rect width="3690" height="3697" fill="#2971B7" />
    <rect x="111" y="159" width="3468" height="2727" fill="white" />
    <path
        d="M181.781 3232H130.204V3039.96H181.781V3232ZM410.964 3089.07L362.13 3102.51H360.484C357.741 3094.83 353.9 3089.34 348.962 3086.05C343.749 3082.76 338.537 3081.11 333.324 3081.11C328.66 3081.11 325.094 3082.21 322.625 3084.13C320.156 3086.05 319.058 3088.24 319.058 3090.71C319.058 3093.46 319.881 3095.65 321.802 3097.3C323.722 3099.49 326.191 3101.41 329.483 3103.06C332.501 3104.98 336.616 3106.9 341.554 3108.82C343.201 3109.64 345.67 3110.74 349.236 3112.39C352.528 3114.03 355.272 3115.4 357.192 3115.95C365.971 3120.07 372.281 3123.36 376.671 3125.55C383.255 3129.4 389.016 3133.51 393.954 3138.17C398.892 3143.11 403.282 3148.87 406.574 3154.91C409.866 3161.49 411.512 3168.63 411.512 3176.31C411.512 3185.09 409.592 3193.04 406.3 3200.18C402.733 3207.58 397.795 3213.89 391.485 3219.38C385.45 3224.87 377.768 3228.98 368.715 3232C359.936 3234.74 350.059 3236.12 339.36 3236.12C329.209 3236.12 319.881 3234.74 311.377 3232C303.146 3229.81 295.739 3225.69 288.88 3220.2C282.296 3215.26 276.535 3208.96 271.597 3201.55C266.658 3194.69 262.818 3186.73 259.8 3177.68L308.907 3164.51C310.279 3168.08 311.925 3171.37 313.846 3174.11C315.492 3176.86 317.961 3179.6 320.979 3182.34C323.722 3185.09 326.74 3187.01 330.306 3188.1C334.147 3189.75 337.988 3190.3 341.829 3190.3C347.316 3190.3 351.705 3189.2 354.449 3187.01C357.192 3184.81 358.564 3182.07 358.564 3178.78C358.564 3176.03 357.466 3173.56 355.546 3171.37C353.351 3169.45 350.608 3167.53 347.041 3165.61C342.926 3163.69 338.537 3161.77 333.598 3159.85C329.758 3158.75 324.271 3156.28 316.863 3152.71C312.474 3150.79 306.438 3147.5 298.482 3143.11C292.721 3140.09 287.509 3135.98 282.57 3131.04C277.907 3126.65 274.34 3121.16 271.597 3115.13C268.853 3109.09 267.481 3101.96 267.481 3093.46C267.481 3086.87 269.128 3080.01 272.42 3072.88C275.712 3066.3 280.376 3059.99 286.411 3054.5C292.447 3049.01 299.58 3044.62 308.359 3041.33C316.589 3038.04 326.191 3036.39 336.891 3036.39C345.944 3036.39 354.449 3037.76 362.405 3040.51C370.635 3043.25 377.768 3047.09 383.804 3051.48C390.113 3056.42 395.6 3061.91 400.264 3068.22C404.928 3074.8 408.495 3081.93 410.964 3089.07ZM540.405 3039.96H591.982L593.079 3148.87C593.079 3162.32 591.159 3174.66 587.318 3185.91C583.477 3196.61 577.99 3205.66 570.857 3213.07C563.724 3220.48 554.945 3225.96 545.069 3229.81C534.644 3233.65 523.396 3235.29 511.324 3235.29C499.253 3235.29 488.005 3233.65 477.58 3229.81C467.704 3226.24 458.925 3220.48 451.792 3212.8C444.659 3205.66 439.172 3196.61 435.331 3185.64C431.49 3174.94 429.57 3162.59 429.57 3148.87V3039.96H481.147V3148.6C481.147 3162.32 483.616 3172.19 488.554 3178.23C493.492 3184.26 500.899 3187.28 510.776 3187.28C520.652 3187.28 528.059 3184.26 532.998 3178.23C537.936 3172.19 540.405 3162.32 540.405 3148.6V3039.96ZM622.385 3040.23H695.36V3040.78C706.883 3040.78 717.034 3042.43 725.813 3045.17C734.592 3048.46 742.273 3052.85 748.858 3058.34C755.168 3064.38 760.106 3071.23 763.398 3079.46C766.69 3087.69 768.336 3097.02 768.336 3107.45C768.336 3117.87 766.69 3127.2 763.398 3135.43C760.106 3143.66 755.168 3150.79 748.858 3156.56C742.273 3162.32 734.592 3166.71 725.813 3169.72C717.034 3172.74 706.883 3174.11 695.36 3174.11H673.962V3232H622.385V3040.23ZM673.962 3125.55H694.263V3125.83C700.299 3125.83 705.237 3124.18 709.078 3120.89C712.644 3117.6 714.565 3112.93 714.565 3106.9C714.565 3101.14 712.644 3096.47 709.352 3093.18C705.785 3089.89 700.847 3088.24 694.263 3088.24H673.962V3125.55ZM788.899 3040.23H861.875V3040.78C873.397 3040.78 883.548 3042.43 892.327 3045.17C901.106 3048.46 908.788 3052.85 915.372 3058.34C921.682 3064.38 926.62 3071.23 929.912 3079.46C933.204 3087.69 934.85 3097.02 934.85 3107.45C934.85 3117.87 933.204 3127.2 929.912 3135.43C926.62 3143.66 921.682 3150.79 915.372 3156.56C908.788 3162.32 901.106 3166.71 892.327 3169.72C883.548 3172.74 873.397 3174.11 861.875 3174.11H840.476V3232H788.899V3040.23ZM840.476 3125.55H860.777V3125.83C866.813 3125.83 871.751 3124.18 875.592 3120.89C879.158 3117.6 881.079 3112.93 881.079 3106.9C881.079 3101.14 879.158 3096.47 875.866 3093.18C872.3 3089.89 867.362 3088.24 860.777 3088.24H840.476V3125.55ZM944.714 3136.53V3137.08C944.714 3121.71 946.909 3108 951.573 3095.93C956.236 3083.58 962.546 3073.15 970.777 3064.38C979.007 3055.6 988.883 3048.74 999.857 3044.07C1011.38 3039.41 1023.45 3036.94 1036.35 3036.94C1048.96 3036.94 1061.31 3039.41 1072.83 3044.07C1083.81 3048.74 1093.68 3055.32 1101.91 3064.1C1109.87 3072.88 1116.18 3083.31 1121.12 3095.65C1125.51 3107.72 1127.98 3121.44 1127.98 3136.8C1127.98 3152.17 1125.51 3165.88 1121.12 3177.95C1116.18 3190.57 1109.87 3201 1101.91 3209.5C1093.68 3218.28 1083.81 3225.14 1072.83 3229.53C1061.04 3234.19 1048.96 3236.39 1036.35 3236.39C1023.73 3236.39 1011.38 3234.19 999.857 3229.53C988.883 3225.14 979.007 3218.28 970.777 3209.23C962.546 3200.72 956.236 3190.3 951.573 3177.68C946.909 3165.61 944.714 3151.89 944.714 3136.53ZM998.211 3135.98V3136.53C998.211 3152.17 1001.5 3164.24 1008.09 3173.02C1014.67 3181.79 1024 3186.18 1036.07 3186.18C1048.42 3186.18 1058.02 3181.79 1064.6 3173.02C1071.19 3164.24 1074.48 3152.17 1074.48 3136.53C1074.48 3121.16 1071.19 3108.82 1064.6 3100.04C1058.02 3091.26 1048.42 3086.87 1036.07 3086.87C1024 3086.87 1014.67 3091.26 1008.09 3099.77C1001.5 3108.27 998.211 3120.34 998.211 3135.98ZM1304.52 3232H1246.63L1215.36 3171.1H1200.82V3231.45H1149.24V3039.41H1221.39C1232.37 3039.41 1242.79 3041.06 1252.12 3044.35C1261.45 3047.64 1269.4 3052.3 1275.99 3058.34C1282.57 3064.65 1287.79 3071.78 1291.35 3079.74C1294.92 3088.24 1296.84 3097.3 1296.84 3107.17C1296.84 3120.07 1293.82 3131.04 1288.33 3140.09C1282.57 3149.42 1274.89 3156.83 1265.02 3161.77L1304.52 3232ZM1201.37 3088.24V3125.83H1227.16C1229.9 3125.83 1232.64 3125.28 1234.84 3124.18C1236.76 3123.36 1238.4 3121.71 1240.05 3119.52C1241.15 3117.87 1242.24 3115.68 1242.79 3113.48C1243.34 3111.29 1243.62 3109.37 1243.62 3107.17C1243.62 3105.25 1243.34 3103.06 1242.79 3100.86C1242.24 3098.39 1241.15 3096.2 1240.05 3094.55C1238.4 3092.36 1236.76 3090.99 1234.84 3089.89C1232.64 3088.79 1229.9 3088.24 1227.16 3088.24H1201.37ZM1307.06 3039.96H1462.06V3088.79H1409.94V3232H1358.36V3088.79H1307.06V3039.96ZM1527.18 3136.53V3137.08C1527.18 3121.71 1529.38 3108 1534.04 3095.93C1538.7 3083.58 1545.01 3073.15 1553.24 3064.38C1561.47 3055.6 1571.35 3048.74 1582.32 3044.07C1593.85 3039.41 1605.92 3036.94 1618.81 3036.94C1631.43 3036.94 1643.78 3039.41 1655.3 3044.07C1666.27 3048.74 1676.15 3055.32 1684.38 3064.1C1692.34 3072.88 1698.65 3083.31 1703.59 3095.65C1707.97 3107.72 1710.44 3121.44 1710.44 3136.8C1710.44 3152.17 1707.97 3165.88 1703.59 3177.95C1698.65 3190.57 1692.34 3201 1684.38 3209.5C1676.15 3218.28 1666.27 3225.14 1655.3 3229.53C1643.5 3234.19 1631.43 3236.39 1618.81 3236.39C1606.19 3236.39 1593.85 3234.19 1582.32 3229.53C1571.35 3225.14 1561.47 3218.28 1553.24 3209.23C1545.01 3200.72 1538.7 3190.3 1534.04 3177.68C1529.38 3165.61 1527.18 3151.89 1527.18 3136.53ZM1580.68 3135.98V3136.53C1580.68 3152.17 1583.97 3164.24 1590.56 3173.02C1597.14 3181.79 1606.47 3186.18 1618.54 3186.18C1630.88 3186.18 1640.49 3181.79 1647.07 3173.02C1653.65 3164.24 1656.95 3152.17 1656.95 3136.53C1656.95 3121.16 1653.65 3108.82 1647.07 3100.04C1640.49 3091.26 1630.88 3086.87 1618.54 3086.87C1606.47 3086.87 1597.14 3091.26 1590.56 3099.77C1583.97 3108.27 1580.68 3120.34 1580.68 3135.98ZM1841.17 3039.96H1892.75L1893.85 3148.87C1893.85 3162.32 1891.93 3174.66 1888.09 3185.91C1884.25 3196.61 1878.76 3205.66 1871.63 3213.07C1864.49 3220.48 1855.71 3225.96 1845.84 3229.81C1835.41 3233.65 1824.16 3235.29 1812.09 3235.29C1800.02 3235.29 1788.77 3233.65 1778.35 3229.81C1768.47 3226.24 1759.69 3220.48 1752.56 3212.8C1745.43 3205.66 1739.94 3196.61 1736.1 3185.64C1732.26 3174.94 1730.34 3162.59 1730.34 3148.87V3039.96H1781.91V3148.6C1781.91 3162.32 1784.38 3172.19 1789.32 3178.23C1794.26 3184.26 1801.67 3187.28 1811.54 3187.28C1821.42 3187.28 1828.83 3184.26 1833.77 3178.23C1838.7 3172.19 1841.17 3162.32 1841.17 3148.6V3039.96ZM2077.88 3232H2020L1988.72 3171.1H1974.18V3231.45H1922.6V3039.41H1994.76C2005.73 3039.41 2016.16 3041.06 2025.48 3044.35C2034.81 3047.64 2042.77 3052.3 2049.35 3058.34C2055.94 3064.65 2061.15 3071.78 2064.71 3079.74C2068.28 3088.24 2070.2 3097.3 2070.2 3107.17C2070.2 3120.07 2067.18 3131.04 2061.7 3140.09C2055.94 3149.42 2048.25 3156.83 2038.38 3161.77L2077.88 3232ZM1974.73 3088.24V3125.83H2000.52C2003.26 3125.83 2006.01 3125.28 2008.2 3124.18C2010.12 3123.36 2011.77 3121.71 2013.41 3119.52C2014.51 3117.87 2015.61 3115.68 2016.16 3113.48C2016.7 3111.29 2016.98 3109.37 2016.98 3107.17C2016.98 3105.25 2016.7 3103.06 2016.16 3100.86C2015.61 3098.39 2014.51 3096.2 2013.41 3094.55C2011.77 3092.36 2010.12 3090.99 2008.2 3089.89C2006.01 3088.79 2003.26 3088.24 2000.52 3088.24H1974.73ZM291.793 3361.42L240.491 3374.86L239.393 3374.31C235.552 3369.38 231.163 3365.81 225.95 3363.62C220.463 3361.42 214.977 3360.32 210.038 3360.32C197.693 3360.32 188.365 3364.71 182.055 3373.49C175.471 3382.54 172.453 3394.62 172.453 3409.43C172.453 3425.34 176.02 3437.41 183.153 3445.64C190.286 3454.15 199.613 3458.26 211.136 3458.26C217.72 3458.26 224.304 3456.89 230.614 3453.6C236.65 3450.58 241.314 3445.92 244.331 3439.61L295.085 3452.78C291.244 3461.83 286.855 3469.79 281.642 3476.65C275.881 3484.05 269.571 3490.09 262.438 3494.75C254.757 3499.96 246.526 3503.81 238.296 3506C229.517 3508.74 220.189 3510.12 210.861 3510.12C198.242 3510.12 185.896 3507.92 174.374 3503.26C163.4 3498.87 153.523 3492.01 145.293 3482.96C137.063 3474.45 130.753 3464.03 126.089 3451.41C121.425 3439.33 119.23 3425.62 119.23 3410.25C119.23 3394.89 121.425 3381.17 126.089 3369.1C130.753 3356.76 137.063 3346.33 145.293 3337.55C153.523 3328.77 163.4 3321.91 174.374 3317.25C185.896 3312.59 197.967 3310.12 210.861 3310.12C229.243 3310.12 245.429 3314.78 259.42 3323.56C273.138 3332.61 284.111 3345.23 291.793 3361.42ZM305.041 3410.53V3411.08C305.041 3395.71 307.236 3382 311.9 3369.93C316.563 3357.58 322.873 3347.15 331.104 3338.38C339.334 3329.6 349.21 3322.74 360.184 3318.07C371.707 3313.41 383.778 3310.94 396.672 3310.94C409.292 3310.94 421.637 3313.41 433.16 3318.07C444.134 3322.74 454.01 3329.32 462.24 3338.1C470.196 3346.88 476.506 3357.31 481.444 3369.65C485.834 3381.72 488.303 3395.44 488.303 3410.8C488.303 3426.17 485.834 3439.88 481.444 3451.95C476.506 3464.57 470.196 3475 462.24 3483.5C454.01 3492.28 444.134 3499.14 433.16 3503.53C421.363 3508.19 409.292 3510.39 396.672 3510.39C384.052 3510.39 371.707 3508.19 360.184 3503.53C349.21 3499.14 339.334 3492.28 331.104 3483.23C322.873 3474.72 316.563 3464.3 311.9 3451.68C307.236 3439.61 305.041 3425.89 305.041 3410.53ZM358.538 3409.98V3410.53C358.538 3426.17 361.83 3438.24 368.415 3447.02C374.999 3455.79 384.327 3460.18 396.398 3460.18C408.743 3460.18 418.345 3455.79 424.93 3447.02C431.514 3438.24 434.806 3426.17 434.806 3410.53C434.806 3395.16 431.514 3382.82 424.93 3374.04C418.345 3365.26 408.743 3360.87 396.398 3360.87C384.327 3360.87 374.999 3365.26 368.415 3373.77C361.83 3382.27 358.538 3394.34 358.538 3409.98ZM624.519 3506L617.112 3481.58H552.916L545.508 3506H490.914L558.402 3314.23H611.9L679.114 3506H624.519ZM566.084 3435.22H602.846L593.519 3402.57L590.226 3391.87C589.678 3390.78 589.129 3388.85 588.58 3386.66C588.032 3384.47 587.483 3383.09 587.483 3382.27C587.209 3381.72 586.934 3380.62 586.386 3378.98C585.837 3377.33 585.563 3376.24 585.563 3375.69L585.014 3372.94H584.465L583.916 3375.41C583.642 3375.96 583.368 3377.06 582.819 3378.7C582.27 3380.35 581.996 3381.45 581.996 3382C581.722 3382.82 581.173 3384.19 580.624 3386.39C580.076 3388.58 579.527 3390.5 579.253 3391.6L575.96 3402.3L566.084 3435.22ZM827.71 3363.07L778.877 3376.51H777.231C774.487 3368.83 770.647 3363.34 765.708 3360.05C760.496 3356.76 755.283 3355.11 750.071 3355.11C745.407 3355.11 741.84 3356.21 739.371 3358.13C736.902 3360.05 735.805 3362.24 735.805 3364.71C735.805 3367.46 736.628 3369.65 738.548 3371.3C740.469 3373.49 742.938 3375.41 746.23 3377.06C749.248 3378.98 753.363 3380.9 758.301 3382.82C759.947 3383.64 762.416 3384.74 765.983 3386.39C769.275 3388.03 772.018 3389.4 773.939 3389.95C782.718 3394.07 789.028 3397.36 793.417 3399.55C800.001 3403.4 805.763 3407.51 810.701 3412.17C815.639 3417.11 820.029 3422.87 823.321 3428.91C826.613 3435.49 828.259 3442.63 828.259 3450.31C828.259 3459.09 826.338 3467.04 823.046 3474.18C819.48 3481.58 814.542 3487.89 808.232 3493.38C802.196 3498.87 794.514 3502.98 785.461 3506C776.682 3508.74 766.806 3510.12 756.106 3510.12C745.956 3510.12 736.628 3508.74 728.123 3506C719.893 3503.81 712.485 3499.69 705.627 3494.2C699.043 3489.26 693.281 3482.96 688.343 3475.55C683.405 3468.69 679.564 3460.73 676.546 3451.68L725.654 3438.51C727.026 3442.08 728.672 3445.37 730.592 3448.11C732.238 3450.86 734.707 3453.6 737.725 3456.34C740.469 3459.09 743.486 3461.01 747.053 3462.1C750.894 3463.75 754.735 3464.3 758.575 3464.3C764.062 3464.3 768.452 3463.2 771.195 3461.01C773.939 3458.81 775.31 3456.07 775.31 3452.78C775.31 3450.03 774.213 3447.56 772.293 3445.37C770.098 3443.45 767.354 3441.53 763.788 3439.61C759.673 3437.69 755.283 3435.77 750.345 3433.85C746.504 3432.75 741.017 3430.28 733.61 3426.71C729.22 3424.79 723.185 3421.5 715.229 3417.11C709.468 3414.09 704.255 3409.98 699.317 3405.04C694.653 3400.65 691.087 3395.16 688.343 3389.13C685.6 3383.09 684.228 3375.96 684.228 3367.46C684.228 3360.87 685.874 3354.01 689.166 3346.88C692.458 3340.3 697.122 3333.99 703.158 3328.5C709.193 3323.01 716.326 3318.62 725.105 3315.33C733.336 3312.04 742.938 3310.39 753.637 3310.39C762.691 3310.39 771.195 3311.76 779.151 3314.51C787.382 3317.25 794.514 3321.09 800.55 3325.48C806.86 3330.42 812.347 3335.91 817.011 3342.22C821.675 3348.8 825.241 3355.93 827.71 3363.07ZM830.953 3313.96H985.958V3362.79H933.832V3506H882.256V3362.79H830.953V3313.96ZM1116.02 3506L1108.62 3481.58H1044.42L1037.01 3506H982.419L1049.91 3314.23H1103.41L1170.62 3506H1116.02ZM1057.59 3435.22H1094.35L1085.02 3402.57L1081.73 3391.87C1081.18 3390.78 1080.63 3388.85 1080.09 3386.66C1079.54 3384.47 1078.99 3383.09 1078.99 3382.27C1078.71 3381.72 1078.44 3380.62 1077.89 3378.98C1077.34 3377.33 1077.07 3376.24 1077.07 3375.69L1076.52 3372.94H1075.97L1075.42 3375.41C1075.15 3375.96 1074.87 3377.06 1074.32 3378.7C1073.78 3380.35 1073.5 3381.45 1073.5 3382C1073.23 3382.82 1072.68 3384.19 1072.13 3386.39C1071.58 3388.58 1071.03 3390.5 1070.76 3391.6L1067.47 3402.3L1057.59 3435.22ZM1234.72 3457.17H1315.1V3506H1183.14V3313.96H1234.72V3457.17ZM1525.4 3362.79H1446.11V3393.24H1506.74V3440.16H1446.11V3506H1394.54V3313.96H1525.4V3362.79ZM1656.84 3313.96H1708.41L1709.51 3422.87C1709.51 3436.32 1707.59 3448.66 1703.75 3459.91C1699.91 3470.61 1694.42 3479.66 1687.29 3487.07C1680.16 3494.48 1671.38 3499.96 1661.5 3503.81C1651.08 3507.65 1639.83 3509.29 1627.76 3509.29C1615.69 3509.29 1604.44 3507.65 1594.01 3503.81C1584.14 3500.24 1575.36 3494.48 1568.22 3486.8C1561.09 3479.66 1555.6 3470.61 1551.76 3459.64C1547.92 3448.94 1546 3436.59 1546 3422.87V3313.96H1597.58V3422.6C1597.58 3436.32 1600.05 3446.19 1604.99 3452.23C1609.92 3458.26 1617.33 3461.28 1627.21 3461.28C1637.08 3461.28 1644.49 3458.26 1649.43 3452.23C1654.37 3446.19 1656.84 3436.32 1656.84 3422.6V3313.96ZM1721.53 3313.96H1876.54V3362.79H1824.41V3506H1772.84V3362.79H1721.53V3313.96ZM2001.12 3313.96H2052.7L2053.79 3422.87C2053.79 3436.32 2051.87 3448.66 2048.03 3459.91C2044.19 3470.61 2038.7 3479.66 2031.57 3487.07C2024.44 3494.48 2015.66 3499.96 2005.78 3503.81C1995.36 3507.65 1984.11 3509.29 1972.04 3509.29C1959.97 3509.29 1948.72 3507.65 1938.29 3503.81C1928.42 3500.24 1919.64 3494.48 1912.51 3486.8C1905.37 3479.66 1899.89 3470.61 1896.04 3459.64C1892.2 3448.94 1890.28 3436.59 1890.28 3422.87V3313.96H1941.86V3422.6C1941.86 3436.32 1944.33 3446.19 1949.27 3452.23C1954.21 3458.26 1961.61 3461.28 1971.49 3461.28C1981.37 3461.28 1988.77 3458.26 1993.71 3452.23C1998.65 3446.19 2001.12 3436.32 2001.12 3422.6V3313.96ZM2237.83 3506H2179.94L2148.67 3445.1H2134.13V3505.45H2082.55V3313.41H2154.7C2165.68 3313.41 2176.1 3315.06 2185.43 3318.35C2194.76 3321.64 2202.71 3326.3 2209.3 3332.34C2215.88 3338.65 2221.09 3345.78 2224.66 3353.74C2228.23 3362.24 2230.15 3371.3 2230.15 3381.17C2230.15 3394.07 2227.13 3405.04 2221.64 3414.09C2215.88 3423.42 2208.2 3430.83 2198.32 3435.77L2237.83 3506ZM2134.67 3362.24V3399.83H2160.46C2163.21 3399.83 2165.95 3399.28 2168.14 3398.18C2170.07 3397.36 2171.71 3395.71 2173.36 3393.52C2174.45 3391.87 2175.55 3389.68 2176.1 3387.48C2176.65 3385.29 2176.92 3383.37 2176.92 3381.17C2176.92 3379.25 2176.65 3377.06 2176.1 3374.86C2175.55 3372.39 2174.45 3370.2 2173.36 3368.55C2171.71 3366.36 2170.07 3364.99 2168.14 3363.89C2165.95 3362.79 2163.21 3362.24 2160.46 3362.24H2134.67ZM2309.23 3457.17H2392.35V3506H2257.65V3313.96H2390.71V3362.79H2309.23V3386.93H2371.5V3432.75H2309.23V3457.17Z"
        fill="white" />
</svg>
    