<svg width="3690" height="3697" viewBox="0 0 3690 3697" fill="none"
    xmlns="http://www.w3.org/2000/svg">
    <rect width="3690" height="3697" fill="#798F49" />
    <rect x="111" y="159" width="3468" height="2727" fill="white" />
    <path
        d="M181.781 3232H130.204V3039.96H181.781V3232ZM410.964 3089.07L362.13 3102.51H360.484C357.741 3094.83 353.9 3089.34 348.962 3086.05C343.749 3082.76 338.537 3081.11 333.324 3081.11C328.66 3081.11 325.094 3082.21 322.625 3084.13C320.156 3086.05 319.058 3088.24 319.058 3090.71C319.058 3093.46 319.881 3095.65 321.802 3097.3C323.722 3099.49 326.191 3101.41 329.483 3103.06C332.501 3104.98 336.616 3106.9 341.554 3108.82C343.201 3109.64 345.67 3110.74 349.236 3112.39C352.528 3114.03 355.272 3115.4 357.192 3115.95C365.971 3120.07 372.281 3123.36 376.671 3125.55C383.255 3129.4 389.016 3133.51 393.954 3138.17C398.892 3143.11 403.282 3148.87 406.574 3154.91C409.866 3161.49 411.512 3168.63 411.512 3176.31C411.512 3185.09 409.592 3193.04 406.3 3200.18C402.733 3207.58 397.795 3213.89 391.485 3219.38C385.45 3224.87 377.768 3228.98 368.715 3232C359.936 3234.74 350.059 3236.12 339.36 3236.12C329.209 3236.12 319.881 3234.74 311.377 3232C303.146 3229.81 295.739 3225.69 288.88 3220.2C282.296 3215.26 276.535 3208.96 271.597 3201.55C266.658 3194.69 262.818 3186.73 259.8 3177.68L308.907 3164.51C310.279 3168.08 311.925 3171.37 313.846 3174.11C315.492 3176.86 317.961 3179.6 320.979 3182.34C323.722 3185.09 326.74 3187.01 330.306 3188.1C334.147 3189.75 337.988 3190.3 341.829 3190.3C347.316 3190.3 351.705 3189.2 354.449 3187.01C357.192 3184.81 358.564 3182.07 358.564 3178.78C358.564 3176.03 357.466 3173.56 355.546 3171.37C353.351 3169.45 350.608 3167.53 347.041 3165.61C342.926 3163.69 338.537 3161.77 333.598 3159.85C329.758 3158.75 324.271 3156.28 316.863 3152.71C312.474 3150.79 306.438 3147.5 298.482 3143.11C292.721 3140.09 287.509 3135.98 282.57 3131.04C277.907 3126.65 274.34 3121.16 271.597 3115.13C268.853 3109.09 267.481 3101.96 267.481 3093.46C267.481 3086.87 269.128 3080.01 272.42 3072.88C275.712 3066.3 280.376 3059.99 286.411 3054.5C292.447 3049.01 299.58 3044.62 308.359 3041.33C316.589 3038.04 326.191 3036.39 336.891 3036.39C345.944 3036.39 354.449 3037.76 362.405 3040.51C370.635 3043.25 377.768 3047.09 383.804 3051.48C390.113 3056.42 395.6 3061.91 400.264 3068.22C404.928 3074.8 408.495 3081.93 410.964 3089.07ZM414.206 3039.96H569.211V3088.79H517.086V3232H465.509V3088.79H414.206V3039.96ZM699.278 3232L691.871 3207.58H627.674L620.267 3232H565.673L633.161 3040.23H686.659L753.873 3232H699.278ZM640.843 3161.22H677.605L668.277 3128.57L664.985 3117.87C664.437 3116.78 663.888 3114.85 663.339 3112.66C662.791 3110.47 662.242 3109.09 662.242 3108.27C661.967 3107.72 661.693 3106.62 661.144 3104.98C660.596 3103.33 660.321 3102.24 660.321 3101.69L659.773 3098.94H659.224L658.675 3101.41C658.401 3101.96 658.127 3103.06 657.578 3104.7C657.029 3106.35 656.755 3107.45 656.755 3108C656.481 3108.82 655.932 3110.19 655.383 3112.39C654.835 3114.58 654.286 3116.5 654.012 3117.6L650.719 3128.3L640.843 3161.22ZM879.424 3039.96H930.452L929.081 3232.55H882.168L855.007 3191.12L842.388 3172.19C837.175 3164.51 832.786 3158.2 829.493 3152.71C826.75 3148.87 823.458 3143.66 819.617 3137.63L815.502 3131.59H815.228L815.502 3136.8C815.502 3138.17 815.776 3140.64 815.776 3144.21C815.776 3147.78 816.051 3150.25 816.051 3151.89C816.051 3158.48 816.325 3166.16 816.874 3175.49C816.874 3181.52 817.148 3191.67 817.148 3205.94V3232H765.845V3040.23H812.758L842.388 3085.23C843.211 3086.87 844.857 3089.34 847.326 3092.63C849.521 3095.93 851.441 3098.67 852.813 3100.31C858.3 3108.54 862.14 3114.31 864.884 3118.15C867.627 3122.54 871.194 3127.47 875.309 3132.96L879.698 3139.27H879.973V3133.51V3117.87C879.973 3108.54 879.698 3100.86 879.698 3095.1C879.424 3089.62 879.424 3080.56 879.424 3067.94V3039.96ZM963.999 3039.68H1037.8H1036.7C1050.69 3039.68 1063.59 3042.15 1075.66 3046.54C1087.73 3051.48 1098.15 3058.07 1106.93 3066.3C1115.71 3075.07 1122.57 3085.23 1127.51 3097.02C1132.45 3109.09 1134.92 3122.54 1134.92 3136.8C1134.92 3151.34 1132.45 3164.51 1127.51 3176.31C1122.57 3188.1 1115.71 3197.98 1107.48 3206.21C1098.7 3214.44 1088.55 3220.75 1077.03 3225.14C1065.23 3229.53 1052.34 3231.73 1038.35 3231.73H963.999V3039.68ZM1015.03 3183.44H1039.99L1040.54 3183.17C1046.3 3183.17 1051.79 3182.34 1057 3180.15C1061.94 3178.23 1066.06 3175.21 1069.9 3171.37C1073.46 3167.53 1076.48 3162.59 1078.68 3156.83C1080.87 3151.07 1081.97 3144.48 1081.97 3137.08C1081.97 3129.4 1080.87 3122.26 1078.68 3116.23C1076.48 3110.47 1073.46 3105.53 1069.62 3101.14C1065.78 3097.3 1061.12 3094 1056.18 3091.81C1050.97 3089.62 1045.48 3088.52 1039.72 3088.52H1015.03V3183.44ZM1347.77 3088.79H1268.49V3119.24H1329.12V3166.16H1268.49V3232H1216.91V3039.96H1347.77V3088.79ZM1359.6 3136.53V3137.08C1359.6 3121.71 1361.79 3108 1366.45 3095.93C1371.12 3083.58 1377.43 3073.15 1385.66 3064.38C1393.89 3055.6 1403.77 3048.74 1414.74 3044.07C1426.26 3039.41 1438.33 3036.94 1451.23 3036.94C1463.85 3036.94 1476.19 3039.41 1487.71 3044.07C1498.69 3048.74 1508.56 3055.32 1516.8 3064.1C1524.75 3072.88 1531.06 3083.31 1536 3095.65C1540.39 3107.72 1542.86 3121.44 1542.86 3136.8C1542.86 3152.17 1540.39 3165.88 1536 3177.95C1531.06 3190.57 1524.75 3201 1516.8 3209.5C1508.56 3218.28 1498.69 3225.14 1487.71 3229.53C1475.92 3234.19 1463.85 3236.39 1451.23 3236.39C1438.61 3236.39 1426.26 3234.19 1414.74 3229.53C1403.77 3225.14 1393.89 3218.28 1385.66 3209.23C1377.43 3200.72 1371.12 3190.3 1366.45 3177.68C1361.79 3165.61 1359.6 3151.89 1359.6 3136.53ZM1413.09 3135.98V3136.53C1413.09 3152.17 1416.39 3164.24 1422.97 3173.02C1429.55 3181.79 1438.88 3186.18 1450.95 3186.18C1463.3 3186.18 1472.9 3181.79 1479.48 3173.02C1486.07 3164.24 1489.36 3152.17 1489.36 3136.53C1489.36 3121.16 1486.07 3108.82 1479.48 3100.04C1472.9 3091.26 1463.3 3086.87 1450.95 3086.87C1438.88 3086.87 1429.55 3091.26 1422.97 3099.77C1416.39 3108.27 1413.09 3120.34 1413.09 3135.98ZM1719.4 3232H1661.52L1630.24 3171.1H1615.7V3231.45H1564.12V3039.41H1636.28C1647.25 3039.41 1657.68 3041.06 1667 3044.35C1676.33 3047.64 1684.29 3052.3 1690.87 3058.34C1697.46 3064.65 1702.67 3071.78 1706.23 3079.74C1709.8 3088.24 1711.72 3097.3 1711.72 3107.17C1711.72 3120.07 1708.7 3131.04 1703.22 3140.09C1697.46 3149.42 1689.77 3156.83 1679.9 3161.77L1719.4 3232ZM1616.25 3088.24V3125.83H1642.04C1644.78 3125.83 1647.52 3125.28 1649.72 3124.18C1651.64 3123.36 1653.29 3121.71 1654.93 3119.52C1656.03 3117.87 1657.13 3115.68 1657.68 3113.48C1658.22 3111.29 1658.5 3109.37 1658.5 3107.17C1658.5 3105.25 1658.22 3103.06 1657.68 3100.86C1657.13 3098.39 1656.03 3096.2 1654.93 3094.55C1653.29 3092.36 1651.64 3090.99 1649.72 3089.89C1647.52 3088.79 1644.78 3088.24 1642.04 3088.24H1616.25ZM266.279 3363.07L217.446 3376.51H215.8C213.056 3368.83 209.215 3363.34 204.277 3360.05C199.065 3356.76 193.852 3355.11 188.64 3355.11C183.976 3355.11 180.409 3356.21 177.94 3358.13C175.471 3360.05 174.374 3362.24 174.374 3364.71C174.374 3367.46 175.197 3369.65 177.117 3371.3C179.037 3373.49 181.507 3375.41 184.799 3377.06C187.816 3378.98 191.932 3380.9 196.87 3382.82C198.516 3383.64 200.985 3384.74 204.552 3386.39C207.844 3388.03 210.587 3389.4 212.507 3389.95C221.287 3394.07 227.596 3397.36 231.986 3399.55C238.57 3403.4 244.331 3407.51 249.27 3412.17C254.208 3417.11 258.597 3422.87 261.89 3428.91C265.182 3435.49 266.828 3442.63 266.828 3450.31C266.828 3459.09 264.907 3467.04 261.615 3474.18C258.049 3481.58 253.11 3487.89 246.801 3493.38C240.765 3498.87 233.083 3502.98 224.03 3506C215.251 3508.74 205.375 3510.12 194.675 3510.12C184.524 3510.12 175.197 3508.74 166.692 3506C158.462 3503.81 151.054 3499.69 144.196 3494.2C137.611 3489.26 131.85 3482.96 126.912 3475.55C121.974 3468.69 118.133 3460.73 115.115 3451.68L164.223 3438.51C165.595 3442.08 167.241 3445.37 169.161 3448.11C170.807 3450.86 173.276 3453.6 176.294 3456.34C179.037 3459.09 182.055 3461.01 185.622 3462.1C189.463 3463.75 193.303 3464.3 197.144 3464.3C202.631 3464.3 207.021 3463.2 209.764 3461.01C212.507 3458.81 213.879 3456.07 213.879 3452.78C213.879 3450.03 212.782 3447.56 210.861 3445.37C208.667 3443.45 205.923 3441.53 202.357 3439.61C198.242 3437.69 193.852 3435.77 188.914 3433.85C185.073 3432.75 179.586 3430.28 172.179 3426.71C167.789 3424.79 161.754 3421.5 153.798 3417.11C148.037 3414.09 142.824 3409.98 137.886 3405.04C133.222 3400.65 129.655 3395.16 126.912 3389.13C124.169 3383.09 122.797 3375.96 122.797 3367.46C122.797 3360.87 124.443 3354.01 127.735 3346.88C131.027 3340.3 135.691 3333.99 141.727 3328.5C147.762 3323.01 154.895 3318.62 163.674 3315.33C171.905 3312.04 181.507 3310.39 192.206 3310.39C201.259 3310.39 209.764 3311.76 217.72 3314.51C225.95 3317.25 233.083 3321.09 239.119 3325.48C245.429 3330.42 250.916 3335.91 255.58 3342.22C260.243 3348.8 263.81 3355.93 266.279 3363.07ZM269.522 3313.96H424.527V3362.79H372.401V3506H320.824V3362.79H269.522V3313.96ZM594.922 3506H537.036L505.76 3445.1H491.22V3505.45H439.643V3313.41H511.796C522.77 3313.41 533.195 3315.06 542.523 3318.35C551.85 3321.64 559.806 3326.3 566.391 3332.34C572.975 3338.65 578.187 3345.78 581.754 3353.74C585.32 3362.24 587.241 3371.3 587.241 3381.17C587.241 3394.07 584.223 3405.04 578.736 3414.09C572.975 3423.42 565.293 3430.83 555.417 3435.77L594.922 3506ZM491.769 3362.24V3399.83H517.557C520.301 3399.83 523.044 3399.28 525.239 3398.18C527.159 3397.36 528.805 3395.71 530.451 3393.52C531.549 3391.87 532.646 3389.68 533.195 3387.48C533.744 3385.29 534.018 3383.37 534.018 3381.17C534.018 3379.25 533.744 3377.06 533.195 3374.86C532.646 3372.39 531.549 3370.2 530.451 3368.55C528.805 3366.36 527.159 3364.99 525.239 3363.89C523.044 3362.79 520.301 3362.24 517.557 3362.24H491.769ZM604.044 3410.53V3411.08C604.044 3395.71 606.239 3382 610.903 3369.93C615.567 3357.58 621.877 3347.15 630.107 3338.38C638.337 3329.6 648.214 3322.74 659.188 3318.07C670.71 3313.41 682.781 3310.94 695.675 3310.94C708.295 3310.94 720.641 3313.41 732.163 3318.07C743.137 3322.74 753.013 3329.32 761.244 3338.1C769.2 3346.88 775.51 3357.31 780.448 3369.65C784.837 3381.72 787.307 3395.44 787.307 3410.8C787.307 3426.17 784.837 3439.88 780.448 3451.95C775.51 3464.57 769.2 3475 761.244 3483.5C753.013 3492.28 743.137 3499.14 732.163 3503.53C720.366 3508.19 708.295 3510.39 695.675 3510.39C683.056 3510.39 670.71 3508.19 659.188 3503.53C648.214 3499.14 638.337 3492.28 630.107 3483.23C621.877 3474.72 615.567 3464.3 610.903 3451.68C606.239 3439.61 604.044 3425.89 604.044 3410.53ZM657.542 3409.98V3410.53C657.542 3426.17 660.834 3438.24 667.418 3447.02C674.002 3455.79 683.33 3460.18 695.401 3460.18C707.747 3460.18 717.349 3455.79 723.933 3447.02C730.517 3438.24 733.809 3426.17 733.809 3410.53C733.809 3395.16 730.517 3382.82 723.933 3374.04C717.349 3365.26 707.747 3360.87 695.401 3360.87C683.33 3360.87 674.002 3365.26 667.418 3373.77C660.834 3382.27 657.542 3394.34 657.542 3409.98ZM922.151 3313.96H973.179L971.808 3506.55H924.895L897.734 3465.12L885.115 3446.19C879.902 3438.51 875.513 3432.2 872.22 3426.71C869.477 3422.87 866.185 3417.66 862.344 3411.63L858.229 3405.59H857.955L858.229 3410.8C858.229 3412.17 858.503 3414.64 858.503 3418.21C858.503 3421.78 858.778 3424.25 858.778 3425.89C858.778 3432.48 859.052 3440.16 859.601 3449.49C859.601 3455.52 859.875 3465.67 859.875 3479.94V3506H808.572V3314.23H855.485L885.115 3359.23C885.938 3360.87 887.584 3363.34 890.053 3366.63C892.248 3369.93 894.168 3372.67 895.54 3374.31C901.027 3382.54 904.867 3388.31 907.611 3392.15C910.354 3396.54 913.921 3401.47 918.036 3406.96L922.425 3413.27H922.7V3407.51V3391.87C922.7 3382.54 922.425 3374.86 922.425 3369.1C922.151 3363.62 922.151 3354.56 922.151 3341.94V3313.96ZM1085.74 3394.89H1171.88L1170.24 3506H1126.62C1126.62 3500.51 1126.62 3496.95 1126.89 3495.85C1126.89 3494.75 1127.16 3493.93 1127.16 3493.11H1126.62C1121.68 3498.59 1115.37 3502.43 1107.69 3505.18C1099.45 3507.92 1091.77 3509.02 1084.64 3509.02C1072.02 3509.02 1060.22 3506.82 1048.7 3502.16C1037.45 3497.5 1027.85 3490.91 1020.17 3482.41C1012.21 3474.18 1005.9 3463.75 1001.24 3451.13C996.576 3439.06 994.381 3425.34 994.381 3409.98C994.381 3394.62 996.576 3380.9 1001.24 3368.83C1005.9 3356.48 1012.21 3346.06 1020.44 3337.28C1028.67 3328.5 1038.55 3321.64 1049.52 3316.98C1061.05 3312.31 1073.12 3309.84 1086.01 3309.84C1103.84 3309.57 1120.03 3313.96 1134.3 3323.01C1148.56 3332.34 1159.54 3344.96 1167.22 3361.15L1115.92 3374.59C1112.07 3369.65 1107.69 3366.08 1102.47 3363.89C1096.99 3361.69 1091.5 3360.6 1086.56 3360.6C1074.22 3360.6 1064.89 3364.99 1058.3 3373.77C1051.72 3382.54 1048.43 3394.62 1048.43 3409.98C1048.43 3425.89 1052.27 3438.24 1059.95 3447.02C1067.63 3455.79 1077.78 3460.18 1090.4 3460.18C1101.38 3460.18 1109.61 3457.99 1115.37 3453.05C1120.58 3448.66 1124.42 3442.9 1127.16 3436.04H1085.74V3394.89ZM1421.76 3361.42L1370.46 3374.86L1369.36 3374.31C1365.52 3369.38 1361.13 3365.81 1355.92 3363.62C1350.43 3361.42 1344.94 3360.32 1340.01 3360.32C1327.66 3360.32 1318.33 3364.71 1312.02 3373.49C1305.44 3382.54 1302.42 3394.62 1302.42 3409.43C1302.42 3425.34 1305.99 3437.41 1313.12 3445.64C1320.25 3454.15 1329.58 3458.26 1341.1 3458.26C1347.69 3458.26 1354.27 3456.89 1360.58 3453.6C1366.62 3450.58 1371.28 3445.92 1374.3 3439.61L1425.05 3452.78C1421.21 3461.83 1416.82 3469.79 1411.61 3476.65C1405.85 3484.05 1399.54 3490.09 1392.41 3494.75C1384.72 3499.96 1376.49 3503.81 1368.26 3506C1359.48 3508.74 1350.16 3510.12 1340.83 3510.12C1328.21 3510.12 1315.86 3507.92 1304.34 3503.26C1293.37 3498.87 1283.49 3492.01 1275.26 3482.96C1267.03 3474.45 1260.72 3464.03 1256.06 3451.41C1251.39 3439.33 1249.2 3425.62 1249.2 3410.25C1249.2 3394.89 1251.39 3381.17 1256.06 3369.1C1260.72 3356.76 1267.03 3346.33 1275.26 3337.55C1283.49 3328.77 1293.37 3321.91 1304.34 3317.25C1315.86 3312.59 1327.93 3310.12 1340.83 3310.12C1359.21 3310.12 1375.4 3314.78 1389.39 3323.56C1403.11 3332.61 1414.08 3345.23 1421.76 3361.42ZM1435.01 3410.53V3411.08C1435.01 3395.71 1437.2 3382 1441.87 3369.93C1446.53 3357.58 1452.84 3347.15 1461.07 3338.38C1469.3 3329.6 1479.18 3322.74 1490.15 3318.07C1501.67 3313.41 1513.75 3310.94 1526.64 3310.94C1539.26 3310.94 1551.6 3313.41 1563.13 3318.07C1574.1 3322.74 1583.98 3329.32 1592.21 3338.1C1600.16 3346.88 1606.47 3357.31 1611.41 3369.65C1615.8 3381.72 1618.27 3395.44 1618.27 3410.8C1618.27 3426.17 1615.8 3439.88 1611.41 3451.95C1606.47 3464.57 1600.16 3475 1592.21 3483.5C1583.98 3492.28 1574.1 3499.14 1563.13 3503.53C1551.33 3508.19 1539.26 3510.39 1526.64 3510.39C1514.02 3510.39 1501.67 3508.19 1490.15 3503.53C1479.18 3499.14 1469.3 3492.28 1461.07 3483.23C1452.84 3474.72 1446.53 3464.3 1441.87 3451.68C1437.2 3439.61 1435.01 3425.89 1435.01 3410.53ZM1488.51 3409.98V3410.53C1488.51 3426.17 1491.8 3438.24 1498.38 3447.02C1504.97 3455.79 1514.29 3460.18 1526.37 3460.18C1538.71 3460.18 1548.31 3455.79 1554.9 3447.02C1561.48 3438.24 1564.77 3426.17 1564.77 3410.53C1564.77 3395.16 1561.48 3382.82 1554.9 3374.04C1548.31 3365.26 1538.71 3360.87 1526.37 3360.87C1514.29 3360.87 1504.97 3365.26 1498.38 3373.77C1491.8 3382.27 1488.51 3394.34 1488.51 3409.98ZM1754.49 3506L1747.08 3481.58H1682.88L1675.48 3506H1620.88L1688.37 3314.23H1741.87L1809.08 3506H1754.49ZM1696.05 3435.22H1732.81L1723.49 3402.57L1720.19 3391.87C1719.65 3390.78 1719.1 3388.85 1718.55 3386.66C1718 3384.47 1717.45 3383.09 1717.45 3382.27C1717.18 3381.72 1716.9 3380.62 1716.35 3378.98C1715.8 3377.33 1715.53 3376.24 1715.53 3375.69L1714.98 3372.94H1714.43L1713.88 3375.41C1713.61 3375.96 1713.34 3377.06 1712.79 3378.7C1712.24 3380.35 1711.96 3381.45 1711.96 3382C1711.69 3382.82 1711.14 3384.19 1710.59 3386.39C1710.04 3388.58 1709.49 3390.5 1709.22 3391.6L1705.93 3402.3L1696.05 3435.22ZM1957.68 3363.07L1908.84 3376.51H1907.2C1904.45 3368.83 1900.61 3363.34 1895.68 3360.05C1890.46 3356.76 1885.25 3355.11 1880.04 3355.11C1875.37 3355.11 1871.81 3356.21 1869.34 3358.13C1866.87 3360.05 1865.77 3362.24 1865.77 3364.71C1865.77 3367.46 1866.6 3369.65 1868.52 3371.3C1870.44 3373.49 1872.91 3375.41 1876.2 3377.06C1879.22 3378.98 1883.33 3380.9 1888.27 3382.82C1889.91 3383.64 1892.38 3384.74 1895.95 3386.39C1899.24 3388.03 1901.99 3389.4 1903.91 3389.95C1912.69 3394.07 1919 3397.36 1923.38 3399.55C1929.97 3403.4 1935.73 3407.51 1940.67 3412.17C1945.61 3417.11 1950 3422.87 1953.29 3428.91C1956.58 3435.49 1958.23 3442.63 1958.23 3450.31C1958.23 3459.09 1956.31 3467.04 1953.01 3474.18C1949.45 3481.58 1944.51 3487.89 1938.2 3493.38C1932.16 3498.87 1924.48 3502.98 1915.43 3506C1906.65 3508.74 1896.77 3510.12 1886.07 3510.12C1875.92 3510.12 1866.6 3508.74 1858.09 3506C1849.86 3503.81 1842.45 3499.69 1835.59 3494.2C1829.01 3489.26 1823.25 3482.96 1818.31 3475.55C1813.37 3468.69 1809.53 3460.73 1806.51 3451.68L1855.62 3438.51C1856.99 3442.08 1858.64 3445.37 1860.56 3448.11C1862.21 3450.86 1864.67 3453.6 1867.69 3456.34C1870.44 3459.09 1873.45 3461.01 1877.02 3462.1C1880.86 3463.75 1884.7 3464.3 1888.54 3464.3C1894.03 3464.3 1898.42 3463.2 1901.16 3461.01C1903.91 3458.81 1905.28 3456.07 1905.28 3452.78C1905.28 3450.03 1904.18 3447.56 1902.26 3445.37C1900.07 3443.45 1897.32 3441.53 1893.76 3439.61C1889.64 3437.69 1885.25 3435.77 1880.31 3433.85C1876.47 3432.75 1870.98 3430.28 1863.58 3426.71C1859.19 3424.79 1853.15 3421.5 1845.2 3417.11C1839.44 3414.09 1834.22 3409.98 1829.28 3405.04C1824.62 3400.65 1821.05 3395.16 1818.31 3389.13C1815.57 3383.09 1814.2 3375.96 1814.2 3367.46C1814.2 3360.87 1815.84 3354.01 1819.13 3346.88C1822.43 3340.3 1827.09 3333.99 1833.13 3328.5C1839.16 3323.01 1846.29 3318.62 1855.07 3315.33C1863.3 3312.04 1872.91 3310.39 1883.6 3310.39C1892.66 3310.39 1901.16 3311.76 1909.12 3314.51C1917.35 3317.25 1924.48 3321.09 1930.52 3325.48C1936.83 3330.42 1942.31 3335.91 1946.98 3342.22C1951.64 3348.8 1955.21 3355.93 1957.68 3363.07ZM1960.92 3313.96H2115.93V3362.79H2063.8V3506H2012.22V3362.79H1960.92V3313.96ZM2267.67 3363.07L2218.83 3376.51H2217.19C2214.44 3368.83 2210.6 3363.34 2205.66 3360.05C2200.45 3356.76 2195.24 3355.11 2190.03 3355.11C2185.36 3355.11 2181.8 3356.21 2179.33 3358.13C2176.86 3360.05 2175.76 3362.24 2175.76 3364.71C2175.76 3367.46 2176.58 3369.65 2178.5 3371.3C2180.42 3373.49 2182.89 3375.41 2186.19 3377.06C2189.2 3378.98 2193.32 3380.9 2198.26 3382.82C2199.9 3383.64 2202.37 3384.74 2205.94 3386.39C2209.23 3388.03 2211.97 3389.4 2213.89 3389.95C2222.67 3394.07 2228.98 3397.36 2233.37 3399.55C2239.96 3403.4 2245.72 3407.51 2250.66 3412.17C2255.59 3417.11 2259.98 3422.87 2263.28 3428.91C2266.57 3435.49 2268.21 3442.63 2268.21 3450.31C2268.21 3459.09 2266.29 3467.04 2263 3474.18C2259.44 3481.58 2254.5 3487.89 2248.19 3493.38C2242.15 3498.87 2234.47 3502.98 2225.42 3506C2216.64 3508.74 2206.76 3510.12 2196.06 3510.12C2185.91 3510.12 2176.58 3508.74 2168.08 3506C2159.85 3503.81 2152.44 3499.69 2145.58 3494.2C2139 3489.26 2133.24 3482.96 2128.3 3475.55C2123.36 3468.69 2119.52 3460.73 2116.5 3451.68L2165.61 3438.51C2166.98 3442.08 2168.63 3445.37 2170.55 3448.11C2172.19 3450.86 2174.66 3453.6 2177.68 3456.34C2180.42 3459.09 2183.44 3461.01 2187.01 3462.1C2190.85 3463.75 2194.69 3464.3 2198.53 3464.3C2204.02 3464.3 2208.41 3463.2 2211.15 3461.01C2213.89 3458.81 2215.27 3456.07 2215.27 3452.78C2215.27 3450.03 2214.17 3447.56 2212.25 3445.37C2210.05 3443.45 2207.31 3441.53 2203.74 3439.61C2199.63 3437.69 2195.24 3435.77 2190.3 3433.85C2186.46 3432.75 2180.97 3430.28 2173.57 3426.71C2169.18 3424.79 2163.14 3421.5 2155.18 3417.11C2149.42 3414.09 2144.21 3409.98 2139.27 3405.04C2134.61 3400.65 2131.04 3395.16 2128.3 3389.13C2125.56 3383.09 2124.18 3375.96 2124.18 3367.46C2124.18 3360.87 2125.83 3354.01 2129.12 3346.88C2132.41 3340.3 2137.08 3333.99 2143.11 3328.5C2149.15 3323.01 2156.28 3318.62 2165.06 3315.33C2173.29 3312.04 2182.89 3310.39 2193.59 3310.39C2202.65 3310.39 2211.15 3311.76 2219.11 3314.51C2227.34 3317.25 2234.47 3321.09 2240.51 3325.48C2246.82 3330.42 2252.3 3335.91 2256.97 3342.22C2261.63 3348.8 2265.2 3355.93 2267.67 3363.07Z"
        fill="white" />
</svg>
    