<svg width="4096" height="4096" viewBox="0 0 4096 4096" fill="none" xmlns="http://www.w3.org/2000/svg">
<rect x="199" y="202" width="3690" height="3697" fill="#2971B7"/>
<rect x="310" y="361" width="3468" height="2727" fill="white"/>
<path d="M380.781 3434H329.204V3241.96H380.781V3434ZM609.964 3291.07L561.13 3304.51H559.484C556.741 3296.83 552.9 3291.34 547.962 3288.05C542.749 3284.76 537.537 3283.11 532.324 3283.11C527.66 3283.11 524.094 3284.21 521.625 3286.13C519.156 3288.05 518.058 3290.24 518.058 3292.71C518.058 3295.46 518.881 3297.65 520.802 3299.3C522.722 3301.49 525.191 3303.41 528.483 3305.06C531.501 3306.98 535.616 3308.9 540.554 3310.82C542.201 3311.64 544.67 3312.74 548.236 3314.39C551.528 3316.03 554.272 3317.4 556.192 3317.95C564.971 3322.07 571.281 3325.36 575.671 3327.55C582.255 3331.4 588.016 3335.51 592.954 3340.17C597.892 3345.11 602.282 3350.87 605.574 3356.91C608.866 3363.49 610.512 3370.63 610.512 3378.31C610.512 3387.09 608.592 3395.04 605.3 3402.18C601.733 3409.58 596.795 3415.89 590.485 3421.38C584.45 3426.87 576.768 3430.98 567.715 3434C558.936 3436.74 549.059 3438.12 538.36 3438.12C528.209 3438.12 518.881 3436.74 510.377 3434C502.146 3431.81 494.739 3427.69 487.88 3422.2C481.296 3417.26 475.535 3410.96 470.597 3403.55C465.658 3396.69 461.818 3388.73 458.8 3379.68L507.907 3366.51C509.279 3370.08 510.925 3373.37 512.846 3376.11C514.492 3378.86 516.961 3381.6 519.979 3384.34C522.722 3387.09 525.74 3389.01 529.306 3390.1C533.147 3391.75 536.988 3392.3 540.829 3392.3C546.316 3392.3 550.705 3391.2 553.449 3389.01C556.192 3386.81 557.564 3384.07 557.564 3380.78C557.564 3378.03 556.466 3375.56 554.546 3373.37C552.351 3371.45 549.608 3369.53 546.041 3367.61C541.926 3365.69 537.537 3363.77 532.598 3361.85C528.758 3360.75 523.271 3358.28 515.863 3354.71C511.474 3352.79 505.438 3349.5 497.482 3345.11C491.721 3342.09 486.509 3337.98 481.57 3333.04C476.907 3328.65 473.34 3323.16 470.597 3317.13C467.853 3311.09 466.481 3303.96 466.481 3295.46C466.481 3288.87 468.128 3282.01 471.42 3274.88C474.712 3268.3 479.376 3261.99 485.411 3256.5C491.447 3251.01 498.58 3246.62 507.359 3243.33C515.589 3240.04 525.191 3238.39 535.891 3238.39C544.944 3238.39 553.449 3239.76 561.405 3242.51C569.635 3245.25 576.768 3249.09 582.804 3253.48C589.113 3258.42 594.6 3263.91 599.264 3270.22C603.928 3276.8 607.495 3283.93 609.964 3291.07ZM739.405 3241.96H790.982L792.079 3350.87C792.079 3364.32 790.159 3376.66 786.318 3387.91C782.477 3398.61 776.99 3407.66 769.857 3415.07C762.724 3422.48 753.945 3427.96 744.069 3431.81C733.644 3435.65 722.396 3437.29 710.324 3437.29C698.253 3437.29 687.005 3435.65 676.58 3431.81C666.704 3428.24 657.925 3422.48 650.792 3414.8C643.659 3407.66 638.172 3398.61 634.331 3387.64C630.49 3376.94 628.57 3364.59 628.57 3350.87V3241.96H680.147V3350.6C680.147 3364.32 682.616 3374.19 687.554 3380.23C692.492 3386.26 699.899 3389.28 709.776 3389.28C719.652 3389.28 727.059 3386.26 731.998 3380.23C736.936 3374.19 739.405 3364.32 739.405 3350.6V3241.96ZM821.385 3242.23H894.36V3242.78C905.883 3242.78 916.034 3244.43 924.813 3247.17C933.592 3250.46 941.273 3254.85 947.858 3260.34C954.168 3266.38 959.106 3273.23 962.398 3281.46C965.69 3289.69 967.336 3299.02 967.336 3309.45C967.336 3319.87 965.69 3329.2 962.398 3337.43C959.106 3345.66 954.168 3352.79 947.858 3358.56C941.273 3364.32 933.592 3368.71 924.813 3371.72C916.034 3374.74 905.883 3376.11 894.36 3376.11H872.962V3434H821.385V3242.23ZM872.962 3327.55H893.263V3327.83C899.299 3327.83 904.237 3326.18 908.078 3322.89C911.644 3319.6 913.565 3314.93 913.565 3308.9C913.565 3303.14 911.644 3298.47 908.352 3295.18C904.785 3291.89 899.847 3290.24 893.263 3290.24H872.962V3327.55ZM987.899 3242.23H1060.87V3242.78C1072.4 3242.78 1082.55 3244.43 1091.33 3247.17C1100.11 3250.46 1107.79 3254.85 1114.37 3260.34C1120.68 3266.38 1125.62 3273.23 1128.91 3281.46C1132.2 3289.69 1133.85 3299.02 1133.85 3309.45C1133.85 3319.87 1132.2 3329.2 1128.91 3337.43C1125.62 3345.66 1120.68 3352.79 1114.37 3358.56C1107.79 3364.32 1100.11 3368.71 1091.33 3371.72C1082.55 3374.74 1072.4 3376.11 1060.87 3376.11H1039.48V3434H987.899V3242.23ZM1039.48 3327.55H1059.78V3327.83C1065.81 3327.83 1070.75 3326.18 1074.59 3322.89C1078.16 3319.6 1080.08 3314.93 1080.08 3308.9C1080.08 3303.14 1078.16 3298.47 1074.87 3295.18C1071.3 3291.89 1066.36 3290.24 1059.78 3290.24H1039.48V3327.55ZM1143.71 3338.53V3339.08C1143.71 3323.71 1145.91 3310 1150.57 3297.93C1155.24 3285.58 1161.55 3275.15 1169.78 3266.38C1178.01 3257.6 1187.88 3250.74 1198.86 3246.07C1210.38 3241.41 1222.45 3238.94 1235.35 3238.94C1247.96 3238.94 1260.31 3241.41 1271.83 3246.07C1282.81 3250.74 1292.68 3257.32 1300.91 3266.1C1308.87 3274.88 1315.18 3285.31 1320.12 3297.65C1324.51 3309.72 1326.98 3323.44 1326.98 3338.8C1326.98 3354.17 1324.51 3367.88 1320.12 3379.95C1315.18 3392.57 1308.87 3403 1300.91 3411.5C1292.68 3420.28 1282.81 3427.14 1271.83 3431.53C1260.04 3436.19 1247.96 3438.39 1235.35 3438.39C1222.73 3438.39 1210.38 3436.19 1198.86 3431.53C1187.88 3427.14 1178.01 3420.28 1169.78 3411.23C1161.55 3402.72 1155.24 3392.3 1150.57 3379.68C1145.91 3367.61 1143.71 3353.89 1143.71 3338.53ZM1197.21 3337.98V3338.53C1197.21 3354.17 1200.5 3366.24 1207.09 3375.02C1213.67 3383.79 1223 3388.18 1235.07 3388.18C1247.42 3388.18 1257.02 3383.79 1263.6 3375.02C1270.19 3366.24 1273.48 3354.17 1273.48 3338.53C1273.48 3323.16 1270.19 3310.82 1263.6 3302.04C1257.02 3293.26 1247.42 3288.87 1235.07 3288.87C1223 3288.87 1213.67 3293.26 1207.09 3301.77C1200.5 3310.27 1197.21 3322.34 1197.21 3337.98ZM1503.52 3434H1445.63L1414.36 3373.1H1399.82V3433.45H1348.24V3241.41H1420.39C1431.37 3241.41 1441.79 3243.06 1451.12 3246.35C1460.45 3249.64 1468.4 3254.3 1474.99 3260.34C1481.57 3266.65 1486.79 3273.78 1490.35 3281.74C1493.92 3290.24 1495.84 3299.3 1495.84 3309.17C1495.84 3322.07 1492.82 3333.04 1487.33 3342.09C1481.57 3351.42 1473.89 3358.83 1464.02 3363.77L1503.52 3434ZM1400.37 3290.24V3327.83H1426.16C1428.9 3327.83 1431.64 3327.28 1433.84 3326.18C1435.76 3325.36 1437.4 3323.71 1439.05 3321.52C1440.15 3319.87 1441.24 3317.68 1441.79 3315.48C1442.34 3313.29 1442.62 3311.37 1442.62 3309.17C1442.62 3307.25 1442.34 3305.06 1441.79 3302.86C1441.24 3300.39 1440.15 3298.2 1439.05 3296.55C1437.4 3294.36 1435.76 3292.99 1433.84 3291.89C1431.64 3290.79 1428.9 3290.24 1426.16 3290.24H1400.37ZM1506.06 3241.96H1661.06V3290.79H1608.94V3434H1557.36V3290.79H1506.06V3241.96ZM1726.18 3338.53V3339.08C1726.18 3323.71 1728.38 3310 1733.04 3297.93C1737.7 3285.58 1744.01 3275.15 1752.24 3266.38C1760.47 3257.6 1770.35 3250.74 1781.32 3246.07C1792.85 3241.41 1804.92 3238.94 1817.81 3238.94C1830.43 3238.94 1842.78 3241.41 1854.3 3246.07C1865.27 3250.74 1875.15 3257.32 1883.38 3266.1C1891.34 3274.88 1897.65 3285.31 1902.59 3297.65C1906.97 3309.72 1909.44 3323.44 1909.44 3338.8C1909.44 3354.17 1906.97 3367.88 1902.59 3379.95C1897.65 3392.57 1891.34 3403 1883.38 3411.5C1875.15 3420.28 1865.27 3427.14 1854.3 3431.53C1842.5 3436.19 1830.43 3438.39 1817.81 3438.39C1805.19 3438.39 1792.85 3436.19 1781.32 3431.53C1770.35 3427.14 1760.47 3420.28 1752.24 3411.23C1744.01 3402.72 1737.7 3392.3 1733.04 3379.68C1728.38 3367.61 1726.18 3353.89 1726.18 3338.53ZM1779.68 3337.98V3338.53C1779.68 3354.17 1782.97 3366.24 1789.56 3375.02C1796.14 3383.79 1805.47 3388.18 1817.54 3388.18C1829.88 3388.18 1839.49 3383.79 1846.07 3375.02C1852.65 3366.24 1855.95 3354.17 1855.95 3338.53C1855.95 3323.16 1852.65 3310.82 1846.07 3302.04C1839.49 3293.26 1829.88 3288.87 1817.54 3288.87C1805.47 3288.87 1796.14 3293.26 1789.56 3301.77C1782.97 3310.27 1779.68 3322.34 1779.68 3337.98ZM2040.17 3241.96H2091.75L2092.85 3350.87C2092.85 3364.32 2090.93 3376.66 2087.09 3387.91C2083.25 3398.61 2077.76 3407.66 2070.63 3415.07C2063.49 3422.48 2054.71 3427.96 2044.84 3431.81C2034.41 3435.65 2023.16 3437.29 2011.09 3437.29C1999.02 3437.29 1987.77 3435.65 1977.35 3431.81C1967.47 3428.24 1958.69 3422.48 1951.56 3414.8C1944.43 3407.66 1938.94 3398.61 1935.1 3387.64C1931.26 3376.94 1929.34 3364.59 1929.34 3350.87V3241.96H1980.91V3350.6C1980.91 3364.32 1983.38 3374.19 1988.32 3380.23C1993.26 3386.26 2000.67 3389.28 2010.54 3389.28C2020.42 3389.28 2027.83 3386.26 2032.77 3380.23C2037.7 3374.19 2040.17 3364.32 2040.17 3350.6V3241.96ZM2276.88 3434H2219L2187.72 3373.1H2173.18V3433.45H2121.6V3241.41H2193.76C2204.73 3241.41 2215.16 3243.06 2224.48 3246.35C2233.81 3249.64 2241.77 3254.3 2248.35 3260.34C2254.94 3266.65 2260.15 3273.78 2263.71 3281.74C2267.28 3290.24 2269.2 3299.3 2269.2 3309.17C2269.2 3322.07 2266.18 3333.04 2260.7 3342.09C2254.94 3351.42 2247.25 3358.83 2237.38 3363.77L2276.88 3434ZM2173.73 3290.24V3327.83H2199.52C2202.26 3327.83 2205.01 3327.28 2207.2 3326.18C2209.12 3325.36 2210.77 3323.71 2212.41 3321.52C2213.51 3319.87 2214.61 3317.68 2215.16 3315.48C2215.7 3313.29 2215.98 3311.37 2215.98 3309.17C2215.98 3307.25 2215.7 3305.06 2215.16 3302.86C2214.61 3300.39 2213.51 3298.2 2212.41 3296.55C2210.77 3294.36 2209.12 3292.99 2207.2 3291.89C2205.01 3290.79 2202.26 3290.24 2199.52 3290.24H2173.73ZM490.793 3563.42L439.491 3576.86L438.393 3576.31C434.552 3571.38 430.163 3567.81 424.95 3565.62C419.463 3563.42 413.977 3562.32 409.038 3562.32C396.693 3562.32 387.365 3566.71 381.055 3575.49C374.471 3584.54 371.453 3596.62 371.453 3611.43C371.453 3627.34 375.02 3639.41 382.153 3647.64C389.286 3656.15 398.613 3660.26 410.136 3660.26C416.72 3660.26 423.304 3658.89 429.614 3655.6C435.65 3652.58 440.314 3647.92 443.331 3641.61L494.085 3654.78C490.244 3663.83 485.855 3671.79 480.642 3678.65C474.881 3686.05 468.571 3692.09 461.438 3696.75C453.757 3701.96 445.526 3705.81 437.296 3708C428.517 3710.74 419.189 3712.12 409.861 3712.12C397.242 3712.12 384.896 3709.92 373.374 3705.26C362.4 3700.87 352.523 3694.01 344.293 3684.96C336.063 3676.45 329.753 3666.03 325.089 3653.41C320.425 3641.33 318.23 3627.62 318.23 3612.25C318.23 3596.89 320.425 3583.17 325.089 3571.1C329.753 3558.76 336.063 3548.33 344.293 3539.55C352.523 3530.77 362.4 3523.91 373.374 3519.25C384.896 3514.59 396.967 3512.12 409.861 3512.12C428.243 3512.12 444.429 3516.78 458.42 3525.56C472.138 3534.61 483.111 3547.23 490.793 3563.42ZM504.041 3612.53V3613.08C504.041 3597.71 506.236 3584 510.9 3571.93C515.563 3559.58 521.873 3549.15 530.104 3540.38C538.334 3531.6 548.21 3524.74 559.184 3520.07C570.707 3515.41 582.778 3512.94 595.672 3512.94C608.292 3512.94 620.637 3515.41 632.16 3520.07C643.134 3524.74 653.01 3531.32 661.24 3540.1C669.196 3548.88 675.506 3559.31 680.444 3571.65C684.834 3583.72 687.303 3597.44 687.303 3612.8C687.303 3628.17 684.834 3641.88 680.444 3653.95C675.506 3666.57 669.196 3677 661.24 3685.5C653.01 3694.28 643.134 3701.14 632.16 3705.53C620.363 3710.19 608.292 3712.39 595.672 3712.39C583.052 3712.39 570.707 3710.19 559.184 3705.53C548.21 3701.14 538.334 3694.28 530.104 3685.23C521.873 3676.72 515.563 3666.3 510.9 3653.68C506.236 3641.61 504.041 3627.89 504.041 3612.53ZM557.538 3611.98V3612.53C557.538 3628.17 560.83 3640.24 567.415 3649.02C573.999 3657.79 583.327 3662.18 595.398 3662.18C607.743 3662.18 617.345 3657.79 623.93 3649.02C630.514 3640.24 633.806 3628.17 633.806 3612.53C633.806 3597.16 630.514 3584.82 623.93 3576.04C617.345 3567.26 607.743 3562.87 595.398 3562.87C583.327 3562.87 573.999 3567.26 567.415 3575.77C560.83 3584.27 557.538 3596.34 557.538 3611.98ZM823.519 3708L816.112 3683.58H751.916L744.508 3708H689.914L757.402 3516.23H810.9L878.114 3708H823.519ZM765.084 3637.22H801.846L792.519 3604.57L789.226 3593.87C788.678 3592.78 788.129 3590.85 787.58 3588.66C787.032 3586.47 786.483 3585.09 786.483 3584.27C786.209 3583.72 785.934 3582.62 785.386 3580.98C784.837 3579.33 784.563 3578.24 784.563 3577.69L784.014 3574.94H783.465L782.916 3577.41C782.642 3577.96 782.368 3579.06 781.819 3580.7C781.27 3582.35 780.996 3583.45 780.996 3584C780.722 3584.82 780.173 3586.19 779.624 3588.39C779.076 3590.58 778.527 3592.5 778.253 3593.6L774.96 3604.3L765.084 3637.22ZM1026.71 3565.07L977.877 3578.51H976.231C973.487 3570.83 969.647 3565.34 964.708 3562.05C959.496 3558.76 954.283 3557.11 949.071 3557.11C944.407 3557.11 940.84 3558.21 938.371 3560.13C935.902 3562.05 934.805 3564.24 934.805 3566.71C934.805 3569.46 935.628 3571.65 937.548 3573.3C939.469 3575.49 941.938 3577.41 945.23 3579.06C948.248 3580.98 952.363 3582.9 957.301 3584.82C958.947 3585.64 961.416 3586.74 964.983 3588.39C968.275 3590.03 971.018 3591.4 972.939 3591.95C981.718 3596.07 988.028 3599.36 992.417 3601.55C999.001 3605.4 1004.76 3609.51 1009.7 3614.17C1014.64 3619.11 1019.03 3624.87 1022.32 3630.91C1025.61 3637.49 1027.26 3644.63 1027.26 3652.31C1027.26 3661.09 1025.34 3669.04 1022.05 3676.18C1018.48 3683.58 1013.54 3689.89 1007.23 3695.38C1001.2 3700.87 993.514 3704.98 984.461 3708C975.682 3710.74 965.806 3712.12 955.106 3712.12C944.956 3712.12 935.628 3710.74 927.123 3708C918.893 3705.81 911.485 3701.69 904.627 3696.2C898.043 3691.26 892.281 3684.96 887.343 3677.55C882.405 3670.69 878.564 3662.73 875.546 3653.68L924.654 3640.51C926.026 3644.08 927.672 3647.37 929.592 3650.11C931.238 3652.86 933.707 3655.6 936.725 3658.34C939.469 3661.09 942.486 3663.01 946.053 3664.1C949.894 3665.75 953.735 3666.3 957.575 3666.3C963.062 3666.3 967.452 3665.2 970.195 3663.01C972.939 3660.81 974.31 3658.07 974.31 3654.78C974.31 3652.03 973.213 3649.56 971.293 3647.37C969.098 3645.45 966.354 3643.53 962.788 3641.61C958.673 3639.69 954.283 3637.77 949.345 3635.85C945.504 3634.75 940.017 3632.28 932.61 3628.71C928.22 3626.79 922.185 3623.5 914.229 3619.11C908.468 3616.09 903.255 3611.98 898.317 3607.04C893.653 3602.65 890.087 3597.16 887.343 3591.13C884.6 3585.09 883.228 3577.96 883.228 3569.46C883.228 3562.87 884.874 3556.01 888.166 3548.88C891.458 3542.3 896.122 3535.99 902.158 3530.5C908.193 3525.01 915.326 3520.62 924.105 3517.33C932.336 3514.04 941.938 3512.39 952.637 3512.39C961.691 3512.39 970.195 3513.76 978.151 3516.51C986.382 3519.25 993.514 3523.09 999.55 3527.48C1005.86 3532.42 1011.35 3537.91 1016.01 3544.22C1020.67 3550.8 1024.24 3557.93 1026.71 3565.07ZM1029.95 3515.96H1184.96V3564.79H1132.83V3708H1081.26V3564.79H1029.95V3515.96ZM1315.02 3708L1307.62 3683.58H1243.42L1236.01 3708H1181.42L1248.91 3516.23H1302.41L1369.62 3708H1315.02ZM1256.59 3637.22H1293.35L1284.02 3604.57L1280.73 3593.87C1280.18 3592.78 1279.63 3590.85 1279.09 3588.66C1278.54 3586.47 1277.99 3585.09 1277.99 3584.27C1277.71 3583.72 1277.44 3582.62 1276.89 3580.98C1276.34 3579.33 1276.07 3578.24 1276.07 3577.69L1275.52 3574.94H1274.97L1274.42 3577.41C1274.15 3577.96 1273.87 3579.06 1273.32 3580.7C1272.78 3582.35 1272.5 3583.45 1272.5 3584C1272.23 3584.82 1271.68 3586.19 1271.13 3588.39C1270.58 3590.58 1270.03 3592.5 1269.76 3593.6L1266.47 3604.3L1256.59 3637.22ZM1433.72 3659.17H1514.1V3708H1382.14V3515.96H1433.72V3659.17ZM1724.4 3564.79H1645.11V3595.24H1705.74V3642.16H1645.11V3708H1593.54V3515.96H1724.4V3564.79ZM1855.84 3515.96H1907.41L1908.51 3624.87C1908.51 3638.32 1906.59 3650.66 1902.75 3661.91C1898.91 3672.61 1893.42 3681.66 1886.29 3689.07C1879.16 3696.48 1870.38 3701.96 1860.5 3705.81C1850.08 3709.65 1838.83 3711.29 1826.76 3711.29C1814.69 3711.29 1803.44 3709.65 1793.01 3705.81C1783.14 3702.24 1774.36 3696.48 1767.22 3688.8C1760.09 3681.66 1754.6 3672.61 1750.76 3661.64C1746.92 3650.94 1745 3638.59 1745 3624.87V3515.96H1796.58V3624.6C1796.58 3638.32 1799.05 3648.19 1803.99 3654.23C1808.92 3660.26 1816.33 3663.28 1826.21 3663.28C1836.08 3663.28 1843.49 3660.26 1848.43 3654.23C1853.37 3648.19 1855.84 3638.32 1855.84 3624.6V3515.96ZM1920.53 3515.96H2075.54V3564.79H2023.41V3708H1971.84V3564.79H1920.53V3515.96ZM2200.12 3515.96H2251.7L2252.79 3624.87C2252.79 3638.32 2250.87 3650.66 2247.03 3661.91C2243.19 3672.61 2237.7 3681.66 2230.57 3689.07C2223.44 3696.48 2214.66 3701.96 2204.78 3705.81C2194.36 3709.65 2183.11 3711.29 2171.04 3711.29C2158.97 3711.29 2147.72 3709.65 2137.29 3705.81C2127.42 3702.24 2118.64 3696.48 2111.51 3688.8C2104.37 3681.66 2098.89 3672.61 2095.04 3661.64C2091.2 3650.94 2089.28 3638.59 2089.28 3624.87V3515.96H2140.86V3624.6C2140.86 3638.32 2143.33 3648.19 2148.27 3654.23C2153.21 3660.26 2160.61 3663.28 2170.49 3663.28C2180.37 3663.28 2187.77 3660.26 2192.71 3654.23C2197.65 3648.19 2200.12 3638.32 2200.12 3624.6V3515.96ZM2436.83 3708H2378.94L2347.67 3647.1H2333.13V3707.45H2281.55V3515.41H2353.7C2364.68 3515.41 2375.1 3517.06 2384.43 3520.35C2393.76 3523.64 2401.71 3528.3 2408.3 3534.34C2414.88 3540.65 2420.09 3547.78 2423.66 3555.74C2427.23 3564.24 2429.15 3573.3 2429.15 3583.17C2429.15 3596.07 2426.13 3607.04 2420.64 3616.09C2414.88 3625.42 2407.2 3632.83 2397.32 3637.77L2436.83 3708ZM2333.67 3564.24V3601.83H2359.46C2362.21 3601.83 2364.95 3601.28 2367.14 3600.18C2369.07 3599.36 2370.71 3597.71 2372.36 3595.52C2373.45 3593.87 2374.55 3591.68 2375.1 3589.48C2375.65 3587.29 2375.92 3585.37 2375.92 3583.17C2375.92 3581.25 2375.65 3579.06 2375.1 3576.86C2374.55 3574.39 2373.45 3572.2 2372.36 3570.55C2370.71 3568.36 2369.07 3566.99 2367.14 3565.89C2364.95 3564.79 2362.21 3564.24 2359.46 3564.24H2333.67ZM2508.23 3659.17H2591.35V3708H2456.65V3515.96H2589.71V3564.79H2508.23V3588.93H2570.5V3634.75H2508.23V3659.17Z" fill="white"/>
</svg>
