<svg width="401" height="401" viewBox="0 0 401 401" fill="none" xmlns="http://www.w3.org/2000/svg">
<rect x="7.07456" y="7.41587" width="387.17" height="387.17" fill="white"/>
<rect x="7.07456" y="7.41587" width="387.17" height="387.17" stroke="#F7EBDF" stroke-width="12.8298"/>
<rect width="400" height="400" transform="translate(1 0.921875)" fill="#F7EBDF"/>
<rect width="368" height="52" transform="translate(17 10.9219)" fill="#728F3D"/>
<g filter="url(#filter0_d_456_1042)">
<path d="M132.553 23.0229V51H126.398V23.0229H132.553ZM159.955 29.8973L154.439 31.3761L154.479 31.5759C154.04 30.4568 153.52 29.5776 152.921 28.9781C152.321 28.3785 151.642 28.0588 150.882 28.0588C150.243 28.0588 149.763 28.2187 149.404 28.5784C149.044 28.9381 148.884 29.4177 148.884 30.0172C148.884 30.6167 149.284 31.2962 150.083 32.0156C150.882 32.735 152.161 33.6942 153.92 34.8932C154.599 35.3328 155.319 35.8125 156.038 36.372C156.758 36.9315 157.437 37.531 158.036 38.2105C158.636 38.8899 159.156 39.6493 159.555 40.5286C159.955 41.4079 160.155 42.3671 160.155 43.4462C160.155 44.5653 159.955 45.6044 159.555 46.6036C159.156 47.6028 158.596 48.4821 157.837 49.2414C157.077 50.0008 156.198 50.6003 155.159 51C154.12 51.3997 153.001 51.5995 151.762 51.5995C150.243 51.5995 148.924 51.3597 147.805 50.96C146.686 50.4804 145.767 49.841 145.007 49.0416C144.248 48.2423 143.648 47.363 143.209 46.3638C142.769 45.3646 142.449 44.3255 142.249 43.2464L148.005 41.6876C148.205 42.8867 148.644 43.8858 149.284 44.6852C149.923 45.4845 150.762 45.8842 151.762 45.8842C152.361 45.8842 152.881 45.6844 153.32 45.3247C153.76 44.9649 154 44.4454 154 43.7659C154 43.3263 153.92 42.9266 153.72 42.5669C153.52 42.2072 153.24 41.8475 152.881 41.5278C152.521 41.208 152.081 40.8483 151.562 40.4886C151.042 40.1289 150.483 39.7292 149.883 39.2896C148.844 38.5302 147.885 37.8108 147.006 37.1314C146.126 36.4519 145.367 35.7325 144.727 35.0131C144.088 34.2937 143.608 33.4944 143.249 32.655C142.889 31.8157 142.729 30.8166 142.729 29.6975C142.729 28.9381 142.889 28.1387 143.209 27.2994C143.528 26.4601 144.048 25.6608 144.727 24.9414C145.407 24.222 146.246 23.6224 147.285 23.1428C148.324 22.6632 149.563 22.4234 150.962 22.4234C152.081 22.4234 153.12 22.5833 154.08 22.943C155.039 23.3027 155.918 23.8223 156.678 24.5017C157.437 25.1812 158.116 25.9805 158.676 26.8998C159.235 27.819 159.675 28.8182 159.955 29.8973ZM174.594 41.4478V23.0229H180.749V41.0881C180.749 44.2855 179.99 46.8434 178.431 48.7219C176.872 50.6003 174.594 51.4796 171.557 51.4796C170.038 51.4796 168.719 51.2398 167.56 50.8401C166.401 50.3605 165.442 49.6411 164.682 48.7219C163.923 47.8026 163.363 46.6835 162.964 45.4046C162.564 44.1256 162.364 42.6868 162.364 41.0881V23.0229H168.519V41.4478C168.519 44.2855 169.518 45.6844 171.557 45.6844C173.595 45.6844 174.594 44.2855 174.594 41.4478ZM190.79 28.8981V36.1722H192.388H192.348C193.188 36.1722 193.867 35.8524 194.347 35.2529C194.826 34.6534 195.066 33.7342 195.066 32.5351C195.066 31.3361 194.826 30.4169 194.347 29.8174C193.867 29.2179 193.228 28.8981 192.388 28.8981H190.79ZM184.595 51V23.0229H192.548V23.1029C193.827 23.1029 194.986 23.3027 196.065 23.7423C197.144 24.182 198.064 24.8215 198.823 25.6208C199.582 26.4202 200.182 27.4193 200.622 28.6184C201.061 29.8174 201.261 31.1363 201.261 32.6151C201.261 34.0939 201.061 35.4128 200.622 36.5718C200.182 37.7309 199.582 38.7301 198.823 39.5294C198.064 40.3287 197.144 40.9682 196.065 41.4079C194.986 41.8475 193.827 42.0473 192.548 42.0473H190.75V51H184.595ZM209.466 28.8981V36.1722H211.065H211.025C211.865 36.1722 212.544 35.8524 213.024 35.2529C213.503 34.6534 213.743 33.7342 213.743 32.5351C213.743 31.3361 213.503 30.4169 213.024 29.8174C212.544 29.2179 211.904 28.8981 211.065 28.8981H209.466ZM203.272 51V23.0229H211.225V23.1029C212.504 23.1029 213.663 23.3027 214.742 23.7423C215.821 24.182 216.741 24.8215 217.5 25.6208C218.259 26.4202 218.859 27.4193 219.298 28.6184C219.738 29.8174 219.938 31.1363 219.938 32.6151C219.938 34.0939 219.738 35.4128 219.298 36.5718C218.859 37.7309 218.259 38.7301 217.5 39.5294C216.741 40.3287 215.821 40.9682 214.742 41.4079C213.663 41.8475 212.504 42.0473 211.225 42.0473H209.427V51H203.272ZM226.944 37.0115C226.944 38.5702 226.984 39.8891 227.104 40.9682C227.224 42.0473 227.384 42.9266 227.624 43.6061C227.864 44.2855 228.183 44.8051 228.583 45.1248C228.983 45.4446 229.462 45.6044 230.062 45.6044C230.661 45.6044 231.141 45.4446 231.541 45.1248C231.94 44.8051 232.26 44.2855 232.5 43.6061C232.74 42.9266 232.899 42.0473 233.019 40.9682C233.139 39.8891 233.179 38.5702 233.179 37.0115C233.179 35.4527 233.139 34.1338 233.019 33.0547C232.899 31.9756 232.74 31.0963 232.5 30.4169C232.26 29.7374 231.94 29.2179 231.541 28.8981C231.141 28.5784 230.661 28.4185 230.062 28.4185C229.462 28.4185 228.983 28.5784 228.583 28.8981C228.183 29.2179 227.864 29.7374 227.624 30.4169C227.384 31.0963 227.224 31.9756 227.104 33.0547C226.984 34.1338 226.944 35.4527 226.944 37.0115ZM220.709 37.0115V37.0914C220.709 32.0955 221.469 28.4185 222.988 26.0604C224.506 23.7024 226.864 22.5034 230.062 22.5034C233.259 22.5034 235.617 23.6624 237.136 26.0205C238.655 28.3785 239.414 32.0555 239.414 37.0514C239.414 42.0473 238.655 45.7243 237.136 48.0824C235.617 50.4405 233.259 51.5196 230.062 51.5196C226.864 51.5196 224.506 50.4005 222.988 48.0424C221.469 45.6844 220.709 42.0074 220.709 37.0115ZM250.302 28.8981H248.303V36.1722L250.342 36.1322C251.181 36.1322 251.86 35.8125 252.38 35.133C252.9 34.4536 253.179 33.5743 253.179 32.4952C253.179 31.3761 252.9 30.4968 252.34 29.8573C251.781 29.2179 251.101 28.8981 250.302 28.8981ZM255.338 40.2488L260.214 50.96H253.299L249.742 41.6477H248.343V50.9201H242.188V22.943H250.542C251.701 22.943 252.82 23.1828 253.899 23.6224C254.978 24.0621 255.937 24.7016 256.736 25.5409C257.536 26.3802 258.175 27.3794 258.655 28.5384C259.135 29.6975 259.374 31.0164 259.374 32.4552C259.374 34.2537 259.015 35.8125 258.255 37.1314C257.496 38.4503 256.537 39.4894 255.338 40.2488ZM260.31 29.058V23.0229H277.736V29.058H272.06V51H265.906V29.058H260.31Z" fill="white"/>
</g>
<rect width="368" height="51" transform="translate(17 339.922)" fill="#728F3D"/>
<g filter="url(#filter1_d_456_1042)">
<path d="M41.4407 364.847C41.4407 366.424 41.4811 367.758 41.6024 368.85C41.7238 369.942 41.8855 370.831 42.1281 371.519C42.3708 372.206 42.6943 372.732 43.0987 373.056C43.5031 373.379 43.9883 373.541 44.5949 373.541C45.2015 373.541 45.6867 373.379 46.0911 373.056C46.4955 372.732 46.819 372.206 47.0616 371.519C47.3043 370.831 47.466 369.942 47.5873 368.85C47.7087 367.758 47.7491 366.424 47.7491 364.847C47.7491 363.269 47.7087 361.935 47.5873 360.843C47.466 359.751 47.3043 358.862 47.0616 358.174C46.819 357.487 46.4955 356.961 46.0911 356.637C45.6867 356.314 45.2015 356.152 44.5949 356.152C43.9883 356.152 43.5031 356.314 43.0987 356.637C42.6943 356.961 42.3708 357.487 42.1281 358.174C41.8855 358.862 41.7238 359.751 41.6024 360.843C41.4811 361.935 41.4407 363.269 41.4407 364.847ZM35.1323 364.847V364.927C35.1323 359.873 35.9006 356.152 37.4373 353.766C38.9739 351.38 41.3598 350.167 44.5949 350.167C47.83 350.167 50.2158 351.34 51.7525 353.726C53.2892 356.112 54.0575 359.832 54.0575 364.887C54.0575 369.942 53.2892 373.662 51.7525 376.048C50.2158 378.434 47.83 379.526 44.5949 379.526C41.3598 379.526 38.9739 378.393 37.4373 376.008C35.9006 373.622 35.1323 369.901 35.1323 364.847ZM69.0769 369.335V350.693H75.3045V368.971C75.3045 372.206 74.5361 374.794 72.959 376.695C71.3819 378.596 69.0769 379.485 66.0036 379.485C64.4669 379.485 63.1325 379.243 61.9598 378.838C60.787 378.353 59.8165 377.625 59.0482 376.695C58.2799 375.765 57.7137 374.633 57.3093 373.339C56.9049 372.045 56.7028 370.589 56.7028 368.971V350.693H62.9303V369.335C62.9303 372.206 63.9412 373.622 66.0036 373.622C68.066 373.622 69.0769 372.206 69.0769 369.335ZM87.4853 356.637H85.4634V363.997L87.5258 363.957C88.375 363.957 89.0624 363.633 89.5881 362.946C90.1138 362.258 90.3969 361.369 90.3969 360.277C90.3969 359.145 90.1138 358.255 89.5477 357.608C88.9815 356.961 88.2941 356.637 87.4853 356.637ZM92.5806 368.122L97.5141 378.96H90.5182L86.9192 369.537H85.5038V378.919H79.2763V350.612H87.7279C88.9007 350.612 90.0329 350.855 91.1248 351.3C92.2166 351.744 93.1871 352.391 93.9959 353.241C94.8047 354.09 95.4517 355.101 95.937 356.274C96.4222 357.446 96.6649 358.781 96.6649 360.237C96.6649 362.056 96.3009 363.633 95.5326 364.968C94.7642 366.302 93.7937 367.354 92.5806 368.122ZM123.824 357.608L118.041 359.185L117.96 359.266C117.758 358.619 117.556 358.093 117.354 357.689C117.151 357.285 116.909 356.961 116.666 356.759C116.423 356.557 116.181 356.395 115.898 356.314C115.615 356.233 115.332 356.193 115.049 356.193C113.916 356.193 113.108 356.88 112.622 358.255C112.137 359.63 111.894 361.854 111.894 364.968C111.894 367.96 112.177 370.184 112.744 371.6C113.31 373.015 114.159 373.743 115.291 373.743C115.696 373.743 116.06 373.703 116.383 373.622C116.707 373.541 116.99 373.339 117.273 373.056C117.556 372.772 117.798 372.368 118.041 371.842C118.284 371.317 118.486 370.629 118.648 369.78L124.269 371.317C123.702 374.188 122.651 376.291 121.114 377.625C119.578 378.96 117.596 379.566 115.129 379.566C111.894 379.566 109.509 378.434 107.972 376.048C106.435 373.662 105.667 369.942 105.667 364.887C105.667 359.832 106.435 356.112 107.972 353.726C109.509 351.34 111.894 350.127 115.129 350.127C117.434 350.127 119.295 350.733 120.71 351.947C122.125 353.16 123.177 355.06 123.824 357.608ZM131.661 364.847C131.661 366.424 131.702 367.758 131.823 368.85C131.944 369.942 132.106 370.831 132.349 371.519C132.591 372.206 132.915 372.732 133.319 373.056C133.724 373.379 134.209 373.541 134.815 373.541C135.422 373.541 135.907 373.379 136.312 373.056C136.716 372.732 137.04 372.206 137.282 371.519C137.525 370.831 137.687 369.942 137.808 368.85C137.929 367.758 137.97 366.424 137.97 364.847C137.97 363.269 137.929 361.935 137.808 360.843C137.687 359.751 137.525 358.862 137.282 358.174C137.04 357.487 136.716 356.961 136.312 356.637C135.907 356.314 135.422 356.152 134.815 356.152C134.209 356.152 133.724 356.314 133.319 356.637C132.915 356.961 132.591 357.487 132.349 358.174C132.106 358.862 131.944 359.751 131.823 360.843C131.702 361.935 131.661 363.269 131.661 364.847ZM125.353 364.847V364.927C125.353 359.873 126.121 356.152 127.658 353.766C129.194 351.38 131.58 350.167 134.815 350.167C138.051 350.167 140.436 351.34 141.973 353.726C143.51 356.112 144.278 359.832 144.278 364.887C144.278 369.942 143.51 373.662 141.973 376.048C140.436 378.434 138.051 379.526 134.815 379.526C131.58 379.526 129.194 378.393 127.658 376.008C126.121 373.622 125.353 369.901 125.353 364.847ZM155.011 360.479L153.393 368.567H158.165L156.386 360.479C156.184 359.63 156.103 358.902 156.022 358.336C155.941 357.77 155.86 357.325 155.82 356.961C155.779 356.597 155.739 356.354 155.739 356.233V356.031H155.658V356.233C155.658 356.354 155.618 356.597 155.577 356.961C155.537 357.325 155.456 357.77 155.375 358.336C155.294 358.902 155.173 359.63 155.011 360.479ZM166.374 379H160.066L159.176 374.552H152.059L151.169 379H144.861L151.533 350.693H159.702L166.374 379ZM184.926 357.648L179.345 359.145L179.386 359.347C178.941 358.215 178.415 357.325 177.809 356.718C177.202 356.112 176.514 355.788 175.746 355.788C175.099 355.788 174.614 355.95 174.25 356.314C173.886 356.678 173.724 357.163 173.724 357.77C173.724 358.376 174.129 359.064 174.937 359.792C175.746 360.52 177.04 361.49 178.819 362.703C179.507 363.148 180.235 363.633 180.963 364.2C181.691 364.766 182.378 365.372 182.985 366.06C183.591 366.747 184.117 367.515 184.521 368.405C184.926 369.295 185.128 370.265 185.128 371.357C185.128 372.489 184.926 373.541 184.521 374.552C184.117 375.563 183.551 376.452 182.782 377.221C182.014 377.989 181.124 378.596 180.073 379C179.022 379.404 177.889 379.607 176.636 379.607C175.099 379.607 173.765 379.364 172.632 378.96C171.5 378.474 170.57 377.827 169.802 377.019C169.033 376.21 168.427 375.32 167.982 374.309C167.537 373.298 167.214 372.247 167.011 371.155L172.835 369.578C173.037 370.791 173.482 371.802 174.129 372.611C174.776 373.419 175.625 373.824 176.636 373.824C177.242 373.824 177.768 373.622 178.213 373.258C178.658 372.894 178.9 372.368 178.9 371.681C178.9 371.236 178.819 370.831 178.617 370.467C178.415 370.104 178.132 369.74 177.768 369.416C177.404 369.093 176.959 368.729 176.434 368.365C175.908 368.001 175.342 367.596 174.735 367.152C173.684 366.383 172.713 365.655 171.824 364.968C170.934 364.28 170.166 363.552 169.519 362.825C168.872 362.097 168.386 361.288 168.022 360.439C167.658 359.59 167.497 358.579 167.497 357.446C167.497 356.678 167.658 355.869 167.982 355.02C168.305 354.171 168.831 353.362 169.519 352.634C170.206 351.906 171.055 351.3 172.107 350.814C173.158 350.329 174.412 350.086 175.827 350.086C176.959 350.086 178.011 350.248 178.981 350.612C179.952 350.976 180.841 351.502 181.61 352.189C182.378 352.877 183.066 353.685 183.632 354.616C184.198 355.546 184.643 356.557 184.926 357.648ZM185.463 356.799V350.693H203.094V356.799H197.352V379H191.124V356.799H185.463ZM213.085 360.479L211.467 368.567H216.239L214.459 360.479C214.257 359.63 214.176 358.902 214.095 358.336C214.015 357.77 213.934 357.325 213.893 356.961C213.853 356.597 213.812 356.354 213.812 356.233V356.031H213.732V356.233C213.732 356.354 213.691 356.597 213.651 356.961C213.61 357.325 213.529 357.77 213.448 358.336C213.368 358.902 213.246 359.63 213.085 360.479ZM224.448 379H218.139L217.25 374.552H210.132L209.243 379H202.934L209.607 350.693H217.775L224.448 379ZM232.849 350.693V372.894H241.746V379H226.622V350.693H232.849ZM265.98 350.693V356.799H257.69V362.582H263.756V368.567H257.69V379H251.463V350.693H265.98ZM280.678 369.335V350.693H286.905V368.971C286.905 372.206 286.137 374.794 284.56 376.695C282.983 378.596 280.678 379.485 277.604 379.485C276.068 379.485 274.733 379.243 273.561 378.838C272.388 378.353 271.417 377.625 270.649 376.695C269.881 375.765 269.315 374.633 268.91 373.339C268.506 372.045 268.304 370.589 268.304 368.971V350.693H274.531V369.335C274.531 372.206 275.542 373.622 277.604 373.622C279.667 373.622 280.678 372.206 280.678 369.335ZM288.815 356.799V350.693H306.446V356.799H300.704V379H294.476V356.799H288.815ZM320.723 369.335V350.693H326.951V368.971C326.951 372.206 326.182 374.794 324.605 376.695C323.028 378.596 320.723 379.485 317.65 379.485C316.113 379.485 314.779 379.243 313.606 378.838C312.433 378.353 311.463 377.625 310.694 376.695C309.926 375.765 309.36 374.633 308.955 373.339C308.551 372.045 308.349 370.589 308.349 368.971V350.693H314.576V369.335C314.576 372.206 315.587 373.622 317.65 373.622C319.712 373.622 320.723 372.206 320.723 369.335ZM339.131 356.637H337.109V363.997L339.172 363.957C340.021 363.957 340.708 363.633 341.234 362.946C341.76 362.258 342.043 361.369 342.043 360.277C342.043 359.145 341.76 358.255 341.194 357.608C340.628 356.961 339.94 356.637 339.131 356.637ZM344.227 368.122L349.16 378.96H342.164L338.565 369.537H337.15V378.919H330.922V350.612H339.374C340.547 350.612 341.679 350.855 342.771 351.3C343.863 351.744 344.833 352.391 345.642 353.241C346.451 354.09 347.098 355.101 347.583 356.274C348.068 357.446 348.311 358.781 348.311 360.237C348.311 362.056 347.947 363.633 347.179 364.968C346.41 366.302 345.44 367.354 344.227 368.122ZM357.507 367.515V372.894H366.08V379H351.28V350.693H365.838V356.799H357.507V361.692H363.452V367.515H357.507Z" fill="white"/>
</g>
<rect width="368" height="251" transform="translate(17 74.9219)" fill="#728F3D"/>
<defs>
<filter id="filter0_d_456_1042" x="123.379" y="22.4238" width="157.375" height="35.2133" filterUnits="userSpaceOnUse" color-interpolation-filters="sRGB">
<feFlood flood-opacity="0" result="BackgroundImageFix"/>
<feColorMatrix in="SourceAlpha" type="matrix" values="0 0 0 0 0 0 0 0 0 0 0 0 0 0 0 0 0 0 127 0" result="hardAlpha"/>
<feOffset dy="3.01877"/>
<feGaussianBlur stdDeviation="1.50939"/>
<feComposite in2="hardAlpha" operator="out"/>
<feColorMatrix type="matrix" values="0 0 0 0 0 0 0 0 0 0 0 0 0 0 0 0 0 0 0.15 0"/>
<feBlend mode="normal" in2="BackgroundImageFix" result="effect1_dropShadow_456_1042"/>
<feBlend mode="normal" in="SourceGraphic" in2="effect1_dropShadow_456_1042" result="shape"/>
</filter>
<filter id="filter1_d_456_1042" x="32.078" y="350.087" width="337.056" height="35.6283" filterUnits="userSpaceOnUse" color-interpolation-filters="sRGB">
<feFlood flood-opacity="0" result="BackgroundImageFix"/>
<feColorMatrix in="SourceAlpha" type="matrix" values="0 0 0 0 0 0 0 0 0 0 0 0 0 0 0 0 0 0 127 0" result="hardAlpha"/>
<feOffset dy="3.05437"/>
<feGaussianBlur stdDeviation="1.52719"/>
<feComposite in2="hardAlpha" operator="out"/>
<feColorMatrix type="matrix" values="0 0 0 0 0 0 0 0 0 0 0 0 0 0 0 0 0 0 0.15 0"/>
<feBlend mode="normal" in2="BackgroundImageFix" result="effect1_dropShadow_456_1042"/>
<feBlend mode="normal" in="SourceGraphic" in2="effect1_dropShadow_456_1042" result="shape"/>
</filter>
</defs>
</svg>
