<svg width="401" height="400" viewBox="0 0 401 400" fill="none" xmlns="http://www.w3.org/2000/svg">
<rect x="6.986" y="6.66764" width="386.667" height="386.667" fill="white"/>
<rect x="6.986" y="6.66764" width="386.667" height="386.667" stroke="#F7EBDF" stroke-width="13.3333"/>
<rect width="373.333" height="373.333" transform="translate(13.6523 13.334)" fill="#2B90D0"/>
<g filter="url(#filter0_d_456_1049)">
<path d="M50.0668 247.119V279.001H43.0526V247.119H50.0668ZM81.2938 254.952L75.0084 256.638L75.0539 256.865C74.5529 255.59 73.9608 254.588 73.2776 253.905C72.5944 253.222 71.8201 252.857 70.9548 252.857C70.226 252.857 69.6795 253.04 69.2695 253.449C68.8596 253.859 68.6774 254.406 68.6774 255.089C68.6774 255.772 69.1329 256.547 70.0438 257.366C70.9548 258.186 72.4122 259.279 74.4163 260.646C75.1906 261.147 76.0104 261.693 76.8302 262.331C77.6501 262.969 78.4244 263.652 79.1076 264.426C79.7908 265.2 80.3829 266.066 80.8383 267.068C81.2938 268.07 81.5215 269.163 81.5215 270.393C81.5215 271.668 81.2938 272.852 80.8383 273.991C80.3829 275.13 79.7452 276.132 78.8798 276.997C78.0144 277.862 77.0124 278.546 75.8282 279.001C74.644 279.456 73.3687 279.684 71.9568 279.684C70.226 279.684 68.723 279.411 67.4477 278.955C66.1724 278.409 65.1248 277.68 64.2594 276.769C63.3941 275.858 62.7109 274.856 62.2098 273.718C61.7088 272.579 61.3445 271.395 61.1167 270.165L67.6754 268.389C67.9031 269.755 68.4042 270.894 69.1329 271.805C69.8616 272.716 70.8181 273.171 71.9568 273.171C72.64 273.171 73.2321 272.943 73.7331 272.533C74.2341 272.123 74.5074 271.531 74.5074 270.757C74.5074 270.256 74.4163 269.801 74.1885 269.391C73.9608 268.981 73.642 268.571 73.2321 268.206C72.8222 267.842 72.3211 267.432 71.729 267.022C71.1369 266.612 70.4993 266.157 69.8161 265.656C68.6319 264.791 67.5388 263.971 66.5368 263.196C65.5347 262.422 64.6694 261.602 63.9406 260.782C63.2119 259.963 62.6653 259.052 62.2554 258.095C61.8455 257.139 61.6633 256 61.6633 254.725C61.6633 253.859 61.8455 252.948 62.2098 251.992C62.5742 251.035 63.1663 250.125 63.9406 249.305C64.7149 248.485 65.6714 247.802 66.8556 247.255C68.0398 246.709 69.4517 246.435 71.0458 246.435C72.3211 246.435 73.5054 246.617 74.5985 247.027C75.6916 247.437 76.6936 248.029 77.559 248.804C78.4244 249.578 79.1987 250.489 79.8363 251.537C80.4739 252.584 80.975 253.723 81.2938 254.952ZM81.8987 253.996V247.119H101.757V253.996H95.2893V279.001H88.2752V253.996H81.8987ZM113.009 258.141L111.188 267.25H116.562L114.558 258.141C114.33 257.184 114.239 256.364 114.148 255.727C114.057 255.089 113.966 254.588 113.92 254.178C113.875 253.768 113.829 253.495 113.829 253.358V253.131H113.738V253.358C113.738 253.495 113.693 253.768 113.647 254.178C113.601 254.588 113.51 255.089 113.419 255.727C113.328 256.364 113.192 257.184 113.009 258.141ZM125.808 279.001H118.703L117.701 273.991H109.684L108.682 279.001H101.577L109.092 247.119H118.293L125.808 279.001ZM141.556 254.36V247.119H148.388V279.001H142.649L136.956 267.113C136.637 266.43 136.318 265.747 135.999 265.018C135.68 264.289 135.407 263.652 135.179 263.06C134.952 262.468 134.77 262.012 134.633 261.648L134.451 261.101H134.314L134.451 261.876C134.542 262.377 134.633 263.105 134.724 264.062C134.815 265.018 134.906 266.157 134.997 267.478C135.088 268.799 135.134 270.256 135.134 271.85V278.955H128.302V247.073H134.041L140.281 260.008C140.964 261.375 141.419 262.513 141.693 263.424C141.966 264.335 142.102 264.791 142.148 264.791H142.285L142.194 264.062C142.148 263.606 142.057 262.923 141.966 262.012C141.875 261.101 141.784 260.008 141.693 258.733C141.601 257.458 141.556 256 141.556 254.36ZM159.935 253.859V272.215H161.256L161.165 272.26C163.305 272.26 164.763 271.486 165.537 269.983C166.311 268.48 166.721 266.202 166.721 263.196C166.721 259.826 166.22 257.412 165.218 256C164.216 254.588 162.759 253.859 160.8 253.859H159.935ZM152.83 279.001V247.164H159.343L159.297 247.21C164.034 247.21 167.632 248.622 170.092 251.4C172.551 254.178 173.781 258.141 173.781 263.287C173.781 268.252 172.642 272.123 170.32 274.902C167.997 277.68 164.49 279.001 159.798 279.001H152.83Z" fill="white"/>
</g>
<g filter="url(#filter1_d_456_1049)">
<path d="M52.2553 290.061V294.362H46.4158V298.436H50.6886V302.652H46.4158V310.001H42.029V290.061H52.2553ZM57.5096 300.031C57.5096 301.142 57.5381 302.082 57.6235 302.851C57.709 303.62 57.8229 304.247 57.9939 304.731C58.1648 305.215 58.3927 305.586 58.6775 305.814C58.9624 306.041 59.3042 306.155 59.7315 306.155C60.1588 306.155 60.5006 306.041 60.7855 305.814C61.0703 305.586 61.2982 305.215 61.4691 304.731C61.64 304.247 61.754 303.62 61.8394 302.851C61.9249 302.082 61.9534 301.142 61.9534 300.031C61.9534 298.92 61.9249 297.98 61.8394 297.211C61.754 296.442 61.64 295.815 61.4691 295.331C61.2982 294.847 61.0703 294.476 60.7855 294.248C60.5006 294.021 60.1588 293.907 59.7315 293.907C59.3042 293.907 58.9624 294.021 58.6775 294.248C58.3927 294.476 58.1648 294.847 57.9939 295.331C57.8229 295.815 57.709 296.442 57.6235 297.211C57.5381 297.98 57.5096 298.92 57.5096 300.031ZM53.0658 300.031V300.088C53.0658 296.527 53.6071 293.907 54.6895 292.226C55.772 290.545 57.4526 289.691 59.7315 289.691C62.0103 289.691 63.691 290.517 64.7734 292.197C65.8559 293.878 66.3971 296.499 66.3971 300.059C66.3971 303.62 65.8559 306.241 64.7734 307.922C63.691 309.602 62.0103 310.371 59.7315 310.371C57.4526 310.371 55.772 309.574 54.6895 307.893C53.6071 306.212 53.0658 303.592 53.0658 300.031ZM74.157 294.248H72.7327V299.433L74.1855 299.404C74.7837 299.404 75.268 299.176 75.6383 298.692C76.0086 298.208 76.208 297.581 76.208 296.812C76.208 296.015 76.0086 295.388 75.6098 294.932C75.211 294.476 74.7267 294.248 74.157 294.248ZM77.7462 302.338L81.2215 309.972H76.2935L73.7582 303.335H72.7612V309.944H68.3744V290.004H74.3279C75.154 290.004 75.9516 290.175 76.7207 290.488C77.4899 290.802 78.1735 291.257 78.7432 291.856C79.3129 292.454 79.7687 293.166 80.1105 293.992C80.4524 294.818 80.6233 295.758 80.6233 296.784C80.6233 298.065 80.3669 299.176 79.8257 300.116C79.2845 301.056 78.6008 301.797 77.7462 302.338ZM99.3842 294.961L95.4532 296.015L95.4817 296.157C95.1683 295.359 94.798 294.733 94.3707 294.305C93.9435 293.878 93.4592 293.65 92.918 293.65C92.4622 293.65 92.1204 293.764 91.864 294.021C91.6076 294.277 91.4937 294.619 91.4937 295.046C91.4937 295.473 91.7785 295.958 92.3483 296.47C92.918 296.983 93.8295 297.667 95.0829 298.521C95.5671 298.835 96.0799 299.176 96.5926 299.575C97.1054 299.974 97.5896 300.401 98.0169 300.886C98.4442 301.37 98.8145 301.911 99.0994 302.538C99.3842 303.164 99.5267 303.848 99.5267 304.617C99.5267 305.415 99.3842 306.155 99.0994 306.868C98.8145 307.58 98.4157 308.206 97.8745 308.748C97.3333 309.289 96.7066 309.716 95.9659 310.001C95.2253 310.286 94.4277 310.428 93.5447 310.428C92.4622 310.428 91.5222 310.257 90.7246 309.972C89.927 309.631 89.2718 309.175 88.7306 308.605C88.1893 308.035 87.7621 307.409 87.4487 306.697C87.1354 305.984 86.9075 305.244 86.7651 304.475L90.867 303.364C91.0094 304.218 91.3228 304.931 91.7785 305.5C92.2343 306.07 92.8325 306.355 93.5447 306.355C93.9719 306.355 94.3423 306.212 94.6556 305.956C94.9689 305.7 95.1399 305.329 95.1399 304.845C95.1399 304.532 95.0829 304.247 94.9405 303.99C94.798 303.734 94.5986 303.478 94.3423 303.25C94.0859 303.022 93.7725 302.766 93.4022 302.509C93.0319 302.253 92.6331 301.968 92.2058 301.655C91.4652 301.113 90.7815 300.601 90.1549 300.116C89.5282 299.632 88.9869 299.119 88.5312 298.607C88.0754 298.094 87.7336 297.524 87.4772 296.926C87.2208 296.328 87.1069 295.616 87.1069 294.818C87.1069 294.277 87.2208 293.707 87.4487 293.109C87.6766 292.511 88.0469 291.941 88.5312 291.428C89.0154 290.916 89.6136 290.488 90.3543 290.146C91.0949 289.805 91.9779 289.634 92.9749 289.634C93.7725 289.634 94.5132 289.748 95.1968 290.004C95.8805 290.26 96.5072 290.631 97.0484 291.115C97.5896 291.599 98.0739 292.169 98.4727 292.824C98.8715 293.479 99.1848 294.191 99.3842 294.961ZM99.7625 294.362V290.061H112.182V294.362H108.137V310.001H103.751V294.362H99.7625ZM119.419 294.248H117.995V299.433L119.448 299.404C120.046 299.404 120.53 299.176 120.9 298.692C121.271 298.208 121.47 297.581 121.47 296.812C121.47 296.015 121.271 295.388 120.872 294.932C120.473 294.476 119.989 294.248 119.419 294.248ZM123.008 302.338L126.484 309.972H121.556L119.02 303.335H118.023V309.944H113.637V290.004H119.59C120.416 290.004 121.214 290.175 121.983 290.488C122.752 290.802 123.436 291.257 124.005 291.856C124.575 292.454 125.031 293.166 125.373 293.992C125.715 294.818 125.885 295.758 125.885 296.784C125.885 298.065 125.629 299.176 125.088 300.116C124.547 301.056 123.863 301.797 123.008 302.338ZM131.509 300.031C131.509 301.142 131.537 302.082 131.623 302.851C131.708 303.62 131.822 304.247 131.993 304.731C132.164 305.215 132.392 305.586 132.677 305.814C132.962 306.041 133.304 306.155 133.731 306.155C134.158 306.155 134.5 306.041 134.785 305.814C135.07 305.586 135.298 305.215 135.468 304.731C135.639 304.247 135.753 303.62 135.839 302.851C135.924 302.082 135.953 301.142 135.953 300.031C135.953 298.92 135.924 297.98 135.839 297.211C135.753 296.442 135.639 295.815 135.468 295.331C135.298 294.847 135.07 294.476 134.785 294.248C134.5 294.021 134.158 293.907 133.731 293.907C133.304 293.907 132.962 294.021 132.677 294.248C132.392 294.476 132.164 294.847 131.993 295.331C131.822 295.815 131.708 296.442 131.623 297.211C131.537 297.98 131.509 298.92 131.509 300.031ZM127.065 300.031V300.088C127.065 296.527 127.606 293.907 128.689 292.226C129.771 290.545 131.452 289.691 133.731 289.691C136.01 289.691 137.69 290.517 138.773 292.197C139.855 293.878 140.396 296.499 140.396 300.059C140.396 303.62 139.855 306.241 138.773 307.922C137.69 309.602 136.01 310.371 133.731 310.371C131.452 310.371 129.771 309.574 128.689 307.893C127.606 306.212 127.065 303.592 127.065 300.031ZM150.663 294.59V290.061H154.936V310.001H151.347L147.786 302.566C147.587 302.139 147.387 301.712 147.188 301.256C146.988 300.8 146.818 300.401 146.675 300.031C146.533 299.661 146.419 299.376 146.333 299.148L146.219 298.806H146.134L146.219 299.29C146.276 299.604 146.333 300.059 146.39 300.658C146.447 301.256 146.504 301.968 146.561 302.794C146.618 303.62 146.647 304.532 146.647 305.529V309.972H142.374V290.033H145.963L149.866 298.122C150.293 298.977 150.578 299.689 150.749 300.259C150.919 300.829 151.005 301.113 151.033 301.113H151.119L151.062 300.658C151.033 300.373 150.976 299.946 150.919 299.376C150.863 298.806 150.806 298.122 150.749 297.325C150.692 296.527 150.663 295.616 150.663 294.59ZM166.317 308.292H166.26L166.231 308.32C166.174 308.491 166.06 308.691 165.889 308.919C165.718 309.146 165.519 309.346 165.263 309.545C165.006 309.745 164.693 309.916 164.323 310.001C163.952 310.143 163.525 310.2 163.041 310.2C160.99 310.2 159.452 309.431 158.398 307.779C157.344 306.127 156.831 303.535 156.831 300.003C156.831 296.442 157.372 293.821 158.455 292.14C159.537 290.46 161.218 289.605 163.497 289.605C165.12 289.605 166.431 290.033 167.428 290.887C168.425 291.742 169.165 293.08 169.621 294.875L165.548 295.986C165.405 295.53 165.263 295.16 165.12 294.875C164.978 294.59 164.835 294.362 164.665 294.22C164.494 294.077 164.323 293.964 164.123 293.907C163.924 293.85 163.724 293.821 163.497 293.821C162.699 293.821 162.129 294.277 161.787 295.217C161.446 296.157 161.275 297.752 161.275 300.003C161.275 302.11 161.503 303.677 161.93 304.674C162.357 305.671 163.041 306.184 163.981 306.184C164.608 306.184 165.092 305.956 165.434 305.5C165.775 305.044 166.032 304.361 166.174 303.449V302.224H163.354V298.664H169.82V310.001H166.26C166.26 309.289 166.26 308.833 166.288 308.634C166.317 308.434 166.317 308.32 166.317 308.292Z" fill="white"/>
</g>
<g filter="url(#filter2_d_456_1049)">
<path d="M61.7166 328.705L55.3666 330.408L55.4126 330.638C54.9065 329.349 54.3083 328.337 53.6181 327.647C52.9278 326.957 52.1456 326.589 51.2713 326.589C50.5351 326.589 49.9829 326.773 49.5688 327.187C49.1546 327.601 48.9706 328.153 48.9706 328.843C48.9706 329.534 49.4307 330.316 50.351 331.144C51.2713 331.972 52.7438 333.077 54.7684 334.457C55.5507 334.963 56.3789 335.515 57.2072 336.16C58.0355 336.804 58.8177 337.494 59.5079 338.276C60.1981 339.059 60.7963 339.933 61.2565 340.945C61.7166 341.957 61.9467 343.062 61.9467 344.304C61.9467 345.593 61.7166 346.789 61.2565 347.939C60.7963 349.09 60.1521 350.102 59.2779 350.976C58.4036 351.851 57.3913 352.541 56.1949 353.001C54.9985 353.461 53.7101 353.691 52.2836 353.691C50.5351 353.691 49.0166 353.415 47.7282 352.955C46.4398 352.403 45.3814 351.667 44.5072 350.746C43.6329 349.826 42.9427 348.814 42.4365 347.663C41.9303 346.513 41.5622 345.317 41.3321 344.074L47.9583 342.28C48.1883 343.66 48.6945 344.81 49.4307 345.731C50.167 346.651 51.1333 347.111 52.2836 347.111C52.9739 347.111 53.572 346.881 54.0782 346.467C54.5844 346.053 54.8605 345.455 54.8605 344.672C54.8605 344.166 54.7684 343.706 54.5383 343.292C54.3083 342.878 53.9862 342.464 53.572 342.096C53.1579 341.727 52.6517 341.313 52.0536 340.899C51.4554 340.485 50.8112 340.025 50.1209 339.519C48.9246 338.644 47.8202 337.816 46.8079 337.034C45.7956 336.252 44.9213 335.423 44.1851 334.595C43.4488 333.767 42.8966 332.847 42.4825 331.88C42.0684 330.914 41.8843 329.764 41.8843 328.475C41.8843 327.601 42.0684 326.681 42.4365 325.714C42.8046 324.748 43.4028 323.828 44.1851 322.999C44.9673 322.171 45.9336 321.481 47.13 320.929C48.3264 320.377 49.7528 320.101 51.3633 320.101C52.6517 320.101 53.8481 320.285 54.9525 320.699C56.0568 321.113 57.0692 321.711 57.9434 322.493C58.8177 323.276 59.6 324.196 60.2442 325.254C60.8884 326.312 61.3945 327.463 61.7166 328.705ZM77.8807 333.031V320.791H84.967V353.001H77.8807V340.577H71.7148V353.001H64.6285V320.791H71.7148V333.031H77.8807ZM95.2523 336.896C95.2523 338.69 95.2983 340.209 95.4364 341.451C95.5744 342.694 95.7585 343.706 96.0346 344.488C96.3107 345.271 96.6788 345.869 97.1389 346.237C97.5991 346.605 98.1512 346.789 98.8415 346.789C99.5317 346.789 100.084 346.605 100.544 346.237C101.004 345.869 101.372 345.271 101.648 344.488C101.924 343.706 102.109 342.694 102.247 341.451C102.385 340.209 102.431 338.69 102.431 336.896C102.431 335.101 102.385 333.583 102.247 332.34C102.109 331.098 101.924 330.086 101.648 329.303C101.372 328.521 101.004 327.923 100.544 327.555C100.084 327.187 99.5317 327.003 98.8415 327.003C98.1512 327.003 97.5991 327.187 97.1389 327.555C96.6788 327.923 96.3107 328.521 96.0346 329.303C95.7585 330.086 95.5744 331.098 95.4364 332.34C95.2983 333.583 95.2523 335.101 95.2523 336.896ZM88.074 336.896V336.988C88.074 331.236 88.9483 327.003 90.6969 324.288C92.4454 321.573 95.1603 320.193 98.8415 320.193C102.523 320.193 105.237 321.527 106.986 324.242C108.735 326.957 109.609 331.19 109.609 336.942C109.609 342.694 108.735 346.927 106.986 349.642C105.237 352.357 102.523 353.599 98.8415 353.599C95.1603 353.599 92.4454 352.311 90.6969 349.596C88.9483 346.881 88.074 342.648 88.074 336.896ZM122.144 327.555H119.843V335.93L122.19 335.884C123.156 335.884 123.938 335.515 124.537 334.733C125.135 333.951 125.457 332.939 125.457 331.696C125.457 330.408 125.135 329.395 124.491 328.659C123.846 327.923 123.064 327.555 122.144 327.555ZM127.942 340.623L133.556 352.955H125.595L121.5 342.234H119.889V352.909H112.803V320.699H122.42C123.754 320.699 125.043 320.975 126.285 321.481C127.528 321.987 128.632 322.723 129.552 323.69C130.473 324.656 131.209 325.806 131.761 327.141C132.313 328.475 132.589 329.994 132.589 331.65C132.589 333.721 132.175 335.515 131.301 337.034C130.427 338.552 129.322 339.749 127.942 340.623ZM143.054 339.933V346.053H152.809V353.001H135.967V320.791H152.533V327.739H143.054V333.307H149.818V339.933H143.054ZM175.342 328.705L168.992 330.408L169.038 330.638C168.532 329.349 167.934 328.337 167.244 327.647C166.553 326.957 165.771 326.589 164.897 326.589C164.161 326.589 163.609 326.773 163.194 327.187C162.78 327.601 162.596 328.153 162.596 328.843C162.596 329.534 163.056 330.316 163.977 331.144C164.897 331.972 166.369 333.077 168.394 334.457C169.176 334.963 170.005 335.515 170.833 336.16C171.661 336.804 172.443 337.494 173.134 338.276C173.824 339.059 174.422 339.933 174.882 340.945C175.342 341.957 175.572 343.062 175.572 344.304C175.572 345.593 175.342 346.789 174.882 347.939C174.422 349.09 173.778 350.102 172.903 350.976C172.029 351.851 171.017 352.541 169.82 353.001C168.624 353.461 167.336 353.691 165.909 353.691C164.161 353.691 162.642 353.415 161.354 352.955C160.065 352.403 159.007 351.667 158.133 350.746C157.258 349.826 156.568 348.814 156.062 347.663C155.556 346.513 155.188 345.317 154.958 344.074L161.584 342.28C161.814 343.66 162.32 344.81 163.056 345.731C163.793 346.651 164.759 347.111 165.909 347.111C166.599 347.111 167.198 346.881 167.704 346.467C168.21 346.053 168.486 345.455 168.486 344.672C168.486 344.166 168.394 343.706 168.164 343.292C167.934 342.878 167.612 342.464 167.198 342.096C166.784 341.727 166.277 341.313 165.679 340.899C165.081 340.485 164.437 340.025 163.747 339.519C162.55 338.644 161.446 337.816 160.433 337.034C159.421 336.252 158.547 335.423 157.811 334.595C157.074 333.767 156.522 332.847 156.108 331.88C155.694 330.914 155.51 329.764 155.51 328.475C155.51 327.601 155.694 326.681 156.062 325.714C156.43 324.748 157.028 323.828 157.811 322.999C158.593 322.171 159.559 321.481 160.756 320.929C161.952 320.377 163.378 320.101 164.989 320.101C166.277 320.101 167.474 320.285 168.578 320.699C169.682 321.113 170.695 321.711 171.569 322.493C172.443 323.276 173.226 324.196 173.87 325.254C174.514 326.312 175.02 327.463 175.342 328.705Z" fill="white"/>
</g>
<defs>
<filter id="filter0_d_456_1049" x="40.7436" y="246.436" width="135.347" height="37.8672" filterUnits="userSpaceOnUse" color-interpolation-filters="sRGB">
<feFlood flood-opacity="0" result="BackgroundImageFix"/>
<feColorMatrix in="SourceAlpha" type="matrix" values="0 0 0 0 0 0 0 0 0 0 0 0 0 0 0 0 0 0 127 0" result="hardAlpha"/>
<feOffset dy="2.3091"/>
<feGaussianBlur stdDeviation="1.15455"/>
<feComposite in2="hardAlpha" operator="out"/>
<feColorMatrix type="matrix" values="0 0 0 0 0 0 0 0 0 0 0 0 0 0 0 0 0 0 0.15 0"/>
<feBlend mode="normal" in2="BackgroundImageFix" result="effect1_dropShadow_456_1049"/>
<feBlend mode="normal" in="SourceGraphic" in2="effect1_dropShadow_456_1049" result="shape"/>
</filter>
<filter id="filter1_d_456_1049" x="39.4968" y="289.605" width="132.856" height="25.8873" filterUnits="userSpaceOnUse" color-interpolation-filters="sRGB">
<feFlood flood-opacity="0" result="BackgroundImageFix"/>
<feColorMatrix in="SourceAlpha" type="matrix" values="0 0 0 0 0 0 0 0 0 0 0 0 0 0 0 0 0 0 127 0" result="hardAlpha"/>
<feOffset dy="2.53205"/>
<feGaussianBlur stdDeviation="1.26602"/>
<feComposite in2="hardAlpha" operator="out"/>
<feColorMatrix type="matrix" values="0 0 0 0 0 0 0 0 0 0 0 0 0 0 0 0 0 0 0.15 0"/>
<feBlend mode="normal" in2="BackgroundImageFix" result="effect1_dropShadow_456_1049"/>
<feBlend mode="normal" in="SourceGraphic" in2="effect1_dropShadow_456_1049" result="shape"/>
</filter>
<filter id="filter2_d_456_1049" x="38.5248" y="320.101" width="139.855" height="39.2052" filterUnits="userSpaceOnUse" color-interpolation-filters="sRGB">
<feFlood flood-opacity="0" result="BackgroundImageFix"/>
<feColorMatrix in="SourceAlpha" type="matrix" values="0 0 0 0 0 0 0 0 0 0 0 0 0 0 0 0 0 0 127 0" result="hardAlpha"/>
<feOffset dy="2.80718"/>
<feGaussianBlur stdDeviation="1.40359"/>
<feComposite in2="hardAlpha" operator="out"/>
<feColorMatrix type="matrix" values="0 0 0 0 0 0 0 0 0 0 0 0 0 0 0 0 0 0 0.15 0"/>
<feBlend mode="normal" in2="BackgroundImageFix" result="effect1_dropShadow_456_1049"/>
<feBlend mode="normal" in="SourceGraphic" in2="effect1_dropShadow_456_1049" result="shape"/>
</filter>
</defs>
</svg>
