<?xml version="1.0" encoding="utf-8"?>
<!-- Generator: Adobe Illustrator 25.0.0, SVG Export Plug-In . SVG Version: 6.00 Build 0)  -->
<svg version="1.1" id="Layer_1" xmlns="http://www.w3.org/2000/svg" xmlns:xlink="http://www.w3.org/1999/xlink" x="0px" y="0px"
	 viewBox="0 0 401 400" style="enable-background:new 0 0 401 400;" xml:space="preserve">
<style type="text/css">
	.st0{fill:#FFFFFF;}
	.st1{fill:none;stroke:#F7EBDF;stroke-width:13.3333;}
	.st2{fill:#2B90D0;}
	.st3{fill:none;stroke:#FFFFFF;stroke-width:8;}
</style>
<rect x="7" y="6.7" class="st0" width="386.7" height="386.7"/>
<rect x="7" y="6.7" class="st1" width="386.7" height="386.7"/>
<rect x="13.7" y="13.3" class="st2" width="373.3" height="373.3"/>
<path class="st0" d="M126.3,298.4v30.2h-6.6v-30.2H126.3z M155.9,305.8l-6,1.6l0,0.2c-0.5-1.2-1-2.2-1.7-2.8c-0.6-0.6-1.4-1-2.2-1
	c-0.7,0-1.2,0.2-1.6,0.6s-0.6,0.9-0.6,1.6c0,0.6,0.4,1.4,1.3,2.2c0.9,0.8,2.2,1.8,4.1,3.1c0.7,0.5,1.5,1,2.3,1.6
	c0.8,0.6,1.5,1.3,2.2,2c0.6,0.7,1.2,1.6,1.6,2.5c0.4,0.9,0.6,2,0.6,3.2c0,1.2-0.2,2.3-0.6,3.4c-0.4,1.1-1,2-1.9,2.8
	c-0.8,0.8-1.8,1.5-2.9,1.9c-1.1,0.4-2.3,0.6-3.7,0.6c-1.6,0-3.1-0.3-4.3-0.7c-1.2-0.5-2.2-1.2-3-2.1c-0.8-0.9-1.5-1.8-1.9-2.9
	c-0.5-1.1-0.8-2.2-1-3.4l6.2-1.7c0.2,1.3,0.7,2.4,1.4,3.2c0.7,0.9,1.6,1.3,2.7,1.3c0.6,0,1.2-0.2,1.7-0.6s0.7-0.9,0.7-1.7
	c0-0.5-0.1-0.9-0.3-1.3c-0.2-0.4-0.5-0.8-0.9-1.1c-0.4-0.3-0.9-0.7-1.4-1.1c-0.6-0.4-1.2-0.8-1.8-1.3c-1.1-0.8-2.2-1.6-3.1-2.3
	c-0.9-0.7-1.8-1.5-2.5-2.3c-0.7-0.8-1.2-1.6-1.6-2.5c-0.4-0.9-0.6-2-0.6-3.2c0-0.8,0.2-1.7,0.5-2.6c0.3-0.9,0.9-1.8,1.6-2.5
	c0.7-0.8,1.6-1.4,2.8-1.9c1.1-0.5,2.5-0.8,4-0.8c1.2,0,2.3,0.2,3.4,0.6c1,0.4,2,0.9,2.8,1.7c0.8,0.7,1.6,1.6,2.2,2.6
	C155.2,303.6,155.6,304.7,155.9,305.8z M171.7,318.3v-19.9h6.6v19.5c0,3.5-0.8,6.2-2.5,8.2c-1.7,2-4.1,3-7.4,3
	c-1.6,0-3.1-0.3-4.3-0.7c-1.3-0.5-2.3-1.3-3.1-2.3c-0.8-1-1.4-2.2-1.9-3.6c-0.4-1.4-0.6-2.9-0.6-4.7v-19.5h6.6v19.9
	c0,3.1,1.1,4.6,3.3,4.6S171.7,321.4,171.7,318.3z M189.2,304.8v7.9h1.7h0c0.9,0,1.6-0.3,2.2-1c0.5-0.6,0.8-1.6,0.8-2.9
	c0-1.3-0.3-2.3-0.8-2.9c-0.5-0.6-1.2-1-2.1-1H189.2z M182.5,328.6v-30.2h8.6v0.1c1.4,0,2.6,0.2,3.8,0.7c1.2,0.5,2.2,1.2,3,2
	c0.8,0.9,1.5,1.9,1.9,3.2c0.5,1.3,0.7,2.7,0.7,4.3s-0.2,3-0.7,4.3c-0.5,1.3-1.1,2.3-1.9,3.2c-0.8,0.9-1.8,1.6-3,2
	c-1.2,0.5-2.4,0.7-3.8,0.7h-1.9v9.7H182.5z M209.4,304.8v7.9h1.7h0c0.9,0,1.6-0.3,2.2-1c0.5-0.6,0.8-1.6,0.8-2.9
	c0-1.3-0.3-2.3-0.8-2.9c-0.5-0.6-1.2-1-2.1-1H209.4z M202.7,328.6v-30.2h8.6v0.1c1.4,0,2.6,0.2,3.8,0.7c1.2,0.5,2.2,1.2,3,2
	c0.8,0.9,1.5,1.9,1.9,3.2c0.5,1.3,0.7,2.7,0.7,4.3s-0.2,3-0.7,4.3c-0.5,1.3-1.1,2.3-1.9,3.2c-0.8,0.9-1.8,1.6-3,2
	c-1.2,0.5-2.4,0.7-3.8,0.7h-1.9v9.7H202.7z M228.3,313.5c0,1.7,0,3.1,0.2,4.3c0.1,1.2,0.3,2.1,0.6,2.8c0.3,0.7,0.6,1.3,1,1.6
	c0.4,0.3,0.9,0.5,1.6,0.5c0.6,0,1.2-0.2,1.6-0.5c0.4-0.3,0.8-0.9,1-1.6c0.3-0.7,0.4-1.7,0.6-2.8c0.1-1.2,0.2-2.6,0.2-4.3
	c0-1.7,0-3.1-0.2-4.3c-0.1-1.2-0.3-2.1-0.6-2.8c-0.3-0.7-0.6-1.3-1-1.6c-0.4-0.3-0.9-0.5-1.6-0.5c-0.6,0-1.2,0.2-1.6,0.5
	c-0.4,0.3-0.8,0.9-1,1.6c-0.3,0.7-0.4,1.7-0.6,2.8C228.3,310.4,228.3,311.8,228.3,313.5z M221.5,313.5L221.5,313.5
	c0-5.3,0.8-9.3,2.5-11.8c1.6-2.5,4.2-3.8,7.6-3.8s6,1.3,7.6,3.8c1.6,2.5,2.5,6.5,2.5,11.9c0,5.4-0.8,9.4-2.5,11.9
	c-1.6,2.5-4.2,3.7-7.6,3.7s-6-1.2-7.6-3.8C222.3,322.9,221.5,318.9,221.5,313.5z M253.5,304.8h-2.2v7.9l2.2,0c0.9,0,1.6-0.3,2.2-1.1
	c0.6-0.7,0.9-1.7,0.9-2.8c0-1.2-0.3-2.2-0.9-2.8C255.1,305.1,254.3,304.8,253.5,304.8z M258.9,317l5.3,11.6h-7.5l-3.8-10.1h-1.5v10
	h-6.6v-30.2h9c1.3,0,2.5,0.3,3.6,0.7c1.2,0.5,2.2,1.2,3.1,2.1c0.9,0.9,1.6,2,2.1,3.2c0.5,1.3,0.8,2.7,0.8,4.2c0,1.9-0.4,3.6-1.2,5
	C261.2,315.1,260.2,316.2,258.9,317z M264.3,304.9v-6.5h18.8v6.5H277v23.7h-6.6v-23.7H264.3z M44.4,348.7l-6.2,1.7l-0.1,0.1
	c-0.2-0.7-0.4-1.3-0.6-1.7c-0.2-0.4-0.5-0.8-0.7-1s-0.5-0.4-0.8-0.5c-0.3-0.1-0.6-0.1-0.9-0.1c-1.2,0-2.1,0.7-2.6,2.2
	c-0.5,1.5-0.8,3.8-0.8,7.2c0,3.2,0.3,5.6,0.9,7.1c0.6,1.5,1.5,2.3,2.7,2.3c0.4,0,0.8,0,1.2-0.1c0.3-0.1,0.6-0.3,0.9-0.6
	c0.3-0.3,0.6-0.7,0.8-1.3c0.3-0.6,0.5-1.3,0.6-2.2l6,1.6c-0.6,3.1-1.7,5.3-3.4,6.7c-1.6,1.4-3.8,2.1-6.4,2.1c-3.5,0-6-1.2-7.6-3.8
	c-1.6-2.5-2.5-6.5-2.5-11.9c0-5.4,0.8-9.4,2.5-11.9c1.6-2.5,4.2-3.8,7.6-3.8c2.5,0,4.4,0.6,6,1.9C42.6,344,43.7,346,44.4,348.7z
	 M52.8,356.5c0,1.7,0,3.1,0.2,4.3c0.1,1.2,0.3,2.1,0.6,2.8c0.3,0.7,0.6,1.3,1,1.6c0.4,0.3,0.9,0.5,1.6,0.5c0.6,0,1.2-0.2,1.6-0.5
	c0.4-0.3,0.8-0.9,1-1.6c0.3-0.7,0.4-1.7,0.6-2.8c0.1-1.2,0.2-2.6,0.2-4.3s0-3.1-0.2-4.3c-0.1-1.2-0.3-2.1-0.6-2.8
	c-0.3-0.7-0.6-1.3-1-1.6c-0.4-0.3-0.9-0.5-1.6-0.5c-0.6,0-1.2,0.2-1.6,0.5c-0.4,0.3-0.8,0.9-1,1.6c-0.3,0.7-0.4,1.7-0.6,2.8
	C52.8,353.4,52.8,354.8,52.8,356.5z M46.1,356.5L46.1,356.5c0-5.3,0.8-9.3,2.5-11.8c1.6-2.5,4.2-3.8,7.6-3.8c3.5,0,6,1.3,7.6,3.8
	c1.6,2.5,2.5,6.5,2.5,11.9c0,5.4-0.8,9.4-2.5,11.9c-1.6,2.5-4.2,3.7-7.6,3.7c-3.5,0-6-1.2-7.6-3.8C46.9,365.8,46.1,361.9,46.1,356.5
	z M77.7,351.8l-1.7,8.6h5.1l-1.9-8.6c-0.2-0.9-0.3-1.7-0.4-2.3c-0.1-0.6-0.2-1.1-0.2-1.5c0-0.4-0.1-0.6-0.1-0.8v-0.2h-0.1v0.2
	c0,0.1,0,0.4-0.1,0.8c0,0.4-0.1,0.9-0.2,1.5C78,350.1,77.9,350.9,77.7,351.8z M89.8,371.6h-6.7l-0.9-4.7h-7.6l-0.9,4.7h-6.7
	l7.1-30.2h8.7L89.8,371.6z M109.6,348.8l-6,1.6l0,0.2c-0.5-1.2-1-2.2-1.7-2.8c-0.6-0.6-1.4-1-2.2-1c-0.7,0-1.2,0.2-1.6,0.6
	c-0.4,0.4-0.6,0.9-0.6,1.6c0,0.6,0.4,1.4,1.3,2.2c0.9,0.8,2.2,1.8,4.1,3.1c0.7,0.5,1.5,1,2.3,1.6c0.8,0.6,1.5,1.3,2.2,2
	c0.6,0.7,1.2,1.6,1.6,2.5c0.4,0.9,0.6,2,0.6,3.2c0,1.2-0.2,2.3-0.6,3.4c-0.4,1.1-1,2-1.9,2.8c-0.8,0.8-1.8,1.5-2.9,1.9
	s-2.3,0.6-3.7,0.6c-1.6,0-3.1-0.3-4.3-0.7c-1.2-0.5-2.2-1.2-3-2.1c-0.8-0.9-1.5-1.8-1.9-2.9c-0.5-1.1-0.8-2.2-1-3.4l6.2-1.7
	c0.2,1.3,0.7,2.4,1.4,3.2c0.7,0.9,1.6,1.3,2.7,1.3c0.6,0,1.2-0.2,1.7-0.6c0.5-0.4,0.7-0.9,0.7-1.7c0-0.5-0.1-0.9-0.3-1.3
	c-0.2-0.4-0.5-0.8-0.9-1.1c-0.4-0.3-0.9-0.7-1.4-1.1c-0.6-0.4-1.2-0.8-1.8-1.3c-1.1-0.8-2.2-1.6-3.1-2.3c-0.9-0.7-1.8-1.5-2.5-2.3
	c-0.7-0.8-1.2-1.6-1.6-2.5c-0.4-0.9-0.6-2-0.6-3.2c0-0.8,0.2-1.7,0.5-2.6c0.3-0.9,0.9-1.8,1.6-2.5s1.6-1.4,2.8-1.9
	c1.1-0.5,2.5-0.8,4-0.8c1.2,0,2.3,0.2,3.4,0.6c1,0.4,2,0.9,2.8,1.7s1.6,1.6,2.2,2.6C108.9,346.5,109.3,347.6,109.6,348.8z
	 M110.2,347.9v-6.5H129v6.5h-6.1v23.7h-6.6v-23.7H110.2z M139.7,351.8l-1.7,8.6h5.1l-1.9-8.6c-0.2-0.9-0.3-1.7-0.4-2.3
	c-0.1-0.6-0.2-1.1-0.2-1.5c0-0.4-0.1-0.6-0.1-0.8v-0.2h-0.1v0.2c0,0.1,0,0.4-0.1,0.8c0,0.4-0.1,0.9-0.2,1.5
	C140,350.1,139.8,350.9,139.7,351.8z M151.8,371.6h-6.7l-0.9-4.7h-7.6l-0.9,4.7h-6.7l7.1-30.2h8.7L151.8,371.6z M160.8,341.4V365
	h9.5v6.5h-16.1v-30.2H160.8z M187.3,347.7v7.9h1.7h0c0.9,0,1.6-0.3,2.2-1c0.5-0.6,0.8-1.6,0.8-2.9c0-1.3-0.3-2.3-0.8-2.9
	c-0.5-0.6-1.2-1-2.1-1H187.3z M180.6,371.6v-30.2h8.6v0.1c1.4,0,2.6,0.2,3.8,0.7c1.2,0.5,2.2,1.2,3,2c0.8,0.9,1.5,1.9,1.9,3.2
	c0.5,1.3,0.7,2.7,0.7,4.3s-0.2,3-0.7,4.3c-0.5,1.3-1.1,2.3-1.9,3.2c-0.8,0.9-1.8,1.6-3,2c-1.2,0.5-2.4,0.7-3.8,0.7h-1.9v9.7H180.6z
	 M209.6,347.7h-2.2v7.9l2.2,0c0.9,0,1.6-0.3,2.2-1.1c0.6-0.7,0.9-1.7,0.9-2.8c0-1.2-0.3-2.2-0.9-2.8
	C211.2,348,210.5,347.7,209.6,347.7z M215,360l5.3,11.6h-7.5l-3.8-10.1h-1.5v10h-6.6v-30.2h9c1.3,0,2.5,0.3,3.6,0.7
	c1.2,0.5,2.2,1.2,3.1,2.1c0.9,0.9,1.6,2,2.1,3.2c0.5,1.3,0.8,2.7,0.8,4.2c0,1.9-0.4,3.6-1.2,5C217.4,358,216.3,359.1,215,360z
	 M227.9,356.5c0,1.7,0,3.1,0.2,4.3c0.1,1.2,0.3,2.1,0.6,2.8c0.3,0.7,0.6,1.3,1,1.6c0.4,0.3,0.9,0.5,1.6,0.5c0.6,0,1.2-0.2,1.6-0.5
	c0.4-0.3,0.8-0.9,1-1.6c0.3-0.7,0.4-1.7,0.6-2.8c0.1-1.2,0.2-2.6,0.2-4.3s0-3.1-0.2-4.3c-0.1-1.2-0.3-2.1-0.6-2.8
	c-0.3-0.7-0.6-1.3-1-1.6c-0.4-0.3-0.9-0.5-1.6-0.5c-0.6,0-1.2,0.2-1.6,0.5c-0.4,0.3-0.8,0.9-1,1.6c-0.3,0.7-0.4,1.7-0.6,2.8
	C227.9,353.4,227.9,354.8,227.9,356.5z M221.2,356.5L221.2,356.5c0-5.3,0.8-9.3,2.5-11.8c1.6-2.5,4.2-3.8,7.6-3.8
	c3.5,0,6,1.3,7.6,3.8c1.6,2.5,2.5,6.5,2.5,11.9c0,5.4-0.8,9.4-2.5,11.9c-1.6,2.5-4.2,3.7-7.6,3.7c-3.5,0-6-1.2-7.6-3.8
	C222,365.8,221.2,361.9,221.2,356.5z M242.2,347.9v-6.5H261v6.5h-6.1v23.7h-6.6v-23.7H242.2z M269.8,359.3v5.7h9.1v6.5h-15.8v-30.2
	h15.5v6.5h-8.9v5.2h6.3v6.2H269.8z M300.6,348.7l-6.2,1.7l-0.1,0.1c-0.2-0.7-0.4-1.3-0.6-1.7c-0.2-0.4-0.5-0.8-0.7-1
	s-0.5-0.4-0.8-0.5c-0.3-0.1-0.6-0.1-0.9-0.1c-1.2,0-2.1,0.7-2.6,2.2c-0.5,1.5-0.8,3.8-0.8,7.2c0,3.2,0.3,5.6,0.9,7.1
	c0.6,1.5,1.5,2.3,2.7,2.3c0.4,0,0.8,0,1.2-0.1c0.3-0.1,0.6-0.3,0.9-0.6c0.3-0.3,0.6-0.7,0.8-1.3c0.3-0.6,0.5-1.3,0.6-2.2l6,1.6
	c-0.6,3.1-1.7,5.3-3.4,6.7c-1.6,1.4-3.8,2.1-6.4,2.1c-3.5,0-6-1.2-7.6-3.8c-1.6-2.5-2.5-6.5-2.5-11.9c0-5.4,0.8-9.4,2.5-11.9
	c1.6-2.5,4.2-3.8,7.6-3.8c2.5,0,4.4,0.6,6,1.9C298.8,344,299.9,346,300.6,348.7z M301.5,347.9v-6.5h18.8v6.5h-6.1v23.7h-6.6v-23.7
	H301.5z M329.1,341.4v30.2h-6.6v-30.2H329.1z M338.8,356.5c0,1.7,0,3.1,0.2,4.3c0.1,1.2,0.3,2.1,0.6,2.8c0.3,0.7,0.6,1.3,1,1.6
	c0.4,0.3,0.9,0.5,1.6,0.5c0.6,0,1.2-0.2,1.6-0.5c0.4-0.3,0.8-0.9,1-1.6c0.3-0.7,0.4-1.7,0.6-2.8c0.1-1.2,0.2-2.6,0.2-4.3
	s0-3.1-0.2-4.3c-0.1-1.2-0.3-2.1-0.6-2.8c-0.3-0.7-0.6-1.3-1-1.6c-0.4-0.3-0.9-0.5-1.6-0.5c-0.6,0-1.2,0.2-1.6,0.5
	c-0.4,0.3-0.8,0.9-1,1.6c-0.3,0.7-0.4,1.7-0.6,2.8C338.8,353.4,338.8,354.8,338.8,356.5z M332,356.5L332,356.5
	c0-5.3,0.8-9.3,2.5-11.8c1.6-2.5,4.2-3.8,7.6-3.8c3.5,0,6,1.3,7.6,3.8c1.6,2.5,2.5,6.5,2.5,11.9c0,5.4-0.8,9.4-2.5,11.9
	c-1.6,2.5-4.2,3.7-7.6,3.7c-3.5,0-6-1.2-7.6-3.8C332.9,365.8,332,361.9,332,356.5z M367.8,348.2v-6.9h6.5v30.2h-5.4l-5.4-11.3
	c-0.3-0.6-0.6-1.3-0.9-2c-0.3-0.7-0.6-1.3-0.8-1.9c-0.2-0.6-0.4-1-0.5-1.3l-0.2-0.5h-0.1l0.1,0.7c0.1,0.5,0.2,1.2,0.3,2.1
	c0.1,0.9,0.2,2,0.3,3.2c0.1,1.3,0.1,2.6,0.1,4.1v6.7h-6.5v-30.2h5.4l5.9,12.3c0.6,1.3,1.1,2.4,1.3,3.2c0.3,0.9,0.4,1.3,0.4,1.3h0.1
	l-0.1-0.7c0-0.4-0.1-1.1-0.2-1.9c-0.1-0.9-0.2-1.9-0.3-3.1C367.8,351.2,367.8,349.8,367.8,348.2z"/>
<rect x="33" y="32.1" class="st3" width="335.7" height="240.5"/>
</svg>
