<svg width="400" height="400" viewBox="0 0 400 400" fill="none" xmlns="http://www.w3.org/2000/svg">
<g clip-path="url(#clip0_456_1036)">
<rect y="0.000976562" width="400" height="400" fill="white"/>
<rect width="400" height="400" transform="translate(0 -0.078125)" fill="#CEAA88"/>
<g filter="url(#filter0_d_456_1036)">
<path d="M170.517 301.141V330.922H163.965V301.141H170.517ZM177.64 307.012L178.235 306.757L177.597 306.842C176.959 306.757 176.448 306.459 176.023 305.949C175.597 305.438 175.385 304.757 175.385 303.949C175.385 303.056 175.683 302.29 176.236 301.694C176.789 301.099 177.469 300.801 178.235 300.801C179.044 300.801 179.724 301.141 180.277 301.779C180.83 302.417 181.128 303.268 181.128 304.332C181.128 305.013 181.001 305.693 180.788 306.417C180.575 307.14 180.277 307.863 179.894 308.544C179.512 309.224 179.086 309.905 178.576 310.543C178.065 311.181 177.555 311.735 177.001 312.245H174.747C175.087 311.99 175.427 311.649 175.768 311.224C176.108 310.799 176.406 310.331 176.704 309.82C177.001 309.31 177.214 308.799 177.384 308.288C177.555 307.778 177.64 307.353 177.64 307.012ZM197.826 310.16L201.527 301.141H207.611V331.092H201.527V321.349C201.527 320.201 201.57 319.095 201.655 318.031C201.74 316.967 201.868 316.031 201.995 315.223C202.123 314.415 202.208 313.734 202.293 313.224L202.421 312.458H202.251L202.08 312.926C201.953 313.266 201.825 313.649 201.655 314.117C201.485 314.585 201.315 315.138 201.102 315.734C200.889 316.329 200.676 316.882 200.464 317.435L197.996 323.732H195.018L192.551 317.435C192.338 316.882 192.125 316.287 191.912 315.691C191.7 315.096 191.53 314.542 191.359 314.074C191.189 313.606 191.062 313.181 190.934 312.841L190.764 312.33H190.594L190.721 313.053C190.806 313.564 190.891 314.202 191.019 315.01C191.147 315.819 191.274 316.755 191.359 317.818C191.444 318.882 191.487 319.988 191.487 321.137V330.922H185.403V301.184H191.487L195.188 310.203C195.444 310.841 195.656 311.479 195.826 312.117C195.997 312.756 196.124 313.309 196.209 313.819C196.294 314.33 196.38 314.713 196.422 315.01L196.507 315.436H196.592L196.635 314.968C196.677 314.67 196.72 314.287 196.805 313.777C196.89 313.266 197.018 312.713 197.188 312.075C197.358 311.437 197.571 310.799 197.826 310.16ZM227.898 311.437L226.196 319.946H231.216L229.344 311.437C229.132 310.543 229.047 309.778 228.962 309.182C228.876 308.586 228.791 308.118 228.749 307.735C228.706 307.353 228.664 307.097 228.664 306.97V306.757H228.579V306.97C228.579 307.097 228.536 307.353 228.494 307.735C228.451 308.118 228.366 308.586 228.281 309.182C228.196 309.778 228.068 310.543 227.898 311.437ZM239.853 330.922H233.216L232.28 326.242H224.792L223.856 330.922H217.219L224.239 301.141H232.833L239.853 330.922Z" fill="white"/>
</g>
<g filter="url(#filter1_d_456_1036)">
<path d="M52.336 351.416L46.2522 353.075L46.1671 353.16C45.9544 352.48 45.7417 351.927 45.529 351.501C45.3163 351.076 45.061 350.735 44.8057 350.523C44.5505 350.31 44.2952 350.14 43.9974 350.055C43.6996 349.97 43.4018 349.927 43.104 349.927C41.9127 349.927 41.0619 350.65 40.5513 352.097C40.0408 353.543 39.7855 355.883 39.7855 359.159C39.7855 362.307 40.0834 364.647 40.679 366.136C41.2746 367.625 42.168 368.391 43.3592 368.391C43.7847 368.391 44.1676 368.349 44.5079 368.264C44.8483 368.178 45.1461 367.966 45.4439 367.668C45.7417 367.37 45.997 366.945 46.2522 366.392C46.5075 365.839 46.7202 365.115 46.8904 364.222L52.804 365.839C52.2084 368.859 51.1022 371.071 49.4856 372.475C47.8689 373.879 45.7842 374.517 43.1891 374.517C39.7855 374.517 37.2755 373.326 35.6588 370.816C34.0421 368.306 33.2338 364.392 33.2338 359.074C33.2338 353.756 34.0421 349.842 35.6588 347.332C37.2755 344.822 39.7855 343.545 43.1891 343.545C45.6141 343.545 47.5711 344.184 49.0601 345.46C50.5492 346.736 51.6553 348.736 52.336 351.416ZM60.5816 359.031C60.5816 360.691 60.6241 362.095 60.7517 363.243C60.8794 364.392 61.0496 365.328 61.3048 366.051C61.5601 366.774 61.9004 367.328 62.3259 367.668C62.7513 368.008 63.2618 368.178 63.9 368.178C64.5382 368.178 65.0487 368.008 65.4741 367.668C65.8996 367.328 66.2399 366.774 66.4952 366.051C66.7504 365.328 66.9206 364.392 67.0483 363.243C67.1759 362.095 67.2184 360.691 67.2184 359.031C67.2184 357.372 67.1759 355.968 67.0483 354.82C66.9206 353.671 66.7504 352.735 66.4952 352.012C66.2399 351.288 65.8996 350.735 65.4741 350.395C65.0487 350.055 64.5382 349.885 63.9 349.885C63.2618 349.885 62.7513 350.055 62.3259 350.395C61.9004 350.735 61.5601 351.288 61.3048 352.012C61.0496 352.735 60.8794 353.671 60.7517 354.82C60.6241 355.968 60.5816 357.372 60.5816 359.031ZM53.9447 359.031V359.117C53.9447 353.799 54.753 349.885 56.3697 347.374C57.9864 344.864 60.4965 343.588 63.9 343.588C67.3035 343.588 69.8136 344.822 71.4303 347.332C73.047 349.842 73.8553 353.756 73.8553 359.074C73.8553 364.392 73.047 368.306 71.4303 370.816C69.8136 373.326 67.3035 374.475 63.9 374.475C60.4965 374.475 57.9864 373.284 56.3697 370.774C54.753 368.264 53.9447 364.349 53.9447 359.031ZM85.1471 354.437L83.4453 362.946H88.4655L86.5936 354.437C86.3808 353.543 86.2957 352.778 86.2107 352.182C86.1256 351.586 86.0405 351.118 85.9979 350.735C85.9554 350.353 85.9128 350.097 85.9128 349.97V349.757H85.8278V349.97C85.8278 350.097 85.7852 350.353 85.7427 350.735C85.7001 351.118 85.615 351.586 85.53 352.182C85.4449 352.778 85.3172 353.543 85.1471 354.437ZM97.1019 373.922H90.4651L89.5291 369.242H82.0413L81.1054 373.922H74.4685L81.4883 344.141H90.0822L97.1019 373.922ZM116.619 351.459L110.748 353.033L110.791 353.246C110.323 352.054 109.77 351.118 109.132 350.48C108.493 349.842 107.77 349.502 106.962 349.502C106.281 349.502 105.771 349.672 105.388 350.055C105.005 350.438 104.835 350.948 104.835 351.586C104.835 352.224 105.26 352.948 106.111 353.713C106.962 354.479 108.323 355.5 110.195 356.777C110.918 357.245 111.684 357.755 112.45 358.351C113.216 358.946 113.939 359.585 114.577 360.308C115.215 361.031 115.768 361.839 116.194 362.775C116.619 363.711 116.832 364.732 116.832 365.881C116.832 367.072 116.619 368.178 116.194 369.242C115.768 370.306 115.173 371.242 114.364 372.05C113.556 372.858 112.62 373.496 111.514 373.922C110.408 374.347 109.217 374.56 107.898 374.56C106.281 374.56 104.877 374.305 103.686 373.879C102.495 373.369 101.516 372.688 100.708 371.837C99.8995 370.986 99.2613 370.05 98.7934 368.987C98.3254 367.923 97.985 366.817 97.7723 365.668L103.899 364.009C104.111 365.285 104.579 366.349 105.26 367.2C105.941 368.051 106.834 368.476 107.898 368.476C108.536 368.476 109.089 368.264 109.557 367.881C110.025 367.498 110.28 366.945 110.28 366.221C110.28 365.753 110.195 365.328 109.982 364.945C109.77 364.562 109.472 364.179 109.089 363.839C108.706 363.499 108.238 363.116 107.685 362.733C107.132 362.35 106.536 361.924 105.898 361.456C104.792 360.648 103.771 359.882 102.835 359.159C101.899 358.436 101.091 357.67 100.41 356.904C99.7293 356.138 99.2188 355.288 98.8359 354.394C98.453 353.501 98.2828 352.437 98.2828 351.246C98.2828 350.438 98.453 349.587 98.7934 348.693C99.1337 347.8 99.6868 346.949 100.41 346.183C101.133 345.417 102.027 344.779 103.133 344.269C104.239 343.758 105.558 343.503 107.047 343.503C108.238 343.503 109.344 343.673 110.365 344.056C111.386 344.439 112.322 344.992 113.131 345.715C113.939 346.438 114.662 347.289 115.258 348.268C115.853 349.246 116.321 350.31 116.619 351.459ZM117.184 350.565V344.141H135.733V350.565H129.692V373.922H123.14V350.565H117.184ZM146.244 354.437L144.542 362.946H149.563L147.691 354.437C147.478 353.543 147.393 352.778 147.308 352.182C147.223 351.586 147.138 351.118 147.095 350.735C147.053 350.353 147.01 350.097 147.01 349.97V349.757H146.925V349.97C146.925 350.097 146.882 350.353 146.84 350.735C146.797 351.118 146.712 351.586 146.627 352.182C146.542 352.778 146.414 353.543 146.244 354.437ZM158.199 373.922H151.562L150.626 369.242H143.138L142.203 373.922H135.566L142.585 344.141H151.179L158.199 373.922ZM167.038 344.141V367.498H176.398V373.922H160.486V344.141H167.038ZM193.173 350.395V358.138H194.874H194.832C195.725 358.138 196.448 357.798 196.959 357.16C197.469 356.521 197.725 355.543 197.725 354.267C197.725 352.99 197.469 352.012 196.959 351.374C196.448 350.735 195.768 350.395 194.874 350.395H193.173ZM186.578 373.922V344.141H195.044V344.226C196.406 344.226 197.64 344.439 198.788 344.907C199.937 345.375 200.916 346.056 201.724 346.906C202.532 347.757 203.17 348.821 203.638 350.097C204.106 351.374 204.319 352.778 204.319 354.352C204.319 355.926 204.106 357.33 203.638 358.564C203.17 359.797 202.532 360.861 201.724 361.712C200.916 362.563 199.937 363.243 198.788 363.711C197.64 364.179 196.406 364.392 195.044 364.392H193.13V373.922H186.578ZM215.181 350.395H213.054V358.138L215.223 358.096C216.117 358.096 216.84 357.755 217.393 357.032C217.946 356.309 218.244 355.373 218.244 354.224C218.244 353.033 217.946 352.097 217.35 351.416C216.755 350.735 216.032 350.395 215.181 350.395ZM220.541 362.478L225.732 373.879H218.372L214.585 363.967H213.096V373.837H206.544V344.056H215.436C216.67 344.056 217.861 344.311 219.01 344.779C220.158 345.247 221.179 345.928 222.03 346.821C222.881 347.715 223.562 348.778 224.072 350.012C224.583 351.246 224.838 352.65 224.838 354.181C224.838 356.096 224.455 357.755 223.647 359.159C222.839 360.563 221.818 361.669 220.541 362.478ZM233.237 359.031C233.237 360.691 233.28 362.095 233.407 363.243C233.535 364.392 233.705 365.328 233.96 366.051C234.215 366.774 234.556 367.328 234.981 367.668C235.407 368.008 235.917 368.178 236.555 368.178C237.194 368.178 237.704 368.008 238.13 367.668C238.555 367.328 238.895 366.774 239.151 366.051C239.406 365.328 239.576 364.392 239.704 363.243C239.831 362.095 239.874 360.691 239.874 359.031C239.874 357.372 239.831 355.968 239.704 354.82C239.576 353.671 239.406 352.735 239.151 352.012C238.895 351.288 238.555 350.735 238.13 350.395C237.704 350.055 237.194 349.885 236.555 349.885C235.917 349.885 235.407 350.055 234.981 350.395C234.556 350.735 234.215 351.288 233.96 352.012C233.705 352.735 233.535 353.671 233.407 354.82C233.28 355.968 233.237 357.372 233.237 359.031ZM226.6 359.031V359.117C226.6 353.799 227.408 349.885 229.025 347.374C230.642 344.864 233.152 343.588 236.555 343.588C239.959 343.588 242.469 344.822 244.086 347.332C245.702 349.842 246.511 353.756 246.511 359.074C246.511 364.392 245.702 368.306 244.086 370.816C242.469 373.326 239.959 374.475 236.555 374.475C233.152 374.475 230.642 373.284 229.025 370.774C227.408 368.264 226.6 364.349 226.6 359.031ZM247.294 350.565V344.141H265.843V350.565H259.802V373.922H253.25V350.565H247.294ZM274.525 361.839V367.498H283.544V373.922H267.973V344.141H283.289V350.565H274.525V355.713H280.779V361.839H274.525ZM304.931 351.416L298.847 353.075L298.762 353.16C298.549 352.48 298.337 351.927 298.124 351.501C297.911 351.076 297.656 350.735 297.401 350.523C297.145 350.31 296.89 350.14 296.592 350.055C296.294 349.97 295.997 349.927 295.699 349.927C294.508 349.927 293.657 350.65 293.146 352.097C292.636 353.543 292.38 355.883 292.38 359.159C292.38 362.307 292.678 364.647 293.274 366.136C293.869 367.625 294.763 368.391 295.954 368.391C296.38 368.391 296.762 368.349 297.103 368.264C297.443 368.178 297.741 367.966 298.039 367.668C298.337 367.37 298.592 366.945 298.847 366.392C299.102 365.839 299.315 365.115 299.485 364.222L305.399 365.839C304.803 368.859 303.697 371.071 302.08 372.475C300.464 373.879 298.379 374.517 295.784 374.517C292.38 374.517 289.87 373.326 288.254 370.816C286.637 368.306 285.829 364.392 285.829 359.074C285.829 353.756 286.637 349.842 288.254 347.332C289.87 344.822 292.38 343.545 295.784 343.545C298.209 343.545 300.166 344.184 301.655 345.46C303.144 346.736 304.25 348.736 304.931 351.416ZM305.774 350.565V344.141H324.323V350.565H318.282V373.922H311.73V350.565H305.774ZM331.728 359.031C331.728 360.691 331.77 362.095 331.898 363.243C332.026 364.392 332.196 365.328 332.451 366.051C332.706 366.774 333.047 367.328 333.472 367.668C333.898 368.008 334.408 368.178 335.046 368.178C335.684 368.178 336.195 368.008 336.62 367.668C337.046 367.328 337.386 366.774 337.642 366.051C337.897 365.328 338.067 364.392 338.195 363.243C338.322 362.095 338.365 360.691 338.365 359.031C338.365 357.372 338.322 355.968 338.195 354.82C338.067 353.671 337.897 352.735 337.642 352.012C337.386 351.288 337.046 350.735 336.62 350.395C336.195 350.055 335.684 349.885 335.046 349.885C334.408 349.885 333.898 350.055 333.472 350.395C333.047 350.735 332.706 351.288 332.451 352.012C332.196 352.735 332.026 353.671 331.898 354.82C331.77 355.968 331.728 357.372 331.728 359.031ZM325.091 359.031V359.117C325.091 353.799 325.899 349.885 327.516 347.374C329.133 344.864 331.643 343.588 335.046 343.588C338.45 343.588 340.96 344.822 342.577 347.332C344.193 349.842 345.002 353.756 345.002 359.074C345.002 364.392 344.193 368.306 342.577 370.816C340.96 373.326 338.45 374.475 335.046 374.475C331.643 374.475 329.133 373.284 327.516 370.774C325.899 368.264 325.091 364.349 325.091 359.031ZM356.591 350.395H354.464V358.138L356.634 358.096C357.527 358.096 358.25 357.755 358.803 357.032C359.357 356.309 359.654 355.373 359.654 354.224C359.654 353.033 359.357 352.097 358.761 351.416C358.165 350.735 357.442 350.395 356.591 350.395ZM361.952 362.478L367.142 373.879H359.782L355.996 363.967H354.507V373.837H347.955V344.056H356.846C358.08 344.056 359.271 344.311 360.42 344.779C361.569 345.247 362.59 345.928 363.441 346.821C364.292 347.715 364.972 348.778 365.483 350.012C365.993 351.246 366.249 352.65 366.249 354.181C366.249 356.096 365.866 357.755 365.057 359.159C364.249 360.563 363.228 361.669 361.952 362.478Z" fill="white"/>
</g>
<rect width="376" height="272" transform="translate(12 11.9219)" fill="#F7EBDF"/>
</g>
<rect x="6.41489" y="6.41587" width="387.17" height="387.17" stroke="#CEAA88" stroke-width="12.8298"/>
<defs>
<filter id="filter0_d_456_1036" x="161.399" y="300.801" width="81.0196" height="35.4229" filterUnits="userSpaceOnUse" color-interpolation-filters="sRGB">
<feFlood flood-opacity="0" result="BackgroundImageFix"/>
<feColorMatrix in="SourceAlpha" type="matrix" values="0 0 0 0 0 0 0 0 0 0 0 0 0 0 0 0 0 0 127 0" result="hardAlpha"/>
<feOffset dy="2.56596"/>
<feGaussianBlur stdDeviation="1.28298"/>
<feComposite in2="hardAlpha" operator="out"/>
<feColorMatrix type="matrix" values="0 0 0 0 0 0 0 0 0 0 0 0 0 0 0 0 0 0 0.15 0"/>
<feBlend mode="normal" in2="BackgroundImageFix" result="effect1_dropShadow_456_1036"/>
<feBlend mode="normal" in="SourceGraphic" in2="effect1_dropShadow_456_1036" result="shape"/>
</filter>
<filter id="filter1_d_456_1036" x="30.6679" y="343.503" width="339.04" height="36.1886" filterUnits="userSpaceOnUse" color-interpolation-filters="sRGB">
<feFlood flood-opacity="0" result="BackgroundImageFix"/>
<feColorMatrix in="SourceAlpha" type="matrix" values="0 0 0 0 0 0 0 0 0 0 0 0 0 0 0 0 0 0 127 0" result="hardAlpha"/>
<feOffset dy="2.56596"/>
<feGaussianBlur stdDeviation="1.28298"/>
<feComposite in2="hardAlpha" operator="out"/>
<feColorMatrix type="matrix" values="0 0 0 0 0 0 0 0 0 0 0 0 0 0 0 0 0 0 0.15 0"/>
<feBlend mode="normal" in2="BackgroundImageFix" result="effect1_dropShadow_456_1036"/>
<feBlend mode="normal" in="SourceGraphic" in2="effect1_dropShadow_456_1036" result="shape"/>
</filter>
<clipPath id="clip0_456_1036">
<rect y="0.000976562" width="400" height="400" fill="white"/>
</clipPath>
</defs>
</svg>
