<svg width="401" height="400" viewBox="0 0 401 400" fill="none" xmlns="http://www.w3.org/2000/svg">
<rect x="6.986" y="6.66764" width="386.667" height="386.667" fill="white"/>
<rect x="6.986" y="6.66764" width="386.667" height="386.667" stroke="#F7EBDF" stroke-width="13.3333"/>
<rect width="373.333" height="373.333" transform="translate(13.6523 13.334)" fill="#2B90D0"/>
<g filter="url(#filter0_d_456_1049)">
<path d="M50.0668 246.119V278.001H43.0526V246.119H50.0668ZM81.2938 253.952L75.0084 255.638L75.0539 255.865C74.5529 254.59 73.9608 253.588 73.2776 252.905C72.5944 252.222 71.8201 251.857 70.9548 251.857C70.226 251.857 69.6795 252.04 69.2695 252.449C68.8596 252.859 68.6774 253.406 68.6774 254.089C68.6774 254.772 69.1329 255.547 70.0438 256.366C70.9548 257.186 72.4122 258.279 74.4163 259.646C75.1906 260.147 76.0104 260.693 76.8302 261.331C77.6501 261.969 78.4244 262.652 79.1076 263.426C79.7908 264.2 80.3829 265.066 80.8383 266.068C81.2938 267.07 81.5215 268.163 81.5215 269.393C81.5215 270.668 81.2938 271.852 80.8383 272.991C80.3829 274.13 79.7452 275.132 78.8798 275.997C78.0144 276.862 77.0124 277.546 75.8282 278.001C74.644 278.456 73.3687 278.684 71.9568 278.684C70.226 278.684 68.723 278.411 67.4477 277.955C66.1724 277.409 65.1248 276.68 64.2594 275.769C63.3941 274.858 62.7109 273.856 62.2098 272.718C61.7088 271.579 61.3445 270.395 61.1167 269.165L67.6754 267.389C67.9031 268.755 68.4042 269.894 69.1329 270.805C69.8616 271.716 70.8181 272.171 71.9568 272.171C72.64 272.171 73.2321 271.943 73.7331 271.533C74.2341 271.123 74.5074 270.531 74.5074 269.757C74.5074 269.256 74.4163 268.801 74.1885 268.391C73.9608 267.981 73.642 267.571 73.2321 267.206C72.8222 266.842 72.3211 266.432 71.729 266.022C71.1369 265.612 70.4993 265.157 69.8161 264.656C68.6319 263.791 67.5388 262.971 66.5368 262.196C65.5347 261.422 64.6694 260.602 63.9406 259.782C63.2119 258.963 62.6653 258.052 62.2554 257.095C61.8455 256.139 61.6633 255 61.6633 253.725C61.6633 252.859 61.8455 251.948 62.2098 250.992C62.5742 250.035 63.1663 249.125 63.9406 248.305C64.7149 247.485 65.6714 246.802 66.8556 246.255C68.0398 245.709 69.4517 245.435 71.0458 245.435C72.3211 245.435 73.5054 245.617 74.5985 246.027C75.6916 246.437 76.6936 247.029 77.559 247.804C78.4244 248.578 79.1987 249.489 79.8363 250.537C80.4739 251.584 80.975 252.723 81.2938 253.952ZM81.8987 252.996V246.119H101.757V252.996H95.2893V278.001H88.2752V252.996H81.8987ZM113.009 257.141L111.188 266.25H116.562L114.558 257.141C114.33 256.184 114.239 255.364 114.148 254.727C114.057 254.089 113.966 253.588 113.92 253.178C113.875 252.768 113.829 252.495 113.829 252.358V252.131H113.738V252.358C113.738 252.495 113.693 252.768 113.647 253.178C113.601 253.588 113.51 254.089 113.419 254.727C113.328 255.364 113.192 256.184 113.009 257.141ZM125.808 278.001H118.703L117.701 272.991H109.684L108.682 278.001H101.577L109.092 246.119H118.293L125.808 278.001ZM141.556 253.36V246.119H148.388V278.001H142.649L136.956 266.113C136.637 265.43 136.318 264.747 135.999 264.018C135.68 263.289 135.407 262.652 135.179 262.06C134.952 261.468 134.77 261.012 134.633 260.648L134.451 260.101H134.314L134.451 260.876C134.542 261.377 134.633 262.105 134.724 263.062C134.815 264.018 134.906 265.157 134.997 266.478C135.088 267.799 135.134 269.256 135.134 270.85V277.955H128.302V246.073H134.041L140.281 259.008C140.964 260.375 141.419 261.513 141.693 262.424C141.966 263.335 142.102 263.791 142.148 263.791H142.285L142.194 263.062C142.148 262.606 142.057 261.923 141.966 261.012C141.875 260.101 141.784 259.008 141.693 257.733C141.601 256.458 141.556 255 141.556 253.36ZM159.935 252.859V271.215H161.256L161.165 271.26C163.305 271.26 164.763 270.486 165.537 268.983C166.311 267.48 166.721 265.202 166.721 262.196C166.721 258.826 166.22 256.412 165.218 255C164.216 253.588 162.759 252.859 160.8 252.859H159.935ZM152.83 278.001V246.164H159.343L159.297 246.21C164.034 246.21 167.632 247.622 170.092 250.4C172.551 253.178 173.781 257.141 173.781 262.287C173.781 267.252 172.642 271.123 170.32 273.902C167.997 276.68 164.49 278.001 159.798 278.001H152.83Z" fill="white"/>
</g>
<g filter="url(#filter1_d_456_1049)">
<path d="M52.2553 289.061V293.362H46.4158V297.436H50.6886V301.652H46.4158V309.001H42.029V289.061H52.2553ZM57.5096 299.031C57.5096 300.142 57.5381 301.082 57.6235 301.851C57.709 302.62 57.8229 303.247 57.9939 303.731C58.1648 304.215 58.3927 304.586 58.6775 304.814C58.9624 305.041 59.3042 305.155 59.7315 305.155C60.1588 305.155 60.5006 305.041 60.7855 304.814C61.0703 304.586 61.2982 304.215 61.4691 303.731C61.64 303.247 61.754 302.62 61.8394 301.851C61.9249 301.082 61.9534 300.142 61.9534 299.031C61.9534 297.92 61.9249 296.98 61.8394 296.211C61.754 295.442 61.64 294.815 61.4691 294.331C61.2982 293.847 61.0703 293.476 60.7855 293.248C60.5006 293.021 60.1588 292.907 59.7315 292.907C59.3042 292.907 58.9624 293.021 58.6775 293.248C58.3927 293.476 58.1648 293.847 57.9939 294.331C57.8229 294.815 57.709 295.442 57.6235 296.211C57.5381 296.98 57.5096 297.92 57.5096 299.031ZM53.0658 299.031V299.088C53.0658 295.527 53.6071 292.907 54.6895 291.226C55.772 289.545 57.4526 288.691 59.7315 288.691C62.0103 288.691 63.691 289.517 64.7734 291.197C65.8559 292.878 66.3971 295.499 66.3971 299.059C66.3971 302.62 65.8559 305.241 64.7734 306.922C63.691 308.602 62.0103 309.371 59.7315 309.371C57.4526 309.371 55.772 308.574 54.6895 306.893C53.6071 305.212 53.0658 302.592 53.0658 299.031ZM74.157 293.248H72.7327V298.433L74.1855 298.404C74.7837 298.404 75.268 298.176 75.6383 297.692C76.0086 297.208 76.208 296.581 76.208 295.812C76.208 295.015 76.0086 294.388 75.6098 293.932C75.211 293.476 74.7267 293.248 74.157 293.248ZM77.7462 301.338L81.2215 308.972H76.2935L73.7582 302.335H72.7612V308.944H68.3744V289.004H74.3279C75.154 289.004 75.9516 289.175 76.7207 289.488C77.4899 289.802 78.1735 290.257 78.7432 290.856C79.3129 291.454 79.7687 292.166 80.1105 292.992C80.4524 293.818 80.6233 294.758 80.6233 295.784C80.6233 297.065 80.3669 298.176 79.8257 299.116C79.2845 300.056 78.6008 300.797 77.7462 301.338ZM99.3842 293.961L95.4532 295.015L95.4817 295.157C95.1683 294.359 94.798 293.733 94.3707 293.305C93.9435 292.878 93.4592 292.65 92.918 292.65C92.4622 292.65 92.1204 292.764 91.864 293.021C91.6076 293.277 91.4937 293.619 91.4937 294.046C91.4937 294.473 91.7785 294.958 92.3483 295.47C92.918 295.983 93.8295 296.667 95.0829 297.521C95.5671 297.835 96.0799 298.176 96.5926 298.575C97.1054 298.974 97.5896 299.401 98.0169 299.886C98.4442 300.37 98.8145 300.911 99.0994 301.538C99.3842 302.164 99.5267 302.848 99.5267 303.617C99.5267 304.415 99.3842 305.155 99.0994 305.868C98.8145 306.58 98.4157 307.206 97.8745 307.748C97.3333 308.289 96.7066 308.716 95.9659 309.001C95.2253 309.286 94.4277 309.428 93.5447 309.428C92.4622 309.428 91.5222 309.257 90.7246 308.972C89.927 308.631 89.2718 308.175 88.7306 307.605C88.1893 307.035 87.7621 306.409 87.4487 305.697C87.1354 304.984 86.9075 304.244 86.7651 303.475L90.867 302.364C91.0094 303.218 91.3228 303.931 91.7785 304.5C92.2343 305.07 92.8325 305.355 93.5447 305.355C93.9719 305.355 94.3423 305.212 94.6556 304.956C94.9689 304.7 95.1399 304.329 95.1399 303.845C95.1399 303.532 95.0829 303.247 94.9405 302.99C94.798 302.734 94.5986 302.478 94.3423 302.25C94.0859 302.022 93.7725 301.766 93.4022 301.509C93.0319 301.253 92.6331 300.968 92.2058 300.655C91.4652 300.113 90.7815 299.601 90.1549 299.116C89.5282 298.632 88.9869 298.119 88.5312 297.607C88.0754 297.094 87.7336 296.524 87.4772 295.926C87.2208 295.328 87.1069 294.616 87.1069 293.818C87.1069 293.277 87.2208 292.707 87.4487 292.109C87.6766 291.511 88.0469 290.941 88.5312 290.428C89.0154 289.916 89.6136 289.488 90.3543 289.146C91.0949 288.805 91.9779 288.634 92.9749 288.634C93.7725 288.634 94.5132 288.748 95.1968 289.004C95.8805 289.26 96.5072 289.631 97.0484 290.115C97.5896 290.599 98.0739 291.169 98.4727 291.824C98.8715 292.479 99.1848 293.191 99.3842 293.961ZM99.7625 293.362V289.061H112.182V293.362H108.137V309.001H103.751V293.362H99.7625ZM119.419 293.248H117.995V298.433L119.448 298.404C120.046 298.404 120.53 298.176 120.9 297.692C121.271 297.208 121.47 296.581 121.47 295.812C121.47 295.015 121.271 294.388 120.872 293.932C120.473 293.476 119.989 293.248 119.419 293.248ZM123.008 301.338L126.484 308.972H121.556L119.02 302.335H118.023V308.944H113.637V289.004H119.59C120.416 289.004 121.214 289.175 121.983 289.488C122.752 289.802 123.436 290.257 124.005 290.856C124.575 291.454 125.031 292.166 125.373 292.992C125.715 293.818 125.885 294.758 125.885 295.784C125.885 297.065 125.629 298.176 125.088 299.116C124.547 300.056 123.863 300.797 123.008 301.338ZM131.509 299.031C131.509 300.142 131.537 301.082 131.623 301.851C131.708 302.62 131.822 303.247 131.993 303.731C132.164 304.215 132.392 304.586 132.677 304.814C132.962 305.041 133.304 305.155 133.731 305.155C134.158 305.155 134.5 305.041 134.785 304.814C135.07 304.586 135.298 304.215 135.468 303.731C135.639 303.247 135.753 302.62 135.839 301.851C135.924 301.082 135.953 300.142 135.953 299.031C135.953 297.92 135.924 296.98 135.839 296.211C135.753 295.442 135.639 294.815 135.468 294.331C135.298 293.847 135.07 293.476 134.785 293.248C134.5 293.021 134.158 292.907 133.731 292.907C133.304 292.907 132.962 293.021 132.677 293.248C132.392 293.476 132.164 293.847 131.993 294.331C131.822 294.815 131.708 295.442 131.623 296.211C131.537 296.98 131.509 297.92 131.509 299.031ZM127.065 299.031V299.088C127.065 295.527 127.606 292.907 128.689 291.226C129.771 289.545 131.452 288.691 133.731 288.691C136.01 288.691 137.69 289.517 138.773 291.197C139.855 292.878 140.396 295.499 140.396 299.059C140.396 302.62 139.855 305.241 138.773 306.922C137.69 308.602 136.01 309.371 133.731 309.371C131.452 309.371 129.771 308.574 128.689 306.893C127.606 305.212 127.065 302.592 127.065 299.031ZM150.663 293.59V289.061H154.936V309.001H151.347L147.786 301.566C147.587 301.139 147.387 300.712 147.188 300.256C146.988 299.8 146.818 299.401 146.675 299.031C146.533 298.661 146.419 298.376 146.333 298.148L146.219 297.806H146.134L146.219 298.29C146.276 298.604 146.333 299.059 146.39 299.658C146.447 300.256 146.504 300.968 146.561 301.794C146.618 302.62 146.647 303.532 146.647 304.529V308.972H142.374V289.033H145.963L149.866 297.122C150.293 297.977 150.578 298.689 150.749 299.259C150.919 299.829 151.005 300.113 151.033 300.113H151.119L151.062 299.658C151.033 299.373 150.976 298.946 150.919 298.376C150.863 297.806 150.806 297.122 150.749 296.325C150.692 295.527 150.663 294.616 150.663 293.59ZM166.317 307.292H166.26L166.231 307.32C166.174 307.491 166.06 307.691 165.889 307.919C165.718 308.146 165.519 308.346 165.263 308.545C165.006 308.745 164.693 308.916 164.323 309.001C163.952 309.143 163.525 309.2 163.041 309.2C160.99 309.2 159.452 308.431 158.398 306.779C157.344 305.127 156.831 302.535 156.831 299.003C156.831 295.442 157.372 292.821 158.455 291.14C159.537 289.46 161.218 288.605 163.497 288.605C165.12 288.605 166.431 289.033 167.428 289.887C168.425 290.742 169.165 292.08 169.621 293.875L165.548 294.986C165.405 294.53 165.263 294.16 165.12 293.875C164.978 293.59 164.835 293.362 164.665 293.22C164.494 293.077 164.323 292.964 164.123 292.907C163.924 292.85 163.724 292.821 163.497 292.821C162.699 292.821 162.129 293.277 161.787 294.217C161.446 295.157 161.275 296.752 161.275 299.003C161.275 301.11 161.503 302.677 161.93 303.674C162.357 304.671 163.041 305.184 163.981 305.184C164.608 305.184 165.092 304.956 165.434 304.5C165.775 304.044 166.032 303.361 166.174 302.449V301.224H163.354V297.664H169.82V309.001H166.26C166.26 308.289 166.26 307.833 166.288 307.634C166.317 307.434 166.317 307.32 166.317 307.292Z" fill="white"/>
</g>
<g filter="url(#filter2_d_456_1049)">
<path d="M62.6775 328.258L55.9889 330.082L55.8954 330.176C55.6615 329.427 55.4276 328.819 55.1938 328.351C54.9599 327.884 54.6793 327.509 54.3986 327.276C54.118 327.042 53.8373 326.855 53.5099 326.761C53.1825 326.668 52.8551 326.621 52.5277 326.621C51.218 326.621 50.2826 327.416 49.7213 329.006C49.16 330.597 48.8794 333.169 48.8794 336.771C48.8794 340.232 49.2068 342.804 49.8616 344.441C50.5164 346.079 51.4987 346.92 52.8083 346.92C53.2761 346.92 53.697 346.874 54.0712 346.78C54.4454 346.687 54.7728 346.453 55.1002 346.125C55.4276 345.798 55.7083 345.33 55.9889 344.722C56.2696 344.114 56.5034 343.319 56.6905 342.337L63.192 344.114C62.5372 347.435 61.3211 349.867 59.5437 351.411C57.7663 352.954 55.4744 353.656 52.6212 353.656C48.8794 353.656 46.1197 352.346 44.3423 349.587C42.5649 346.827 41.6763 342.524 41.6763 336.677C41.6763 330.83 42.5649 326.527 44.3423 323.768C46.1197 321.008 48.8794 319.605 52.6212 319.605C55.2873 319.605 57.4389 320.306 59.076 321.71C60.713 323.113 61.9291 325.311 62.6775 328.258ZM71.7428 336.63C71.7428 338.454 71.7896 339.998 71.9299 341.261C72.0702 342.524 72.2573 343.553 72.5379 344.348C72.8186 345.143 73.1928 345.751 73.6605 346.125C74.1282 346.499 74.6895 346.687 75.3911 346.687C76.0927 346.687 76.654 346.499 77.1217 346.125C77.5895 345.751 77.9637 345.143 78.2443 344.348C78.5249 343.553 78.712 342.524 78.8524 341.261C78.9927 339.998 79.0395 338.454 79.0395 336.63C79.0395 334.806 78.9927 333.263 78.8524 332C78.712 330.737 78.5249 329.708 78.2443 328.913C77.9637 328.118 77.5895 327.509 77.1217 327.135C76.654 326.761 76.0927 326.574 75.3911 326.574C74.6895 326.574 74.1282 326.761 73.6605 327.135C73.1928 327.509 72.8186 328.118 72.5379 328.913C72.2573 329.708 72.0702 330.737 71.9299 332C71.7896 333.263 71.7428 334.806 71.7428 336.63ZM64.4461 336.63V336.724C64.4461 330.877 65.3348 326.574 67.1122 323.814C68.8896 321.055 71.6493 319.652 75.3911 319.652C79.133 319.652 81.8926 321.008 83.67 323.768C85.4474 326.527 86.3361 330.83 86.3361 336.677C86.3361 342.524 85.4474 346.827 83.67 349.587C81.8926 352.346 79.133 353.609 75.3911 353.609C71.6493 353.609 68.8896 352.299 67.1122 349.54C65.3348 346.78 64.4461 342.477 64.4461 336.63ZM98.7504 331.579L96.8795 340.933H102.399L100.341 331.579C100.107 330.597 100.013 329.755 99.9198 329.1C99.8262 328.445 99.7327 327.93 99.6859 327.509C99.6391 327.088 99.5924 326.808 99.5924 326.668V326.434H99.4988V326.668C99.4988 326.808 99.452 327.088 99.4053 327.509C99.3585 327.93 99.2649 328.445 99.1714 329.1C99.0778 329.755 98.9375 330.597 98.7504 331.579ZM111.894 353.001H104.597L103.568 347.856H95.336L94.307 353.001H87.0103L94.7279 320.26H104.176L111.894 353.001ZM133.351 328.305L126.897 330.035L126.943 330.269C126.429 328.959 125.821 327.93 125.119 327.229C124.418 326.527 123.623 326.153 122.734 326.153C121.986 326.153 121.424 326.34 121.003 326.761C120.582 327.182 120.395 327.743 120.395 328.445C120.395 329.147 120.863 329.942 121.798 330.784C122.734 331.626 124.231 332.748 126.289 334.151C127.084 334.666 127.926 335.227 128.768 335.882C129.61 336.537 130.405 337.238 131.106 338.033C131.808 338.829 132.416 339.717 132.884 340.746C133.351 341.775 133.585 342.898 133.585 344.161C133.585 345.47 133.351 346.687 132.884 347.856C132.416 349.025 131.761 350.054 130.872 350.943C129.984 351.832 128.955 352.533 127.739 353.001C126.523 353.469 125.213 353.703 123.763 353.703C121.986 353.703 120.442 353.422 119.132 352.954C117.823 352.393 116.747 351.645 115.858 350.709C114.969 349.774 114.268 348.745 113.753 347.575C113.239 346.406 112.865 345.19 112.631 343.927L119.366 342.103C119.6 343.506 120.115 344.675 120.863 345.611C121.611 346.546 122.594 347.014 123.763 347.014C124.464 347.014 125.073 346.78 125.587 346.359C126.102 345.938 126.382 345.33 126.382 344.535C126.382 344.02 126.289 343.553 126.055 343.132C125.821 342.711 125.494 342.29 125.073 341.916C124.652 341.541 124.137 341.121 123.529 340.7C122.921 340.279 122.266 339.811 121.565 339.296C120.348 338.408 119.226 337.566 118.197 336.771C117.168 335.975 116.279 335.134 115.531 334.292C114.782 333.45 114.221 332.514 113.8 331.532C113.379 330.55 113.192 329.38 113.192 328.071C113.192 327.182 113.379 326.247 113.753 325.264C114.128 324.282 114.736 323.347 115.531 322.505C116.326 321.663 117.308 320.961 118.524 320.4C119.74 319.839 121.19 319.558 122.827 319.558C124.137 319.558 125.353 319.745 126.476 320.166C127.598 320.587 128.627 321.195 129.516 321.99C130.405 322.785 131.2 323.721 131.855 324.797C132.51 325.872 133.024 327.042 133.351 328.305ZM133.973 327.322V320.26H154.366V327.322H147.724V353.001H140.521V327.322H133.973ZM175.65 328.305L169.196 330.035L169.242 330.269C168.728 328.959 168.12 327.93 167.418 327.229C166.717 326.527 165.921 326.153 165.033 326.153C164.284 326.153 163.723 326.34 163.302 326.761C162.881 327.182 162.694 327.743 162.694 328.445C162.694 329.147 163.162 329.942 164.097 330.784C165.033 331.626 166.53 332.748 168.588 334.151C169.383 334.666 170.225 335.227 171.067 335.882C171.908 336.537 172.704 337.238 173.405 338.033C174.107 338.829 174.715 339.717 175.183 340.746C175.65 341.775 175.884 342.898 175.884 344.161C175.884 345.47 175.65 346.687 175.183 347.856C174.715 349.025 174.06 350.054 173.171 350.943C172.283 351.832 171.254 352.533 170.038 353.001C168.821 353.469 167.512 353.703 166.062 353.703C164.284 353.703 162.741 353.422 161.431 352.954C160.122 352.393 159.046 351.645 158.157 350.709C157.268 349.774 156.567 348.745 156.052 347.575C155.538 346.406 155.164 345.19 154.93 343.927L161.665 342.103C161.899 343.506 162.413 344.675 163.162 345.611C163.91 346.546 164.892 347.014 166.062 347.014C166.763 347.014 167.371 346.78 167.886 346.359C168.4 345.938 168.681 345.33 168.681 344.535C168.681 344.02 168.588 343.553 168.354 343.132C168.12 342.711 167.792 342.29 167.371 341.916C166.95 341.541 166.436 341.121 165.828 340.7C165.22 340.279 164.565 339.811 163.863 339.296C162.647 338.408 161.525 337.566 160.496 336.771C159.467 335.975 158.578 335.134 157.83 334.292C157.081 333.45 156.52 332.514 156.099 331.532C155.678 330.55 155.491 329.38 155.491 328.071C155.491 327.182 155.678 326.247 156.052 325.264C156.426 324.282 157.035 323.347 157.83 322.505C158.625 321.663 159.607 320.961 160.823 320.4C162.039 319.839 163.489 319.558 165.126 319.558C166.436 319.558 167.652 319.745 168.775 320.166C169.897 320.587 170.926 321.195 171.815 321.99C172.704 322.785 173.499 323.721 174.154 324.797C174.808 325.872 175.323 327.042 175.65 328.305Z" fill="white"/>
</g>
<defs>
<filter id="filter0_d_456_1049" x="40.7436" y="245.436" width="135.347" height="37.8672" filterUnits="userSpaceOnUse" color-interpolation-filters="sRGB">
<feFlood flood-opacity="0" result="BackgroundImageFix"/>
<feColorMatrix in="SourceAlpha" type="matrix" values="0 0 0 0 0 0 0 0 0 0 0 0 0 0 0 0 0 0 127 0" result="hardAlpha"/>
<feOffset dy="2.3091"/>
<feGaussianBlur stdDeviation="1.15455"/>
<feComposite in2="hardAlpha" operator="out"/>
<feColorMatrix type="matrix" values="0 0 0 0 0 0 0 0 0 0 0 0 0 0 0 0 0 0 0.15 0"/>
<feBlend mode="normal" in2="BackgroundImageFix" result="effect1_dropShadow_456_1049"/>
<feBlend mode="normal" in="SourceGraphic" in2="effect1_dropShadow_456_1049" result="shape"/>
</filter>
<filter id="filter1_d_456_1049" x="39.4968" y="288.605" width="132.856" height="25.8873" filterUnits="userSpaceOnUse" color-interpolation-filters="sRGB">
<feFlood flood-opacity="0" result="BackgroundImageFix"/>
<feColorMatrix in="SourceAlpha" type="matrix" values="0 0 0 0 0 0 0 0 0 0 0 0 0 0 0 0 0 0 127 0" result="hardAlpha"/>
<feOffset dy="2.53205"/>
<feGaussianBlur stdDeviation="1.26602"/>
<feComposite in2="hardAlpha" operator="out"/>
<feColorMatrix type="matrix" values="0 0 0 0 0 0 0 0 0 0 0 0 0 0 0 0 0 0 0.15 0"/>
<feBlend mode="normal" in2="BackgroundImageFix" result="effect1_dropShadow_456_1049"/>
<feBlend mode="normal" in="SourceGraphic" in2="effect1_dropShadow_456_1049" result="shape"/>
</filter>
<filter id="filter2_d_456_1049" x="38.8228" y="319.558" width="139.915" height="39.8515" filterUnits="userSpaceOnUse" color-interpolation-filters="sRGB">
<feFlood flood-opacity="0" result="BackgroundImageFix"/>
<feColorMatrix in="SourceAlpha" type="matrix" values="0 0 0 0 0 0 0 0 0 0 0 0 0 0 0 0 0 0 127 0" result="hardAlpha"/>
<feOffset dy="2.85348"/>
<feGaussianBlur stdDeviation="1.42674"/>
<feComposite in2="hardAlpha" operator="out"/>
<feColorMatrix type="matrix" values="0 0 0 0 0 0 0 0 0 0 0 0 0 0 0 0 0 0 0.15 0"/>
<feBlend mode="normal" in2="BackgroundImageFix" result="effect1_dropShadow_456_1049"/>
<feBlend mode="normal" in="SourceGraphic" in2="effect1_dropShadow_456_1049" result="shape"/>
</filter>
</defs>
</svg>
